<mxfile host="app.diagrams.net" modified="2023-06-15T04:49:54.131Z" agent="Mozilla/5.0 (Windows NT 10.0; Win64; x64; rv:109.0) Gecko/20100101 Firefox/113.0" etag="e7SkNiRi6Fb2Oj6tAfgd" version="21.3.8" type="device">
  <diagram name="Page-1" id="1XOLyeBQSop-l4tm0l-H">
    <mxGraphModel dx="27830" dy="16040" grid="1" gridSize="10" guides="1" tooltips="1" connect="1" arrows="1" fold="1" page="1" pageScale="1" pageWidth="850" pageHeight="1100" math="0" shadow="0">
      <root>
        <mxCell id="0" />
        <mxCell id="1" parent="0" />
        <mxCell id="HW1hoY80eRV9O5wP7MRS-137" value="Availability Zone N. California US-WEST-1b" style="fillColor=none;strokeColor=#147EBA;dashed=1;verticalAlign=top;fontStyle=0;fontColor=#147EBA;whiteSpace=wrap;html=1;strokeWidth=1.5;rotation=-90;movable=0;resizable=0;rotatable=0;deletable=0;editable=0;locked=1;connectable=0;" vertex="1" parent="1">
          <mxGeometry x="1726.69" y="25.32" width="205.26" height="560" as="geometry" />
        </mxCell>
        <mxCell id="HW1hoY80eRV9O5wP7MRS-121" value="Region" style="points=[[0,0],[0.25,0],[0.5,0],[0.75,0],[1,0],[1,0.25],[1,0.5],[1,0.75],[1,1],[0.75,1],[0.5,1],[0.25,1],[0,1],[0,0.75],[0,0.5],[0,0.25]];outlineConnect=0;gradientColor=none;html=1;whiteSpace=wrap;fontSize=12;fontStyle=0;container=1;pointerEvents=0;collapsible=0;recursiveResize=0;shape=mxgraph.aws4.group;grIcon=mxgraph.aws4.group_region;strokeColor=#147EBA;fillColor=none;verticalAlign=top;align=left;spacingLeft=30;fontColor=#147EBA;dashed=1;strokeWidth=1.5;movable=0;resizable=0;rotatable=0;deletable=0;editable=0;locked=1;connectable=0;" vertex="1" parent="1">
          <mxGeometry x="1520" y="150" width="610" height="530" as="geometry" />
        </mxCell>
        <mxCell id="HW1hoY80eRV9O5wP7MRS-125" value="Security group" style="fillColor=none;strokeColor=#DD3522;verticalAlign=top;fontStyle=0;fontColor=#DD3522;whiteSpace=wrap;html=1;movable=0;resizable=0;rotatable=0;deletable=0;editable=0;locked=1;connectable=0;strokeWidth=1.5;" vertex="1" parent="1">
          <mxGeometry x="1570" y="210" width="510" height="440" as="geometry" />
        </mxCell>
        <mxCell id="HW1hoY80eRV9O5wP7MRS-127" value="VPC 10.0.0.0/16" style="points=[[0,0],[0.25,0],[0.5,0],[0.75,0],[1,0],[1,0.25],[1,0.5],[1,0.75],[1,1],[0.75,1],[0.5,1],[0.25,1],[0,1],[0,0.75],[0,0.5],[0,0.25]];outlineConnect=0;gradientColor=none;html=1;whiteSpace=wrap;fontSize=12;fontStyle=0;container=1;pointerEvents=0;collapsible=0;recursiveResize=0;shape=mxgraph.aws4.group;grIcon=mxgraph.aws4.group_vpc;strokeColor=#248814;fillColor=none;verticalAlign=top;align=left;spacingLeft=30;fontColor=#AAB7B8;dashed=0;movable=0;resizable=0;rotatable=0;deletable=0;editable=0;locked=1;connectable=0;strokeWidth=1.5;" vertex="1" parent="1">
          <mxGeometry x="1590" y="240" width="470" height="390" as="geometry" />
        </mxCell>
        <mxCell id="HW1hoY80eRV9O5wP7MRS-126" value="Availability Zone N. California US-WEST-1a" style="fillColor=none;strokeColor=#147EBA;dashed=1;verticalAlign=top;fontStyle=0;fontColor=#147EBA;whiteSpace=wrap;html=1;strokeWidth=2;rotation=-90;movable=0;resizable=0;rotatable=0;deletable=0;editable=0;locked=1;connectable=0;" vertex="1" parent="1">
          <mxGeometry x="1734.08" y="283.77" width="189.16" height="559.31" as="geometry" />
        </mxCell>
        <mxCell id="HW1hoY80eRV9O5wP7MRS-142" value="&lt;div&gt;Private subnet&lt;/div&gt;&lt;div&gt;&lt;font style=&quot;font-size: 8px;&quot;&gt;10.0.4.0/24&lt;br&gt;&lt;/font&gt;&lt;/div&gt;" style="points=[[0,0],[0.25,0],[0.5,0],[0.75,0],[1,0],[1,0.25],[1,0.5],[1,0.75],[1,1],[0.75,1],[0.5,1],[0.25,1],[0,1],[0,0.75],[0,0.5],[0,0.25]];outlineConnect=0;gradientColor=none;html=1;whiteSpace=wrap;fontSize=12;fontStyle=0;container=1;pointerEvents=0;collapsible=0;recursiveResize=0;shape=mxgraph.aws4.group;grIcon=mxgraph.aws4.group_security_group;grStroke=0;strokeColor=#147EBA;fillColor=#E6F2F8;verticalAlign=top;align=left;spacingLeft=30;fontColor=#147EBA;dashed=0;movable=0;resizable=0;rotatable=0;deletable=0;editable=0;locked=1;connectable=0;" vertex="1" parent="1">
          <mxGeometry x="1760" y="270" width="130" height="130" as="geometry" />
        </mxCell>
        <mxCell id="HW1hoY80eRV9O5wP7MRS-205" value="&lt;div&gt;EC2 &lt;br&gt;&lt;/div&gt;&lt;div&gt;instance &lt;/div&gt;" style="points=[[0,0],[0.25,0],[0.5,0],[0.75,0],[1,0],[1,0.25],[1,0.5],[1,0.75],[1,1],[0.75,1],[0.5,1],[0.25,1],[0,1],[0,0.75],[0,0.5],[0,0.25]];outlineConnect=0;gradientColor=none;html=1;whiteSpace=wrap;fontSize=12;fontStyle=0;container=1;pointerEvents=0;collapsible=0;recursiveResize=0;shape=mxgraph.aws4.group;grIcon=mxgraph.aws4.group_ec2_instance_contents;strokeColor=#D86613;fillColor=none;verticalAlign=top;align=left;spacingLeft=30;fontColor=#D86613;dashed=0;movable=0;resizable=0;rotatable=0;deletable=0;editable=0;locked=1;connectable=0;" vertex="1" parent="HW1hoY80eRV9O5wP7MRS-142">
          <mxGeometry x="19.660000000000082" y="41" width="90" height="80" as="geometry" />
        </mxCell>
        <mxCell id="HW1hoY80eRV9O5wP7MRS-206" value="" style="sketch=0;outlineConnect=0;fontColor=#232F3E;gradientColor=none;fillColor=#D45B07;strokeColor=none;dashed=0;verticalLabelPosition=bottom;verticalAlign=top;align=center;html=1;fontSize=12;fontStyle=0;aspect=fixed;pointerEvents=1;shape=mxgraph.aws4.t2_instance;movable=0;resizable=0;rotatable=0;deletable=0;editable=0;locked=1;connectable=0;" vertex="1" parent="HW1hoY80eRV9O5wP7MRS-205">
          <mxGeometry x="50" y="42" width="27" height="27" as="geometry" />
        </mxCell>
        <mxCell id="HW1hoY80eRV9O5wP7MRS-207" value="" style="sketch=0;outlineConnect=0;fontColor=#232F3E;gradientColor=none;fillColor=#D45B07;strokeColor=none;dashed=0;verticalLabelPosition=bottom;verticalAlign=top;align=center;html=1;fontSize=12;fontStyle=0;aspect=fixed;pointerEvents=1;shape=mxgraph.aws4.ami;movable=0;resizable=0;rotatable=0;deletable=0;editable=0;locked=1;connectable=0;" vertex="1" parent="HW1hoY80eRV9O5wP7MRS-205">
          <mxGeometry x="10" y="42" width="27" height="27" as="geometry" />
        </mxCell>
        <mxCell id="HW1hoY80eRV9O5wP7MRS-143" value="&lt;div&gt;Private subnet&lt;/div&gt;&lt;div&gt;&lt;font style=&quot;font-size: 8px;&quot;&gt;10.0.6.0/24&lt;/font&gt;&lt;br&gt;&lt;/div&gt;" style="points=[[0,0],[0.25,0],[0.5,0],[0.75,0],[1,0],[1,0.25],[1,0.5],[1,0.75],[1,1],[0.75,1],[0.5,1],[0.25,1],[0,1],[0,0.75],[0,0.5],[0,0.25]];outlineConnect=0;gradientColor=none;html=1;whiteSpace=wrap;fontSize=12;fontStyle=0;container=1;pointerEvents=0;collapsible=0;recursiveResize=0;shape=mxgraph.aws4.group;grIcon=mxgraph.aws4.group_security_group;grStroke=0;strokeColor=#147EBA;fillColor=#E6F2F8;verticalAlign=top;align=left;spacingLeft=30;fontColor=#147EBA;dashed=0;movable=0;resizable=0;rotatable=0;deletable=0;editable=0;locked=1;connectable=0;" vertex="1" parent="1">
          <mxGeometry x="1910" y="270" width="130" height="130" as="geometry" />
        </mxCell>
        <mxCell id="HW1hoY80eRV9O5wP7MRS-144" value="&lt;div&gt;Public subnet&lt;/div&gt;&lt;div&gt;&lt;font style=&quot;font-size: 8px;&quot;&gt;10.0.1.0/24&lt;/font&gt;&lt;br&gt;&lt;/div&gt;" style="points=[[0,0],[0.25,0],[0.5,0],[0.75,0],[1,0],[1,0.25],[1,0.5],[1,0.75],[1,1],[0.75,1],[0.5,1],[0.25,1],[0,1],[0,0.75],[0,0.5],[0,0.25]];outlineConnect=0;gradientColor=none;html=1;whiteSpace=wrap;fontSize=12;fontStyle=0;container=1;pointerEvents=0;collapsible=0;recursiveResize=0;shape=mxgraph.aws4.group;grIcon=mxgraph.aws4.group_security_group;grStroke=0;strokeColor=#248814;fillColor=#E9F3E6;verticalAlign=top;align=left;spacingLeft=30;fontColor=#248814;dashed=0;movable=0;resizable=0;rotatable=0;deletable=0;editable=0;locked=1;connectable=0;" vertex="1" parent="1">
          <mxGeometry x="1608.5" y="478" width="130" height="130" as="geometry" />
        </mxCell>
        <mxCell id="HW1hoY80eRV9O5wP7MRS-145" value="&lt;div&gt;Private subnet&lt;/div&gt;&lt;div&gt;&lt;font style=&quot;font-size: 8px;&quot;&gt;10.0.3.0/24&lt;/font&gt;&lt;br&gt;&lt;/div&gt;" style="points=[[0,0],[0.25,0],[0.5,0],[0.75,0],[1,0],[1,0.25],[1,0.5],[1,0.75],[1,1],[0.75,1],[0.5,1],[0.25,1],[0,1],[0,0.75],[0,0.5],[0,0.25]];outlineConnect=0;gradientColor=none;html=1;whiteSpace=wrap;fontSize=12;fontStyle=0;container=1;pointerEvents=0;collapsible=0;recursiveResize=0;shape=mxgraph.aws4.group;grIcon=mxgraph.aws4.group_security_group;grStroke=0;strokeColor=#147EBA;fillColor=#E6F2F8;verticalAlign=top;align=left;spacingLeft=30;fontColor=#147EBA;dashed=0;movable=0;resizable=0;rotatable=0;deletable=0;editable=0;locked=1;connectable=0;" vertex="1" parent="1">
          <mxGeometry x="1759.5" y="478" width="130" height="130" as="geometry" />
        </mxCell>
        <mxCell id="HW1hoY80eRV9O5wP7MRS-208" value="&lt;div&gt;EC2 &lt;br&gt;&lt;/div&gt;&lt;div&gt;instance &lt;/div&gt;" style="points=[[0,0],[0.25,0],[0.5,0],[0.75,0],[1,0],[1,0.25],[1,0.5],[1,0.75],[1,1],[0.75,1],[0.5,1],[0.25,1],[0,1],[0,0.75],[0,0.5],[0,0.25]];outlineConnect=0;gradientColor=none;html=1;whiteSpace=wrap;fontSize=12;fontStyle=0;container=1;pointerEvents=0;collapsible=0;recursiveResize=0;shape=mxgraph.aws4.group;grIcon=mxgraph.aws4.group_ec2_instance_contents;strokeColor=#D86613;fillColor=none;verticalAlign=top;align=left;spacingLeft=30;fontColor=#D86613;dashed=0;movable=0;resizable=0;rotatable=0;deletable=0;editable=0;locked=1;connectable=0;" vertex="1" parent="HW1hoY80eRV9O5wP7MRS-145">
          <mxGeometry x="20" y="40.83" width="90" height="80" as="geometry" />
        </mxCell>
        <mxCell id="HW1hoY80eRV9O5wP7MRS-209" value="" style="sketch=0;outlineConnect=0;fontColor=#232F3E;gradientColor=none;fillColor=#D45B07;strokeColor=none;dashed=0;verticalLabelPosition=bottom;verticalAlign=top;align=center;html=1;fontSize=12;fontStyle=0;aspect=fixed;pointerEvents=1;shape=mxgraph.aws4.t2_instance;movable=0;resizable=0;rotatable=0;deletable=0;editable=0;locked=1;connectable=0;" vertex="1" parent="HW1hoY80eRV9O5wP7MRS-208">
          <mxGeometry x="50" y="42" width="27" height="27" as="geometry" />
        </mxCell>
        <mxCell id="HW1hoY80eRV9O5wP7MRS-210" value="" style="sketch=0;outlineConnect=0;fontColor=#232F3E;gradientColor=none;fillColor=#D45B07;strokeColor=none;dashed=0;verticalLabelPosition=bottom;verticalAlign=top;align=center;html=1;fontSize=12;fontStyle=0;aspect=fixed;pointerEvents=1;shape=mxgraph.aws4.ami;movable=0;resizable=0;rotatable=0;deletable=0;editable=0;locked=1;connectable=0;" vertex="1" parent="HW1hoY80eRV9O5wP7MRS-208">
          <mxGeometry x="10" y="42" width="27" height="27" as="geometry" />
        </mxCell>
        <mxCell id="HW1hoY80eRV9O5wP7MRS-146" value="&lt;div&gt;Private subnet&lt;/div&gt;&lt;div&gt;&lt;font style=&quot;font-size: 8px;&quot;&gt;10.0.5.0/24&lt;/font&gt;&lt;br&gt;&lt;/div&gt;" style="points=[[0,0],[0.25,0],[0.5,0],[0.75,0],[1,0],[1,0.25],[1,0.5],[1,0.75],[1,1],[0.75,1],[0.5,1],[0.25,1],[0,1],[0,0.75],[0,0.5],[0,0.25]];outlineConnect=0;gradientColor=none;html=1;whiteSpace=wrap;fontSize=12;fontStyle=0;container=1;pointerEvents=0;collapsible=0;recursiveResize=0;shape=mxgraph.aws4.group;grIcon=mxgraph.aws4.group_security_group;grStroke=0;strokeColor=#147EBA;fillColor=#E6F2F8;verticalAlign=top;align=left;spacingLeft=30;fontColor=#147EBA;dashed=0;movable=0;resizable=0;rotatable=0;deletable=0;editable=0;locked=1;connectable=0;" vertex="1" parent="1">
          <mxGeometry x="1909.5" y="478" width="130" height="130" as="geometry" />
        </mxCell>
        <mxCell id="HW1hoY80eRV9O5wP7MRS-181" value="&lt;div&gt;Public subnet&lt;/div&gt;&lt;div&gt;&lt;font style=&quot;font-size: 8px;&quot;&gt;10.0.2.0/24&lt;/font&gt;&lt;br&gt;&lt;/div&gt;" style="points=[[0,0],[0.25,0],[0.5,0],[0.75,0],[1,0],[1,0.25],[1,0.5],[1,0.75],[1,1],[0.75,1],[0.5,1],[0.25,1],[0,1],[0,0.75],[0,0.5],[0,0.25]];outlineConnect=0;gradientColor=none;html=1;whiteSpace=wrap;fontSize=12;fontStyle=0;container=1;pointerEvents=0;collapsible=0;recursiveResize=0;shape=mxgraph.aws4.group;grIcon=mxgraph.aws4.group_security_group;grStroke=0;strokeColor=#248814;fillColor=#E9F3E6;verticalAlign=top;align=left;spacingLeft=30;fontColor=#248814;dashed=0;movable=0;resizable=0;rotatable=0;deletable=0;editable=0;locked=1;connectable=0;" vertex="1" parent="1">
          <mxGeometry x="1608.5" y="269" width="130" height="130" as="geometry" />
        </mxCell>
        <mxCell id="HW1hoY80eRV9O5wP7MRS-180" value="" style="group;movable=0;resizable=0;rotatable=0;deletable=0;editable=0;locked=1;connectable=0;" vertex="1" connectable="0" parent="1">
          <mxGeometry x="1614" y="310" width="120" height="46.65999999999997" as="geometry" />
        </mxCell>
        <mxCell id="HW1hoY80eRV9O5wP7MRS-175" value="" style="html=1;overflow=block;blockSpacing=1;whiteSpace=wrap;shape=mxgraph.aws4.elastic_ip_address;verticalLabelPosition=bottom;align=center;verticalAlign=top;pointerEvents=1;fontSize=16.8;fontColor=default;spacing=0;strokeColor=#333333;strokeOpacity=100;rounded=1;absoluteArcSize=1;arcSize=12;fillColor=#d86613;strokeWidth=0.8;lucidId=BI06RDH5EkSf;rotation=-180;movable=0;resizable=0;rotatable=0;deletable=0;editable=0;locked=1;connectable=0;" vertex="1" parent="HW1hoY80eRV9O5wP7MRS-180">
          <mxGeometry x="11.704634146341505" y="6.659999999999968" width="36.58536585365854" height="8.333333333333332" as="geometry" />
        </mxCell>
        <mxCell id="HW1hoY80eRV9O5wP7MRS-176" value="&lt;div&gt;&lt;font style=&quot;font-size: 8px;&quot; color=&quot;#000000&quot;&gt;Elastic IP&lt;/font&gt;&lt;/div&gt;&lt;div&gt;&lt;font style=&quot;font-size: 8px;&quot; color=&quot;#000000&quot;&gt;Address&lt;/font&gt;&lt;/div&gt;" style="text;html=1;align=center;verticalAlign=middle;resizable=1;points=[];autosize=1;strokeColor=none;fillColor=none;movable=1;rotatable=1;deletable=1;editable=1;locked=0;connectable=1;" vertex="1" parent="HW1hoY80eRV9O5wP7MRS-180">
          <mxGeometry y="6.659999999999968" width="60" height="40" as="geometry" />
        </mxCell>
        <mxCell id="HW1hoY80eRV9O5wP7MRS-178" value="&lt;font style=&quot;font-size: 8px;&quot; color=&quot;#000000&quot;&gt;NAT gateway&lt;/font&gt;" style="text;html=1;align=center;verticalAlign=middle;resizable=0;points=[];autosize=1;strokeColor=none;fillColor=none;movable=0;rotatable=0;deletable=0;editable=0;locked=1;connectable=0;" vertex="1" parent="HW1hoY80eRV9O5wP7MRS-180">
          <mxGeometry x="50" y="11.829999999999984" width="70" height="30" as="geometry" />
        </mxCell>
        <mxCell id="HW1hoY80eRV9O5wP7MRS-179" value="" style="html=1;overflow=block;blockSpacing=1;whiteSpace=wrap;shape=mxgraph.aws4.nat_gateway;labelPosition=center;verticalLabelPosition=bottom;align=center;verticalAlign=top;pointerEvents=1;fontSize=16.8;fontColor=default;spacing=0;strokeColor=#333333;strokeOpacity=100;rounded=1;absoluteArcSize=1;arcSize=12;fillColor=#693cc5;strokeWidth=0.8;lucidId=BI06dreBXB8t;rotation=-180;movable=0;resizable=0;rotatable=0;deletable=0;editable=0;locked=1;connectable=0;" vertex="1" parent="HW1hoY80eRV9O5wP7MRS-180">
          <mxGeometry x="64.21000000000004" width="36.58536585365854" height="20" as="geometry" />
        </mxCell>
        <mxCell id="HW1hoY80eRV9O5wP7MRS-182" value="" style="group;movable=0;resizable=0;rotatable=0;deletable=0;editable=0;locked=1;connectable=0;" vertex="1" connectable="0" parent="1">
          <mxGeometry x="1613" y="524" width="120" height="46.65999999999997" as="geometry" />
        </mxCell>
        <mxCell id="HW1hoY80eRV9O5wP7MRS-183" value="" style="html=1;overflow=block;blockSpacing=1;whiteSpace=wrap;shape=mxgraph.aws4.elastic_ip_address;verticalLabelPosition=bottom;align=center;verticalAlign=top;pointerEvents=1;fontSize=16.8;fontColor=default;spacing=0;strokeColor=#333333;strokeOpacity=100;rounded=1;absoluteArcSize=1;arcSize=12;fillColor=#d86613;strokeWidth=0.8;lucidId=BI06RDH5EkSf;rotation=-180;movable=0;resizable=0;rotatable=0;deletable=0;editable=0;locked=1;connectable=0;" vertex="1" parent="HW1hoY80eRV9O5wP7MRS-182">
          <mxGeometry x="11.704634146341505" y="6.659999999999968" width="36.58536585365854" height="8.333333333333332" as="geometry" />
        </mxCell>
        <mxCell id="HW1hoY80eRV9O5wP7MRS-184" value="&lt;div&gt;&lt;font style=&quot;font-size: 8px;&quot; color=&quot;#000000&quot;&gt;Elastic IP&lt;/font&gt;&lt;/div&gt;&lt;div&gt;&lt;font style=&quot;font-size: 8px;&quot; color=&quot;#000000&quot;&gt;Address&lt;/font&gt;&lt;/div&gt;" style="text;html=1;align=center;verticalAlign=middle;resizable=0;points=[];autosize=1;strokeColor=none;fillColor=none;movable=0;rotatable=0;deletable=0;editable=0;locked=1;connectable=0;" vertex="1" parent="HW1hoY80eRV9O5wP7MRS-182">
          <mxGeometry y="6.659999999999968" width="60" height="40" as="geometry" />
        </mxCell>
        <mxCell id="HW1hoY80eRV9O5wP7MRS-185" value="&lt;font style=&quot;font-size: 8px;&quot; color=&quot;#000000&quot;&gt;NAT gateway&lt;/font&gt;" style="text;html=1;align=center;verticalAlign=middle;resizable=0;points=[];autosize=1;strokeColor=none;fillColor=none;movable=0;rotatable=0;deletable=0;editable=0;locked=1;connectable=0;" vertex="1" parent="HW1hoY80eRV9O5wP7MRS-182">
          <mxGeometry x="50" y="11.829999999999984" width="70" height="30" as="geometry" />
        </mxCell>
        <mxCell id="HW1hoY80eRV9O5wP7MRS-186" value="" style="html=1;overflow=block;blockSpacing=1;whiteSpace=wrap;shape=mxgraph.aws4.nat_gateway;labelPosition=center;verticalLabelPosition=bottom;align=center;verticalAlign=top;pointerEvents=1;fontSize=16.8;fontColor=default;spacing=0;strokeColor=#333333;strokeOpacity=100;rounded=1;absoluteArcSize=1;arcSize=12;fillColor=#693cc5;strokeWidth=0.8;lucidId=BI06dreBXB8t;rotation=-180;movable=0;resizable=0;rotatable=0;deletable=0;editable=0;locked=1;connectable=0;" vertex="1" parent="HW1hoY80eRV9O5wP7MRS-182">
          <mxGeometry x="64.21000000000004" width="36.58536585365854" height="20" as="geometry" />
        </mxCell>
        <mxCell id="HW1hoY80eRV9O5wP7MRS-190" value="" style="group;movable=0;resizable=0;rotatable=0;deletable=0;editable=0;locked=1;connectable=0;" vertex="1" connectable="0" parent="1">
          <mxGeometry x="1535.25" y="418.75" width="75" height="42.25" as="geometry" />
        </mxCell>
        <mxCell id="HW1hoY80eRV9O5wP7MRS-188" value="" style="html=1;overflow=block;blockSpacing=1;whiteSpace=wrap;shape=mxgraph.aws4.internet_gateway;labelPosition=center;verticalLabelPosition=bottom;align=center;verticalAlign=top;pointerEvents=1;fontSize=16.8;fontColor=default;spacing=0;strokeColor=#333333;strokeOpacity=100;fillOpacity=100;rounded=1;absoluteArcSize=1;arcSize=12;fillColor=#ba23f6;strokeWidth=0.8;lucidId=sCM6~qalqSbA;movable=0;resizable=0;rotatable=0;deletable=0;editable=0;locked=1;connectable=0;" vertex="1" parent="HW1hoY80eRV9O5wP7MRS-190">
          <mxGeometry x="19.75" width="30.5" height="26.5" as="geometry" />
        </mxCell>
        <mxCell id="HW1hoY80eRV9O5wP7MRS-189" value="&lt;font style=&quot;font-size: 8px;&quot;&gt;Internet gateway&lt;/font&gt;" style="text;html=1;align=center;verticalAlign=middle;resizable=0;points=[];autosize=1;strokeColor=none;fillColor=none;movable=0;rotatable=0;deletable=0;editable=0;locked=1;connectable=0;" vertex="1" parent="HW1hoY80eRV9O5wP7MRS-190">
          <mxGeometry x="-5" y="15.25" width="80" height="30" as="geometry" />
        </mxCell>
        <mxCell id="HW1hoY80eRV9O5wP7MRS-193" value="" style="group;movable=0;resizable=0;rotatable=0;deletable=0;editable=0;locked=1;connectable=0;" vertex="1" connectable="0" parent="1">
          <mxGeometry x="1593.5" y="419" width="91.5" height="45.5" as="geometry" />
        </mxCell>
        <mxCell id="HW1hoY80eRV9O5wP7MRS-191" value="" style="html=1;overflow=block;blockSpacing=1;whiteSpace=wrap;shape=mxgraph.aws4.route_table;labelPosition=center;verticalLabelPosition=bottom;align=center;verticalAlign=top;pointerEvents=1;fontSize=13.5;fontColor=default;spacing=0;strokeColor=#333333;strokeOpacity=100;rounded=1;absoluteArcSize=1;arcSize=12;fillColor=#693cc5;strokeWidth=0.8;lucidId=mJJ6LsjzInFs;movable=0;resizable=0;rotatable=0;deletable=0;editable=0;locked=1;connectable=0;" vertex="1" parent="HW1hoY80eRV9O5wP7MRS-193">
          <mxGeometry x="32.025" width="30.5" height="25.666666666666664" as="geometry" />
        </mxCell>
        <mxCell id="HW1hoY80eRV9O5wP7MRS-192" value="&lt;div&gt;&lt;font style=&quot;font-size: 8px;&quot;&gt;Public Route Table&lt;/font&gt;&lt;/div&gt;" style="text;html=1;align=center;verticalAlign=middle;resizable=0;points=[];autosize=1;strokeColor=none;fillColor=none;movable=0;rotatable=0;deletable=0;editable=0;locked=1;connectable=0;" vertex="1" parent="HW1hoY80eRV9O5wP7MRS-193">
          <mxGeometry y="15.5" width="90" height="30" as="geometry" />
        </mxCell>
        <mxCell id="HW1hoY80eRV9O5wP7MRS-211" value="&lt;b&gt;&lt;font style=&quot;font-size: 8px;&quot;&gt;Auto Scaling group&lt;/font&gt;&lt;/b&gt;" style="points=[[0,0],[0.25,0],[0.5,0],[0.75,0],[1,0],[1,0.25],[1,0.5],[1,0.75],[1,1],[0.75,1],[0.5,1],[0.25,1],[0,1],[0,0.75],[0,0.5],[0,0.25]];outlineConnect=0;gradientColor=none;html=1;whiteSpace=wrap;fontSize=12;fontStyle=0;container=1;pointerEvents=0;collapsible=0;recursiveResize=0;shape=mxgraph.aws4.groupCenter;grIcon=mxgraph.aws4.group_auto_scaling_group;grStroke=1;strokeColor=#D86613;fillColor=none;verticalAlign=top;align=center;fontColor=#D86613;dashed=1;spacingTop=25;rotation=-90;strokeWidth=1.5;movable=0;resizable=0;rotatable=0;deletable=0;editable=0;locked=1;connectable=0;" vertex="1" parent="1">
          <mxGeometry x="1646.73" y="367.25" width="354.7" height="145.26" as="geometry" />
        </mxCell>
        <mxCell id="HW1hoY80eRV9O5wP7MRS-214" value="&lt;b&gt;&lt;font style=&quot;font-size: 8px;&quot;&gt;Auto Scaling group&lt;/font&gt;&lt;/b&gt;" style="points=[[0,0],[0.25,0],[0.5,0],[0.75,0],[1,0],[1,0.25],[1,0.5],[1,0.75],[1,1],[0.75,1],[0.5,1],[0.25,1],[0,1],[0,0.75],[0,0.5],[0,0.25]];outlineConnect=0;gradientColor=none;html=1;whiteSpace=wrap;fontSize=12;fontStyle=0;container=1;pointerEvents=0;collapsible=0;recursiveResize=0;shape=mxgraph.aws4.groupCenter;grIcon=mxgraph.aws4.group_auto_scaling_group;grStroke=1;strokeColor=#D86613;fillColor=none;verticalAlign=top;align=center;fontColor=#D86613;dashed=1;spacingTop=25;rotation=-90;strokeWidth=1.5;movable=0;resizable=0;rotatable=0;deletable=0;editable=0;locked=1;connectable=0;" vertex="1" parent="1">
          <mxGeometry x="1799.3" y="366.23" width="354.7" height="146.77" as="geometry" />
        </mxCell>
        <mxCell id="HW1hoY80eRV9O5wP7MRS-223" value="" style="group;movable=1;resizable=1;rotatable=1;deletable=1;editable=1;locked=0;connectable=1;" vertex="1" connectable="0" parent="1">
          <mxGeometry x="1950" y="322.47" width="40" height="47.05999999999998" as="geometry" />
        </mxCell>
        <mxCell id="HW1hoY80eRV9O5wP7MRS-217" value="" style="sketch=0;points=[[0,0,0],[0.25,0,0],[0.5,0,0],[0.75,0,0],[1,0,0],[0,1,0],[0.25,1,0],[0.5,1,0],[0.75,1,0],[1,1,0],[0,0.25,0],[0,0.5,0],[0,0.75,0],[1,0.25,0],[1,0.5,0],[1,0.75,0]];outlineConnect=0;fontColor=#232F3E;gradientColor=#4D72F3;gradientDirection=north;fillColor=#3334B9;strokeColor=#ffffff;dashed=0;verticalLabelPosition=bottom;verticalAlign=top;align=center;html=1;fontSize=12;fontStyle=0;aspect=fixed;shape=mxgraph.aws4.resourceIcon;resIcon=mxgraph.aws4.rds;hachureGap=4;jiggle=2;curveFitting=1;fontFamily=Architects Daughter;fontSource=https%3A%2F%2Ffonts.googleapis.com%2Fcss%3Ffamily%3DArchitects%2BDaughter;movable=0;resizable=0;rotatable=0;deletable=0;editable=0;locked=1;connectable=0;" vertex="1" parent="HW1hoY80eRV9O5wP7MRS-223">
          <mxGeometry x="7.959999999999866" width="25.77" height="25.77" as="geometry" />
        </mxCell>
        <mxCell id="HW1hoY80eRV9O5wP7MRS-220" value="&lt;font style=&quot;font-size: 8px;&quot; face=&quot;Helvetica&quot; color=&quot;#000000&quot;&gt;RDS&lt;/font&gt;" style="text;html=1;align=center;verticalAlign=middle;resizable=0;points=[];autosize=1;strokeColor=none;fillColor=none;fontSize=20;fontFamily=Architects Daughter;movable=0;rotatable=0;deletable=0;editable=0;locked=1;connectable=0;" vertex="1" parent="HW1hoY80eRV9O5wP7MRS-223">
          <mxGeometry y="7.059999999999981" width="40" height="40" as="geometry" />
        </mxCell>
        <mxCell id="HW1hoY80eRV9O5wP7MRS-224" value="" style="group;movable=1;resizable=1;rotatable=1;deletable=1;editable=1;locked=0;connectable=1;" vertex="1" connectable="0" parent="1">
          <mxGeometry x="1951" y="531" width="40" height="47.05999999999998" as="geometry" />
        </mxCell>
        <mxCell id="HW1hoY80eRV9O5wP7MRS-225" value="" style="sketch=0;points=[[0,0,0],[0.25,0,0],[0.5,0,0],[0.75,0,0],[1,0,0],[0,1,0],[0.25,1,0],[0.5,1,0],[0.75,1,0],[1,1,0],[0,0.25,0],[0,0.5,0],[0,0.75,0],[1,0.25,0],[1,0.5,0],[1,0.75,0]];outlineConnect=0;fontColor=#232F3E;gradientColor=#4D72F3;gradientDirection=north;fillColor=#3334B9;strokeColor=#ffffff;dashed=0;verticalLabelPosition=bottom;verticalAlign=top;align=center;html=1;fontSize=12;fontStyle=0;aspect=fixed;shape=mxgraph.aws4.resourceIcon;resIcon=mxgraph.aws4.rds;hachureGap=4;jiggle=2;curveFitting=1;fontFamily=Architects Daughter;fontSource=https%3A%2F%2Ffonts.googleapis.com%2Fcss%3Ffamily%3DArchitects%2BDaughter;movable=0;resizable=0;rotatable=0;deletable=0;editable=0;locked=1;connectable=0;" vertex="1" parent="HW1hoY80eRV9O5wP7MRS-224">
          <mxGeometry x="7.959999999999866" width="25.77" height="25.77" as="geometry" />
        </mxCell>
        <mxCell id="HW1hoY80eRV9O5wP7MRS-226" value="&lt;font style=&quot;font-size: 8px;&quot; face=&quot;Helvetica&quot; color=&quot;#000000&quot;&gt;RDS&lt;/font&gt;" style="text;html=1;align=center;verticalAlign=middle;resizable=0;points=[];autosize=1;strokeColor=none;fillColor=none;fontSize=20;fontFamily=Architects Daughter;movable=0;rotatable=0;deletable=0;editable=0;locked=1;connectable=0;" vertex="1" parent="HW1hoY80eRV9O5wP7MRS-224">
          <mxGeometry y="7.059999999999981" width="40" height="40" as="geometry" />
        </mxCell>
        <mxCell id="HW1hoY80eRV9O5wP7MRS-231" value="" style="group;movable=1;resizable=1;rotatable=1;deletable=1;editable=1;locked=0;connectable=1;" vertex="1" connectable="0" parent="1">
          <mxGeometry x="1662.25" y="81" width="110" height="61" as="geometry" />
        </mxCell>
        <mxCell id="HW1hoY80eRV9O5wP7MRS-229" value="" style="html=1;overflow=block;blockSpacing=1;whiteSpace=wrap;shape=mxgraph.aws4.resourceIcon;resIcon=mxgraph.aws4.identity_and_access_management;labelPosition=center;verticalLabelPosition=bottom;align=center;verticalAlign=top;strokeColor=#ffffff;pointerEvents=1;fontSize=13;spacing=0;strokeOpacity=100;rounded=1;absoluteArcSize=1;arcSize=12;fillColor=#d6242d;strokeWidth=0.8;lucidId=P.I6b~W7Om_E;movable=0;resizable=0;rotatable=0;deletable=0;editable=0;locked=1;connectable=0;" vertex="1" parent="HW1hoY80eRV9O5wP7MRS-231">
          <mxGeometry x="30" width="30" height="29" as="geometry" />
        </mxCell>
        <mxCell id="HW1hoY80eRV9O5wP7MRS-230" value="&lt;div&gt;&lt;font style=&quot;font-size: 8px;&quot;&gt;Identity and Access Management&lt;/font&gt;&lt;/div&gt;&lt;div&gt;&lt;font style=&quot;font-size: 8px;&quot;&gt;&amp;nbsp;(IAM) SeaIce Phase3&lt;/font&gt;&lt;/div&gt;" style="text;html=1;align=center;verticalAlign=middle;resizable=0;points=[];autosize=1;strokeColor=none;fillColor=none;movable=0;rotatable=0;deletable=0;editable=0;locked=1;connectable=0;" vertex="1" parent="HW1hoY80eRV9O5wP7MRS-231">
          <mxGeometry x="-20" y="21" width="130" height="40" as="geometry" />
        </mxCell>
        <mxCell id="HW1hoY80eRV9O5wP7MRS-233" value="" style="group;movable=1;resizable=1;rotatable=1;deletable=1;editable=1;locked=0;connectable=1;" vertex="1" connectable="0" parent="1">
          <mxGeometry x="1471" y="261.5" width="50" height="48.5" as="geometry" />
        </mxCell>
        <mxCell id="HW1hoY80eRV9O5wP7MRS-216" value="" style="sketch=0;points=[[0,0,0],[0.25,0,0],[0.5,0,0],[0.75,0,0],[1,0,0],[0,1,0],[0.25,1,0],[0.5,1,0],[0.75,1,0],[1,1,0],[0,0.25,0],[0,0.5,0],[0,0.75,0],[1,0.25,0],[1,0.5,0],[1,0.75,0]];outlineConnect=0;fontColor=#232F3E;gradientColor=#945DF2;gradientDirection=north;fillColor=#5A30B5;strokeColor=#ffffff;dashed=0;verticalLabelPosition=bottom;verticalAlign=top;align=center;html=1;fontSize=12;fontStyle=0;aspect=fixed;shape=mxgraph.aws4.resourceIcon;resIcon=mxgraph.aws4.route_53;hachureGap=4;jiggle=2;curveFitting=1;fontFamily=Architects Daughter;fontSource=https%3A%2F%2Ffonts.googleapis.com%2Fcss%3Ffamily%3DArchitects%2BDaughter;movable=0;resizable=0;rotatable=0;deletable=0;editable=0;locked=1;connectable=0;" vertex="1" parent="HW1hoY80eRV9O5wP7MRS-233">
          <mxGeometry x="10.5" width="29" height="29" as="geometry" />
        </mxCell>
        <mxCell id="HW1hoY80eRV9O5wP7MRS-232" value="&lt;font style=&quot;font-size: 8px;&quot;&gt;Route 53&lt;/font&gt;" style="text;html=1;align=center;verticalAlign=middle;resizable=1;points=[];autosize=1;strokeColor=none;fillColor=none;movable=1;rotatable=1;deletable=1;editable=1;locked=0;connectable=1;" vertex="1" parent="HW1hoY80eRV9O5wP7MRS-233">
          <mxGeometry y="18.5" width="50" height="30" as="geometry" />
        </mxCell>
        <mxCell id="HW1hoY80eRV9O5wP7MRS-241" value="" style="group;movable=1;resizable=1;rotatable=1;deletable=1;editable=1;locked=0;connectable=1;" vertex="1" connectable="0" parent="1">
          <mxGeometry x="1793.5" y="419" width="91.5" height="45.5" as="geometry" />
        </mxCell>
        <mxCell id="HW1hoY80eRV9O5wP7MRS-244" value="" style="group;movable=0;resizable=0;rotatable=0;deletable=0;editable=0;locked=1;connectable=0;" vertex="1" connectable="0" parent="HW1hoY80eRV9O5wP7MRS-241">
          <mxGeometry width="90" height="45.5" as="geometry" />
        </mxCell>
        <mxCell id="HW1hoY80eRV9O5wP7MRS-242" value="" style="html=1;overflow=block;blockSpacing=1;whiteSpace=wrap;shape=mxgraph.aws4.route_table;labelPosition=center;verticalLabelPosition=bottom;align=center;verticalAlign=top;pointerEvents=1;fontSize=13.5;fontColor=default;spacing=0;strokeColor=#333333;strokeOpacity=100;rounded=1;absoluteArcSize=1;arcSize=12;fillColor=#693cc5;strokeWidth=0.8;lucidId=mJJ6LsjzInFs;movable=0;resizable=0;rotatable=0;deletable=0;editable=0;locked=1;connectable=0;" vertex="1" parent="HW1hoY80eRV9O5wP7MRS-244">
          <mxGeometry x="32.025" width="30.5" height="25.666666666666664" as="geometry" />
        </mxCell>
        <mxCell id="HW1hoY80eRV9O5wP7MRS-243" value="&lt;div&gt;&lt;font style=&quot;font-size: 8px;&quot;&gt;Private Route Table&lt;/font&gt;&lt;/div&gt;" style="text;html=1;align=center;verticalAlign=middle;resizable=0;points=[];autosize=1;strokeColor=none;fillColor=none;movable=0;rotatable=0;deletable=0;editable=0;locked=1;connectable=0;" vertex="1" parent="HW1hoY80eRV9O5wP7MRS-244">
          <mxGeometry y="15.5" width="90" height="30" as="geometry" />
        </mxCell>
        <mxCell id="HW1hoY80eRV9O5wP7MRS-247" value="" style="group;movable=0;resizable=0;rotatable=0;deletable=0;editable=0;locked=1;connectable=0;" vertex="1" connectable="0" parent="1">
          <mxGeometry x="1672.25" y="418.75" width="90" height="55.25" as="geometry" />
        </mxCell>
        <mxCell id="HW1hoY80eRV9O5wP7MRS-245" value="" style="sketch=0;outlineConnect=0;fontColor=#232F3E;gradientColor=none;fillColor=#4D27AA;strokeColor=none;dashed=0;verticalLabelPosition=bottom;verticalAlign=top;align=center;html=1;fontSize=12;fontStyle=0;aspect=fixed;pointerEvents=1;shape=mxgraph.aws4.application_load_balancer;movable=0;resizable=0;rotatable=0;deletable=0;editable=0;locked=1;connectable=0;" vertex="1" parent="HW1hoY80eRV9O5wP7MRS-247">
          <mxGeometry x="27.75" width="24.5" height="24.5" as="geometry" />
        </mxCell>
        <mxCell id="HW1hoY80eRV9O5wP7MRS-246" value="&lt;div&gt;&lt;font style=&quot;font-size: 8px;&quot;&gt;Application Load&lt;/font&gt;&lt;/div&gt;&lt;div&gt;&lt;font style=&quot;font-size: 8px;&quot;&gt;Balancer&lt;br&gt;&lt;/font&gt;&lt;/div&gt;" style="text;html=1;align=center;verticalAlign=middle;resizable=0;points=[];autosize=1;strokeColor=none;fillColor=none;movable=0;rotatable=0;deletable=0;editable=0;locked=1;connectable=0;" vertex="1" parent="HW1hoY80eRV9O5wP7MRS-247">
          <mxGeometry y="15.25" width="80" height="40" as="geometry" />
        </mxCell>
        <mxCell id="HW1hoY80eRV9O5wP7MRS-256" style="edgeStyle=none;rounded=0;orthogonalLoop=1;jettySize=auto;html=1;exitX=0.35;exitY=0;exitDx=0;exitDy=0;exitPerimeter=0;entryX=0;entryY=0.5;entryDx=0;entryDy=0;entryPerimeter=0;movable=1;resizable=1;rotatable=1;deletable=1;editable=1;locked=0;connectable=1;" edge="1" parent="1" source="HW1hoY80eRV9O5wP7MRS-249">
          <mxGeometry relative="1" as="geometry">
            <mxPoint x="1407.5" y="409" as="sourcePoint" />
            <mxPoint x="1480.5" y="277.00000000000006" as="targetPoint" />
            <Array as="points">
              <mxPoint x="1438" y="340" />
              <mxPoint x="1438" y="277" />
            </Array>
          </mxGeometry>
        </mxCell>
        <mxCell id="HW1hoY80eRV9O5wP7MRS-288" style="edgeStyle=none;rounded=0;orthogonalLoop=1;jettySize=auto;html=1;exitX=0.98;exitY=0.51;exitDx=0;exitDy=0;exitPerimeter=0;" edge="1" parent="1" source="HW1hoY80eRV9O5wP7MRS-249">
          <mxGeometry relative="1" as="geometry">
            <mxPoint x="1550" y="430.5" as="targetPoint" />
          </mxGeometry>
        </mxCell>
        <mxCell id="HW1hoY80eRV9O5wP7MRS-258" value="" style="group" vertex="1" connectable="0" parent="1">
          <mxGeometry x="1480" y="80" width="680" height="640" as="geometry" />
        </mxCell>
        <mxCell id="HW1hoY80eRV9O5wP7MRS-131" value="" style="html=1;overflow=block;blockSpacing=1;whiteSpace=wrap;shape=mxgraph.aws4.group;grIcon=mxgraph.aws4.group_aws_cloud_alt;verticalAlign=top;align=left;grIconSize=40;spacingLeft=45;spacingTop=5;container=0;pointerEvents=0;collapsible=0;recursiveResize=0;fontSize=16.7;fontColor=default;fontStyle=1;spacing=0;strokeColor=#232f3e;strokeOpacity=100;fillOpacity=0;fillColor=#000000;strokeWidth=2;lucidId=MXm-eiOVp4B~;movable=1;resizable=1;rotatable=1;deletable=1;editable=1;locked=0;connectable=1;" vertex="1" parent="HW1hoY80eRV9O5wP7MRS-258">
          <mxGeometry width="680" height="640" as="geometry" />
        </mxCell>
        <mxCell id="HW1hoY80eRV9O5wP7MRS-257" value="AWS CLOUD" style="text;html=1;align=center;verticalAlign=middle;resizable=0;points=[];autosize=1;strokeColor=none;fillColor=none;" vertex="1" parent="HW1hoY80eRV9O5wP7MRS-258">
          <mxGeometry x="33" y="2" width="100" height="30" as="geometry" />
        </mxCell>
        <mxCell id="HW1hoY80eRV9O5wP7MRS-263" value="" style="group" vertex="1" connectable="0" parent="HW1hoY80eRV9O5wP7MRS-258">
          <mxGeometry x="549" y="71" width="60" height="47" as="geometry" />
        </mxCell>
        <mxCell id="HW1hoY80eRV9O5wP7MRS-260" value="" style="html=1;overflow=block;blockSpacing=1;whiteSpace=wrap;shape=image;fontSize=13;spacing=0;strokeColor=none;strokeOpacity=100;strokeWidth=0;image=https://images.lucid.app/images/dd72965e-883b-4c07-9a4d-5b1b71ade2a2/content;imageAspect=0;lucidId=V7J68DOzTseM;" vertex="1" parent="HW1hoY80eRV9O5wP7MRS-263">
          <mxGeometry x="17" width="30" height="27" as="geometry" />
        </mxCell>
        <mxCell id="HW1hoY80eRV9O5wP7MRS-261" value="&lt;font style=&quot;font-size: 8px;&quot;&gt;Amazon S3&lt;/font&gt;" style="text;html=1;align=center;verticalAlign=middle;resizable=0;points=[];autosize=1;strokeColor=none;fillColor=none;" vertex="1" parent="HW1hoY80eRV9O5wP7MRS-263">
          <mxGeometry y="17" width="60" height="30" as="geometry" />
        </mxCell>
        <mxCell id="HW1hoY80eRV9O5wP7MRS-357" value="" style="group" vertex="1" connectable="0" parent="HW1hoY80eRV9O5wP7MRS-258">
          <mxGeometry x="303" y="1" width="100" height="49" as="geometry" />
        </mxCell>
        <mxCell id="HW1hoY80eRV9O5wP7MRS-300" value="" style="shape=image;verticalLabelPosition=bottom;labelBackgroundColor=default;verticalAlign=top;aspect=fixed;imageAspect=0;image=data:image/png,iVBORw0KGgoAAAANSUhEUgAAAFAAAABQCAYAAACOEfKtAAAIgElEQVR4Xu2bb2iVVRzHz2zuv9v8s1UvDAKFEhNUDJoYtBeRvigtSEFogaAvohmk0YsFQnsRzCBHvZhgZGBoUJovFHoxoXBBZYKKgQpBexFNnfunu3PqOp+z/W7nPnuee5+789ztoufAJbv3nOd5zuf5/v6c3zkrGdh5bOJ+37DyLX8Ci47vUCV9a/ZP3O+9lf9oP0I90dfuAbrowAN0oafHeoAeoCMBx+FegR6gIwHH4V6BHqAjAcfhXoEeoCMBx+FegQ8rwPlrl6rKbatVxeZV6m7PXyp14qIaO3VZTYzdc5xyssOLSoGlyxs0sOcMuMeWLpw20weDKTV2+vIkzO6ryZKY4dXmHOC8xhpVsXGFqmxZp+avfDI9jXtXr6vRY+fVXQ2qVH9fuXW1Klv/dPr3B30javT4BZXSfcYv/TPD6bsPmxOAJeWlqmLLKqO28ubl06CMfv2bAmCwAbtSj6t8a51CrdIEdur4RTXbZblZBVix8dlJaJtWKCDS8GkplJSnWQIQkAAFrLTxc71q9Oh5fb0LCpMvdJsVgMBadGKHIjBIw4cBDXjBwEB/IFe88oz57/jvvZN9tf/DdIMNFfNiULX9Ym40HSi4ImcFIL6L0jeKGGn/MRREEJqACMK6e3YyIofBlGvU7HnJmPhg6/dajX8UVISzCpDJ9285lJ5QNmip038qlRo3qsIs8XPlOtjMq6tIj4+CWdf5uo7kax5ugKQpi7vfyQACtDHz0aaq1QoEYKAi1ETDj5abz/8wcQH9mw8Z0LRHAqCYNVFzpONMGpptb2EA7d+BWbWzyaQ3Ix3d5vPIAQyadT4A6Vuzt9l8PMAQV59LgR6gjsxegTGSBPF3Nqyw74KX8gqcIuIBxlBZti4eoAcYSWDOViLeB+ahSm/CecAK6+oBeoBz6wOpAy4+vSsjafY+MA9VUnlpOPe+2bu42fyFGekB5gGQut/jvftMiapvebsZSRm+8dKHps53Y/2B0KvFWYnUdryqqlqeVwO7vjXVbVp915umjjjQckQXXnVdsYAtsTSGQme2PQgUiBKvr/00XWZvvNpm6oF9Kz8JLdXHAbjk7G5TfUbZsjtHnZEdPvs7myEvNKn9ZWeAAKjtfEOVaT93fe3+yAcTVdhldvnudlePGv7o1DSd5AJIPbD+8HYDn5dAA07jtTbz775l7aHPg2rZRxnae9J5f9kZoG0yUSDog5nx4JgUpkVDkUt6dpt/92/smra/mw2g2ajSgQml2eYrUKOqPBLQTBU75J75WnsiAPFnS86+p0oqSo3ZhO7paqU2aJ9HQ6myu7bg402qeleTMf9ber/E3iSPAojq67/abgKRHZjMy9SKBKJdYBUoQMe8MfnbnT+pYb3B5doSAWgrjH0J9ifCfIzsVdgPD4yFui6IkoA41Ppd2vGHAaRfrd4nkf42dIn23Nt+SQJpQdvLqrr1ReOD2fJMwg8mBpCHJNfDRKJMGaU2nNtj/NRNzGdqEwiIdV1b06cUUDAHiuY1LjBqQmUc8UBxsrdMn0EdeW3FZvOpAMfkufetbYedfZ+8lEQBYhqYCA8ZlUKICgDQv6krI3KjuOp3N2Qc2wiaGKZ/5/CvxgRtBeEGcAeo+Mb6zzKiuu0vSXXwmUm1RAHyUEQ3/BANiMFTVExm4dGWtP9CDcHTBnJKKzhJVElwCDZyPtxD1IsT14FaMfkkj3wkDjAORNvv4Y8GWr6Z0QkrgNXg17T6aGGBo5DwuGdBAHJhCQCY2XDbKWN2dgv6PZR152BPrJUDwYIzhHKOkHuQX8pKRO4j8HhJZAdJKq8gPjBoWgKR75nc0Acnp02CPvguObKBb8SkmfT93oH0JVEbAaREBxz7HCGBiITYDiYEq3odlAg6XKd/85cFO2RUMAXKzCUv4/9N5NRKkegrfYDHUY3gIcooR28OV+rjHhzADOacQAMeEFFmVF5atEHEfjCJuEzkgf6Dbjm2a9Sol25hR9WYOEFEFCfXAzrXuacDQZgpMq624zWT9tiNIEYwSyLnC4OemAJ58wDCl2E24n94cCbA91Xa2XMMQxbzqOjOwV9CVy5xFQLsqp0vGJ/LdYHLuhrQJOio24aI+XNkmBeK2Ye9xLj3TiSIkLbU6WKCfUqUSfDgAs9OZZgw5/dIPaTJYUuBn2sCvCheWPCIMOvsob0/pKEAy4Y4MTiacV+ej8hNTjnT5qRAO3HmbWJmABVTtRf5wQekT3XrhrRy5HcTPP4eMNcKml1Zk1b5U/UZJ/jpg5Jvd/4cGihsiNwDxY11XzGrHDmfTRAKZglxgToBJCHmIey1LWZE4DDfR5Sp7Iczhyx13zL9seFnm4BAGDtzTS/xruRMT1A7yzzGmVXK1NlpqYrzEqJKX7lAOgGkoozp/rt0X4ZapGQUrJTkehj5Xf6coUofIjcnVLW6ORpsgshUmhP3WvSjgEBAo/oSNNdcxddc9ykowGwnr3I9GL/nKqjGuYYBOLVOLjqAOU3YseaWFMD0IfdiM+FsQcT4m+bPZ5wm2OtclDzw9pGcvi6bIqXUVVRBhAcOS2PCanVxzY1+JnLqAGWnRlFr6rjXJa1iyYiqpc15GmM/PGZSuqzBOPzgUi3uJOlnF11R3mRhtcbsqdBctyqxGhJpcsKiSKTzgROnryz/7M0nxsmmFC+HanaxNKcoXIhJSGAKK7uzj8zGFWlTsbSiAyjVm6Cpyn7vREonvVOnG4oBYtEBlJwNUzXl/qlVgxzhCJr2XEMsOoD23i0pBxFdiqizUd/L94UUHUCJxFR47D/GjirG5jvhpPsXJUCZJBUbqi8T2ozn8s/6s0EvaoBJq6UQ1/MAHal6gB6gIwHH4V6BHqAjAcfhXoEeoCMBx+FegR6gIwHH4V6BHqAjAcfhRoETujle55Ee/h/IbLWJr60f2QAAAABJRU5ErkJggg==;" vertex="1" parent="HW1hoY80eRV9O5wP7MRS-357">
          <mxGeometry x="38" width="30" height="30" as="geometry" />
        </mxCell>
        <mxCell id="HW1hoY80eRV9O5wP7MRS-301" value="&lt;font style=&quot;font-size: 8px;&quot;&gt;AWS Trusted Advisor&lt;/font&gt;" style="text;html=1;align=center;verticalAlign=middle;resizable=0;points=[];autosize=1;strokeColor=none;fillColor=none;" vertex="1" parent="HW1hoY80eRV9O5wP7MRS-357">
          <mxGeometry y="19" width="100" height="30" as="geometry" />
        </mxCell>
        <mxCell id="HW1hoY80eRV9O5wP7MRS-362" value="" style="group" vertex="1" connectable="0" parent="HW1hoY80eRV9O5wP7MRS-258">
          <mxGeometry x="570" y="340" width="70" height="45" as="geometry" />
        </mxCell>
        <mxCell id="HW1hoY80eRV9O5wP7MRS-367" value="" style="group" vertex="1" connectable="0" parent="HW1hoY80eRV9O5wP7MRS-362">
          <mxGeometry x="-6" y="-2" width="70" height="47" as="geometry" />
        </mxCell>
        <mxCell id="HW1hoY80eRV9O5wP7MRS-361" value="&lt;font style=&quot;font-size: 8px;&quot;&gt;VPN Gateway&lt;/font&gt;" style="text;html=1;align=center;verticalAlign=middle;resizable=0;points=[];autosize=1;strokeColor=none;fillColor=none;" vertex="1" parent="HW1hoY80eRV9O5wP7MRS-367">
          <mxGeometry y="17" width="70" height="30" as="geometry" />
        </mxCell>
        <mxCell id="HW1hoY80eRV9O5wP7MRS-366" value="" style="shape=image;verticalLabelPosition=bottom;labelBackgroundColor=default;verticalAlign=top;aspect=fixed;imageAspect=0;image=data:image/png,iVBORw0KGgoAAAANSUhEUgAAADAAAAAwCAYAAABXAvmHAAAFoUlEQVRoQ+2aW6hVVRSGh2D2IHbxQegiKV0pSVI6USRkBQrRBQXpdgLLUlCK8qGC6qGC6kGDMrCyfDhdDyRJBEeIEBQjRaMoyEwMrAQf7AI+JEKNj9lYe66155qXs/fZIDhgIeyz1pzjH5d/jDGnk/5VkVNYJp0G8L/3/j4qcuBrkX+Oi5zQ5+ihjlvPniEyTZ/JZ4jMmicyY3b/XN6TB1By/06Rn1XxY7/mKwUggFw8JDJb/+1FxgUAxXeOiBzaV7fyJdeJTJkqMnNOt0p8g3cOKljfO9MvFFkwLMK345EiAMf/EPnqY5Fvx9xWZ6qyc24WuVKfkrCwcPtuW8dzgAbIeZeXwcgGcGS/yNaXRQAxeYrIvNtFhpY4EL3ID1+K7FBvsi5y00Mi83XtXMkCwCZfbBQ5eULkigW6yYMiU8/N3SL9Huvu+8wBQfDqLaucoVKSBLDrIw0bfRBcPLQ0teT4/05Ofb7O5QqhtOyFNIgoAGIdyxMmix8tT7TD37vcKAkz2GzL8yJ/KS2T2Hc+HTdIKwA2ZyHcyyK5LIEVt79bp1WYhny5SkMjR0jyD550eYHH8XybBAHw4cgTboGSsPHDjRyZfoGu8WcHDJx/x1PpsEBZSGP0WWfA29a63AtJEABx+OMO9xEf5wiWx2OEy0JlEt/aKDP2ugMyd7HIrZqgOYIO6IIxVrwZBt4FgCIz8rh7mY9y2AYrbVrpPNZmLcJi8xpn0eFX8+vG1pdcpb/+bpEb9GlKFwCsiDXbPghZzkDDHPe+0m5bC7GSsEwZtAaAxB19Ju6ykHrGVqnwwJJYtCQ02c+8EEroGoDt74js1YJSYn02MMumvjMD0TYsezEnC9w79h1N4Iq36t/VAGx6xPHv8g3KIEp9uTLRANBj43KXY03dKgAwBEmG4rxUIoMAQEElVJtergDs/sT1IqkwABhJvmdLByIMg+dw8Vn6tAktAkkJ1frd66xr0i2KhRG1ZMlznR0qABb/tAypikmis2A/Ze2n8dUw0tsa4s08qABY8SK5QgOJv7wBgPNz6kRMNdZCUgB4Z91drj49NhrwgCmVk8D27sPKCLGQyfEQSuUC2HCf61TXvN9pECsPGAPlKJUCwCa7NUdoIXD5tdrItbFaCYCQjhUAuj827BUArcKHupY/9+L24fVhEH0DYNWuJAdCYK0Bw+I0bcy9/MaYyLjYlBIAoXcrDxjPxlpX2zwWQtZWMBYuUkYzQG3DSS4AihjFDNJYtTmQxFaMsBo9TYo5oNGQB2wjuB42O/KTq6Bt9JwLwJo66gfdrEnlAevnm4UiBCSVxP4hAN/HhvRcAFZomw1jBYDke+N+py4uis2xKQCsYaGU6jxzARjJUIX907xaM2fFLFWNcwDghbHXnPXJhTbJAWBVGDZb/V59MqsBsE1TYTRoABY+IW/WAPijYewkIgcAiXvsN2WNc+KtecoD/gFDM3zwatdIyUBDY9fMdj8EBtkLWZPZRsNdAPxK2lYTBtWN5hwEBI9VbHYlae7RIb158kxxosL2S6xq++v5howxWevJnLmOZozCUXI82A9g1toAjpOOtv2jZ6MWKlRUknpQIMx47PeAGi/WskcB0BZzyMW4SBgBotf+P+YdwmabnuARooQvrJMarpLH69AYFxu02lhkqS5aeouSE1Lsw6GazcwYK6V8kEZDm/mWsd7mRj0x7nWcZC3WZvjhggOPE/MYKdfTSQ/4gKgRXHawES6eu8hdNeVu1mQZKj93bna9BNvQDZfkWhEAFGhe9PEb+cFF36V6IZE6VoGieX75xlkfGe8FX3YIhcKKgzDOhuxy23/H7gbsN/+OwH+P6nq1erGXu+JiD4TAMNxw//u7Di8ke5sQ3+dfJnKRHmShfM4lXooA+gKgzUNYnv9eMBGsZXtOGICU5fr191MewH8m8FGeiQzbigAAAABJRU5ErkJggg==;" vertex="1" parent="HW1hoY80eRV9O5wP7MRS-367">
          <mxGeometry x="22" width="28" height="28" as="geometry" />
        </mxCell>
        <mxCell id="HW1hoY80eRV9O5wP7MRS-369" value="" style="group" vertex="1" connectable="0" parent="HW1hoY80eRV9O5wP7MRS-258">
          <mxGeometry x="400" y="-8" width="130" height="90" as="geometry" />
        </mxCell>
        <mxCell id="HW1hoY80eRV9O5wP7MRS-368" value="&lt;font style=&quot;font-size: 8px;&quot;&gt;&lt;br&gt;&lt;br&gt;&lt;/font&gt;&lt;p style=&quot;margin-top: 0pt; margin-bottom: 0pt; text-align: center; unicode-bidi: embed; vertical-align: baseline;&quot;&gt;&lt;font style=&quot;font-size: 8px;&quot;&gt;AWS Database &lt;br&gt;&lt;/font&gt;&lt;/p&gt;&lt;p style=&quot;margin-top: 0pt; margin-bottom: 0pt; text-align: center; unicode-bidi: embed; vertical-align: baseline;&quot;&gt;&lt;font style=&quot;font-size: 8px;&quot;&gt;Migration Service (AWS DMS)&lt;/font&gt;&lt;/p&gt;&lt;font size=&quot;3&quot;&gt;&lt;br&gt;&lt;/font&gt;" style="text;html=1;align=center;verticalAlign=middle;resizable=0;points=[];autosize=1;strokeColor=none;fillColor=none;" vertex="1" parent="HW1hoY80eRV9O5wP7MRS-369">
          <mxGeometry width="130" height="90" as="geometry" />
        </mxCell>
        <mxCell id="HW1hoY80eRV9O5wP7MRS-321" value="" style="shape=image;verticalLabelPosition=bottom;labelBackgroundColor=default;verticalAlign=top;aspect=fixed;imageAspect=0;image=data:image/png,iVBORw0KGgoAAAANSUhEUgAAAFAAAABQCAYAAACOEfKtAAAF00lEQVR4Xu2bS2wbVRSGj53ETuLYzqutghtRRSDaUvWBUFjwEOIhoYKEYFGpC7YsaJHKYwFsUDeIfXftBsqOBYgFZcOKx4IKRBDQFBKs9JHSyi6JH3k4qW3uf8sN41dmxndmYt2cI1mJkjnjud/8c+85554JzZ66Ul3P3iE29wT2fjJBoaknp6ul+TX33uxBk38eZIA6OmCAOvSELwNkgJoENN1ZgQxQk4CmOyuQAWoS0HRnBTJATQKa7qxABqhJQNO9IxQ4cLif+vf1Uc9oN0VTEYqkeuSwuhNd8u8odJSu/1/sKFxconKhTMWpZfnZStsygIlHBmj0pSEaeiZBXQKUjuV/KNKSAJn5fIFW0yWdU7n2DRxg70SU9pxOEQAqw6ABAcpSdcm1zHoNDPhFdtxVZlc8LJUZn4zRwOEYhaOhjXPlvinQlQ9uBAYyUICA8OCn90nF4bH8+2yGFr7O0XpGr5gLmCNHkzT68jD17OimSqlKMyfmCDD9tkABHvjifqmc7GcLNPf+dTlQLw035t737hEgh6icL9PUU5flTz8tMIBQxpHv98sB/fTw736OiVBmxxQx89qcUHje1+8KDCAGhIEB4M+PXvJcfVZKSunpd65JtftpgQPEYLBg/PXmVe25rx4MVL7n9G65ssOMBYjBQYkZoY5/LixqxXKY9xBHjhwdpOHnB2tWZCMBLk+v0PL0qpzolWExKQhVFn9ZlmHMZrFcTMAKR0KEFR3gEHhbDY8sAvLkE3EzFYjH9/Irabkay0D62UQDBLdzFrKR3LcFOd8hPJr4cFzeICMVqABaIUFNfeIDqPgdCmpl5UJFKHhFglqbXxeP/1LDgrTtALpVnN3xDNCOkM3/GSADbCSgAulmc6AmrwZ3oxWIFfPSsVmvmdWcz2iAiPmQyvmV5KO0tV9UfLCiGxnGQCoIQ2bfuOp5zQ4hENSHANv4VA4DvP3lIi2Kakn+YrHtvBhKA7ChpxMy+7CakQqE+lBiGnt1Z03eqqrSqiJdn9KpKrQCNHCoX4KzbgdgWrj5cVY+vigoGAlQrcKonIyI5D/5WLxBOW5WGFSzkcZBxbgxgGj0ItIqjEGYgxQO8xgMCgtZ9jrwN2wcVdaqGwWHlfRq00d/WwJ0ozq7YxmgHSFO5dKaiDZ3N1qBnIm0qR2VCyMT+fW5P2Q9zw9DWHPwqwfk/rCRYQygIfRIv3vN841vxH7jb49trOTGAlTKQ1B9+0Lu7n5IG01CUJkMqMVn+IXBhq0BIwEiDsyKJqDxt8bkY6YMjzbK83abSio+jO6ONADDtDB/5hYlJkXjkul7IqiaJB+Pi5QrKX9aYbqZG6FcKDj3XVHuN8OMXoVbZSKY/GOONpXKclsU/YKtFqJtCdCN6uyOZYB2hDgT4UzEtUZQo0PXFEKX316cce3vxsHIRxir7kM/HpBFVAAESD8MvTLYE8Gq7uf3qGsPrL0NX5h6fZf8oOh541yGbn2U8axPEDdm5/ERSp3cJavUKK6iwdJvCxQgBoMGcwxUpXTYFymIanIery64bMdFft2/r5diIhMZFLGkKu/71ULc7GYEDhAXgc0f9DKr6rM1tbvzH8T6jMTadBSOhjd23qyDQlP5zfNZz3PszVS8JQDVBanuevT8WV97cPrYqfdD0Fcoews1u/2dfq/1uC0FWH/BKhtRf8d7IMqwa6d27CqlSlvFh3YA2fl0FEC7i+3E/wcGEOEFKiTIX/3unEddENMDVmK/wqXAwxgn3VlqQ1xtvjdTHM6DRxuvhanqS/1xRgbSTgBCoRg8FIpiaDNTsSTqfvg0MwbIABt1wQrUXAIZoCZAFeMh02i1Mno1B6p3i1v1zmgOpcY9sDDGyUV7BdDJd3l1TEcBRAmqb6KX6t9Wtw4W8SR25DbbE/EKjpPzdBRAJxfcaccwQM07wgAZoCYBTXdWIAPUJKDpzgpkgJoENN1ZgQxQk4CmOyuQAWoS0HSXCqwK0zzPtnb/Fyf32lyQ7zckAAAAAElFTkSuQmCC;" vertex="1" parent="HW1hoY80eRV9O5wP7MRS-369">
          <mxGeometry x="50" y="8" width="30" height="30" as="geometry" />
        </mxCell>
        <mxCell id="HW1hoY80eRV9O5wP7MRS-291" value="" style="group" vertex="1" connectable="0" parent="1">
          <mxGeometry x="1415" y="405" width="60" height="73" as="geometry" />
        </mxCell>
        <mxCell id="HW1hoY80eRV9O5wP7MRS-249" value="" style="points=[[0.35,0,0],[0.98,0.51,0],[1,0.71,0],[0.67,1,0],[0,0.795,0],[0,0.65,0]];verticalLabelPosition=bottom;sketch=0;html=1;verticalAlign=top;aspect=fixed;align=center;pointerEvents=1;shape=mxgraph.cisco19.user;fillColor=#005073;strokeColor=none;movable=1;resizable=1;rotatable=1;deletable=1;editable=1;locked=0;connectable=1;" vertex="1" parent="HW1hoY80eRV9O5wP7MRS-291">
          <mxGeometry x="5" width="50" height="50" as="geometry" />
        </mxCell>
        <mxCell id="HW1hoY80eRV9O5wP7MRS-290" value="Users" style="text;html=1;align=center;verticalAlign=middle;resizable=0;points=[];autosize=1;strokeColor=none;fillColor=none;" vertex="1" parent="HW1hoY80eRV9O5wP7MRS-291">
          <mxGeometry y="43" width="60" height="30" as="geometry" />
        </mxCell>
        <mxCell id="HW1hoY80eRV9O5wP7MRS-296" style="edgeStyle=none;rounded=0;orthogonalLoop=1;jettySize=auto;html=1;" edge="1" parent="1" source="HW1hoY80eRV9O5wP7MRS-295">
          <mxGeometry relative="1" as="geometry">
            <mxPoint x="2110" y="430" as="targetPoint" />
          </mxGeometry>
        </mxCell>
        <mxCell id="HW1hoY80eRV9O5wP7MRS-298" value="" style="group" vertex="1" connectable="0" parent="1">
          <mxGeometry x="2170" y="374.5" width="121.19999999999982" height="156" as="geometry" />
        </mxCell>
        <mxCell id="HW1hoY80eRV9O5wP7MRS-295" value="" style="image;points=[];aspect=fixed;html=1;align=center;shadow=0;dashed=0;image=img/lib/allied_telesis/buildings/Building_Cluster.svg;" vertex="1" parent="HW1hoY80eRV9O5wP7MRS-298">
          <mxGeometry width="121.2" height="111" as="geometry" />
        </mxCell>
        <mxCell id="HW1hoY80eRV9O5wP7MRS-297" value="&lt;div&gt;Headquarters&lt;/div&gt;&lt;div&gt;VPN Gateway&lt;br&gt;&lt;/div&gt;" style="text;html=1;align=center;verticalAlign=middle;resizable=0;points=[];autosize=1;strokeColor=none;fillColor=none;" vertex="1" parent="HW1hoY80eRV9O5wP7MRS-298">
          <mxGeometry x="10.599999999999909" y="115.5" width="100" height="40" as="geometry" />
        </mxCell>
        <mxCell id="HW1hoY80eRV9O5wP7MRS-345" value="" style="group" vertex="1" connectable="0" parent="1">
          <mxGeometry x="2306" y="266" width="310.38" height="490" as="geometry" />
        </mxCell>
        <mxCell id="HW1hoY80eRV9O5wP7MRS-320" value="RECOMMENDATIONS" style="fillColor=none;strokeColor=#5A6C86;dashed=1;verticalAlign=top;fontStyle=0;fontColor=#5A6C86;whiteSpace=wrap;html=1;" vertex="1" parent="HW1hoY80eRV9O5wP7MRS-345">
          <mxGeometry width="304" height="440" as="geometry" />
        </mxCell>
        <mxCell id="HW1hoY80eRV9O5wP7MRS-339" value="&lt;div&gt;&lt;font color=&quot;#ff0000&quot;&gt;Security, Identity, &amp;amp;&lt;/font&gt;&lt;/div&gt;&lt;div&gt;&lt;font color=&quot;#ff0000&quot;&gt;Compliance&lt;/font&gt;&lt;br&gt;&lt;/div&gt;" style="fillColor=none;strokeColor=#ff0000;dashed=1;verticalAlign=top;fontStyle=0;fontColor=#5A6C86;whiteSpace=wrap;html=1;" vertex="1" parent="HW1hoY80eRV9O5wP7MRS-345">
          <mxGeometry x="20" y="30" width="83" height="400" as="geometry" />
        </mxCell>
        <mxCell id="HW1hoY80eRV9O5wP7MRS-341" value="&lt;div&gt;&lt;font color=&quot;#7f00ff&quot;&gt;Network &amp;amp;&lt;/font&gt;&lt;/div&gt;&lt;div&gt;&lt;font color=&quot;#7f00ff&quot;&gt;Content Delivery&lt;br&gt;&lt;/font&gt;&lt;/div&gt;" style="fillColor=none;strokeColor=#7F00FF;dashed=1;verticalAlign=top;fontStyle=0;fontColor=#5A6C86;whiteSpace=wrap;html=1;" vertex="1" parent="HW1hoY80eRV9O5wP7MRS-345">
          <mxGeometry x="206" y="30" width="83" height="400" as="geometry" />
        </mxCell>
        <mxCell id="HW1hoY80eRV9O5wP7MRS-340" value="&lt;div&gt;&lt;font color=&quot;#f80792&quot;&gt;Management&lt;/font&gt;&lt;/div&gt;&lt;div&gt;&lt;font color=&quot;#f80792&quot;&gt;Governance&lt;br&gt;&lt;/font&gt;&lt;/div&gt;" style="fillColor=none;strokeColor=#FF0080;dashed=1;verticalAlign=top;fontStyle=0;fontColor=#5A6C86;whiteSpace=wrap;html=1;" vertex="1" parent="HW1hoY80eRV9O5wP7MRS-345">
          <mxGeometry x="112" y="30" width="83" height="400" as="geometry" />
        </mxCell>
        <mxCell id="HW1hoY80eRV9O5wP7MRS-284" value="" style="group" vertex="1" connectable="0" parent="HW1hoY80eRV9O5wP7MRS-345">
          <mxGeometry x="108" y="89.75" width="90" height="50" as="geometry" />
        </mxCell>
        <mxCell id="HW1hoY80eRV9O5wP7MRS-281" value="" style="shape=image;verticalLabelPosition=bottom;labelBackgroundColor=default;verticalAlign=top;aspect=fixed;imageAspect=0;image=data:image/png,iVBORw0KGgoAAAANSUhEUgAAAFAAAABQCAYAAACOEfKtAAAIk0lEQVR4Xu2bT2hURxzHJzGarUlMoiZtDykI9VBRoUp7UBSaQ8EcWm2hCkJTEMyhVQvV0kMKQnMoaKGV9hChUAsWI7RaD7H0kEPBFAq20IotKAh6KF2j+atuNHE7n8FfeFneZt+beW+zITOwGHkzb2e+8/19f39mtmpkf19+OjuufIuPwMpz+1RVdtPx/PSt4fij/Qj1TLbHA+jCAw+gC3p6rAfQA+iIgONwz0APoCMCjsM9Az2Ajgg4DvcM9AA6IuA43DPQA+iIgONwz8CFCuDSzW1q2dY1atmWNaqqtmbWMqgMTV78W+X0p9JbWRlY3ZhR9d2vqszOjYq/S7XH2QkN4lV1/+Svaura7VLd5+V52QDM7HhBrTj2uqpurTcLfXTlX/Vw4Jp6OHhDTep/l7Q1qyXPNZlnS9c/qzK7XzT/0vKTU2q8u1/dP/XbvIA015emDiDm2XhytwJAGmCNHvxewa5SDVCXd76k6g5uN11z5/5UYx9eUI9Hc6WGlu156gA2nnhDPbVnkwFs7MiPVrpW275WNZ5407AXU77b0VsxIKYKYIPWO9gDY1i0i44BXlPvbuN4YOJI19mysWxeTHh558ta814z+jW855R6eOmG84JxPKsG3jV6CYAAOd8tFQaiey2XDxuTGztyIVHxr1nbYkDM56bU0NbPZ2kp38fzJDYr6sakAmBm10Ztbm8ZT3un/auoc4ncr65ri2r4pMMABbuX6//XH2mfFU8+unxLjff8nDqYqQAIQwhBkmafIBxkOM5JQiPkYkpvGkG6NEIf5pFWSxxAJr/qYpcxrdubjxsNTKMJC3k3mQsgESJJw3kJK8c/7lf3egfTmEbyp3LiPNL2lLBw5fl9avqmBq9IbCibCXJ3dvQqzDrpljgD0SbYgf7cO/FL0vON/T4JpR6c+V0H8D/EHl9qQOIANp3aa7KOkc7TVkFzqQnHfU7I03L5A2Pmtzd/Fnd4yf6JA7j60iETStzd9XXqHrDk6p50aL3WbYoXAJj0HaDEAGSn6w5uM2kb+lRJAIpVgCeOhlIZJp2Eg0sEQNE9YYTEZ0lMMCrL5uqHM1nR0zErvCGtRBNdHYsTgJhF0zd7TX5Kw2k86PvDKedNArBi78AyajvWqfrDrxiZkTnj8GybE4BcLgQ8dGVk/1nn3YyziGD9kHEwKkqJTL6DcKtBsxJQXYJtawAl3mPSQ+1fxpp8HKCCffHuteazLrSiLRXs3Pm/Ijkw3oc+0myjBisASZ1WX3rfLKIcVRFYjs5KhZoFo10UFKRV6bkEn6PDZCDk43M1MhZiRcDPrv809t5aAShpFB6NZD7NRjrGh8YiJ44NmHOSMHPFrDO7Nqi6A9vN5kY9CpDc3SZysAJQtC/tbEOq2YBH2AGjpJwP22r0Z0lbk5q6PmSKCFKwxUKoYFPJpgE6n2JNWEi+zHfEaVYAEtmbomaK2Uawmj3a1WfiNwSfUz0sIKzBuPsaBMDib2JSTB82zlUZQiIghY1FWQH49K2jZjFoRhzPF3VnYU7zmU7THYlgYcRyMFLCDzQOfcuP5Uw5C0ZKGSsY4wEi4wD0LgWFEE2UdM+mfmkFoKRG2bU9qRzuiCZJAUAYAqAAN6IZGbZxgAtYABkEjM1gUziox2oKG+NIQcsGIPU+Jkm1uZSXi8o66SeMMeGRLtnjaVcPHjKSEVWjJDOCicyxurXBvKNYiinhjE0JzoqBIu5paKCwRTRLvgvm4SWjNFMrZJO1WZMd4ezEm4cFzeJEbJyiFYDyhcVMIsoiw/og9i1XPprRV6V1C7mgxa2kAJ45fNLvyD7fo289NBszDYv3JKqwIYQVgIg2p27sdJJmLIvG9Ia2fqFjOrfDKYkWxBG16s1h7kHtlu+wPYKwAhBGiM7gIdm5JCov4n0lnBCm21aTpYwlciC1SjaHTYLxJqPSoArIca3HGkC+FGeCuNuIb9hExYEIYBIL2miT2eQnNyMkkBZTlfMRLAiQ86MPrG86WAPIBDG5Zh2AspMmvHjntFNYI+GKOAxJGW21VhwSdT82RUw6GL8CYlWmxnreTgACIoumJij3/TC/uEVK0jBAknhMhF5M2vY8Q+JVYRz/B6z/2o7GtdSi/Z0B5M2FuWfc2YnJmgNzhF4zGp3iyLL1ul60xRFB0DnAOGE3mwugSbVEAJTJoIewRm4KRJ2kMJD+EvdJ/CaOBBbi8aPcDTTltoH3zDzEfOW9tnpabC2JAhgVsLn6idni1QEMbymZz1xpnLwzeA1OvHkwFYwbT5ZaU8UByIQl/BBzQxtX9ncZ0zYXNXXJqfBqG2aOF6daI/2olOf13UQCailClCptlQKs8HlFAoh3JxUDFDG5MJ011RgNkFxrk8UFa4fBspg4Otu4MgzcigSQiYoT4G/0MFjjqzuwbYZRwUUB6ITOezFdwCLYh5VyybN6Rcbc12Zj8Pqj+/ucE4CKBRBgxIHwd+E5LiYZdFbTN0dmbh0E71QzNnhuQxWJ+BCAkQgykCiOacE4kcKJUmoS1vAM7cv99I+a7L86iz0AwmldZueGmVK+vIsxeGNJNwG/+czbJotiY4b3fGt95aOiGRj0rGgZ5hil4WjunRw0DJMgvzBTgr0wEb2lP0y0qW0uCAAFNJiDecKy4C1UngPWtAbC/ERMMy6MbQBkTPbJb1SCNysw42Fdb4wL4oICMAr7wvoE2UZAjsnKCZ75IZA+BsBp2aSMiwJAQIVtjfp3JjC4kG3BO9dx65uLBkBABCh+uyKhDXVMuVctxVYPYAQ7D17HQzsxcTxy2U7lIsyx4rtQa6w73D5ThjM3zDq/804kzs4FU0AqQjYB9aLSwDjgRu3rAYyKVJF+HkAPoCMCjsM9Az2Ajgg4DvcM9AA6IuA43DPQA+iIgONwz0APoCMCjsM9Az2Ajgg4DjcMzOvm+J5FPfx/2eQCeg9RO74AAAAASUVORK5CYII=;" vertex="1" parent="HW1hoY80eRV9O5wP7MRS-284">
          <mxGeometry x="30" width="30" height="30" as="geometry" />
        </mxCell>
        <mxCell id="HW1hoY80eRV9O5wP7MRS-282" value="&lt;font style=&quot;font-size: 8px;&quot;&gt;Amazon CloudWatch&lt;/font&gt;" style="text;html=1;align=center;verticalAlign=middle;resizable=0;points=[];autosize=1;strokeColor=none;fillColor=none;" vertex="1" parent="HW1hoY80eRV9O5wP7MRS-284">
          <mxGeometry y="20" width="90" height="30" as="geometry" />
        </mxCell>
        <mxCell id="HW1hoY80eRV9O5wP7MRS-307" value="" style="group" vertex="1" connectable="0" parent="HW1hoY80eRV9O5wP7MRS-345">
          <mxGeometry x="24" y="89" width="70" height="62" as="geometry" />
        </mxCell>
        <mxCell id="HW1hoY80eRV9O5wP7MRS-305" value="" style="shape=image;verticalLabelPosition=bottom;labelBackgroundColor=default;verticalAlign=top;aspect=fixed;imageAspect=0;image=data:image/png,iVBORw0KGgoAAAANSUhEUgAAAFAAAABQCAYAAACOEfKtAAAE7ElEQVR4Xu2bTUgVURTHr5ZPy4zMTMzPWtjGNrmxTfRFGJSLPiALKrKiIjIiIwqyFrbIiArCSMsMSiENsiA3fWyiIFy5qkVomaZiZmLlU3vN/8a1aZz3fOOZ957z3jmboHfPnTu/+d97PmaM6j590TPW1y/YrBNIvXFBRLUXFntGO7ute7OHWPL2MQOk6IABUuhpvgyQARIJEN1ZgQyQSIDozgpkgEQCRHdWIAMkEiC6swIZIJEA0Z0VyACJBIjurEAGSCRAdGcFMkAiAaI7SYFpty+J2GVLiUsIvvvvwSHRefC0cL//QL44CSCcnWq956+IwSfPyMsnAxzt6hEfC4vJCwnWBMllx0TCxrWCAU6R+Lw9W8Ws/OVioLZR/HjdMsVZ/rlFnALJxAwTBARglMsl4hwWXIa1gILgYtVsBwh4GQ2VYmbqQqtrCel4j9stOnaWiJG2DkvrsB0gwGU23RJY0K/Wd5YWE6rBsTlLRHRCvOjSUpufLa2WlhEwgE6Kzvi+ZVbeMgZoSTq6wREBEEdDzKKUqTKa4DeifUyFXQILe4AoF1E22m2fth2SQSPsAaJyQAWBbxjdFqOkGXRXdrqYkZQ4fuZFDEDUrijBqKbKORV1GaBGFNsckRR5KJSKFMpbt4UB6iSIrZhcViJmr8ibIEwotu9y1YQKwxEAoYKeMxXU3Sb9UfyjCWDcwlBbWk2FcGmJMK73/WGzDAqxuTlax2WdTI7RMPhy9Nx/61AA+y5XS5UmHd8n55hWibQt5AyTGAEmHtghEvcXiWFtu3aVlP2nNCgzreaSLCmNrSsF0LjGaQXQzlJupgYjRoucRoAZDyrl/6OGNTvv4lfli5SKMxNUqADCZ0xrIIR9KafSGD1AbM/s5/UyGfbW0FVj0GVpW7N9XHCOOAPtrIXNAOL8W/yqUTYt2lYXyX+NhnMt/d5VeT62F+xigMYtDDiAhCBh1l1WZ+TQyzeiu7ScARoBzt2yQSw4dVgGD+NbNqVaUDMCdtwWRiRM2LTOr8CMgx2K0ZvZFla/ZzXflWUZDNHY3d4h4nKXyuACQ38P0VVvjgOICgHlkj9mVq6ZAcRDSSk/6dd7aWzv3vN/z0KY4wDarUCkJ8lnj8lEGYrtr6qTqkU5F60Fl1ENFBJqgMc5iOsD3hftHIRKHQfQH+X5GqNXYP/N+1pkvSbh+dNcQLRGqTdn/UoJETnj/CO7JdyIbCa4stKl0r7daRBfr9f6/WwWlpdKiDgTkWI5CqCvLYw/s4WSkI5ga8KMgUQpELkeFIXtCSWZ5X7eiMIvs6laBhw1j2MU6CuIqCipTzuMW1P/m1la4q8MoUAoUZljANqlQNy4r8pjMpBQYfaLOqli2LQAiCR2oL5JJrMDdY9kxMN74UCUcrhpzEv5qmru5oLxvDHkAFGLqqepgAUCoHHrTaY0f38POUB0gdUHloFUIB4SyjakLnYZ1vu98ak8EkL2TsTsZgKhQLugeZuHARIJM8BwBKiiM/HeguKOPBNHT9DfiZjdHQ56tJhUdA4KAZsu8nnvCdlssGKkz9u8XUgfna0sJpRjVUlpdQ0BAWh1EU4ezwCJT48BMkAiAaI7K5ABEgkQ3VmBDJBIgOjOCmSARAJEd1YgAyQSILqzAhkgkQDRnRXIAIkEiO6sQAZIJEB0ZwXaAdCjGXGeiHb/A6EukWvTYtR7AAAAAElFTkSuQmCC;" vertex="1" parent="HW1hoY80eRV9O5wP7MRS-307">
          <mxGeometry x="21" width="30" height="30" as="geometry" />
        </mxCell>
        <mxCell id="HW1hoY80eRV9O5wP7MRS-306" value="&lt;font style=&quot;font-size: 8px;&quot;&gt;AWS Directory&lt;br&gt;Service&lt;/font&gt;" style="text;html=1;align=center;verticalAlign=middle;resizable=0;points=[];autosize=1;strokeColor=none;fillColor=none;" vertex="1" parent="HW1hoY80eRV9O5wP7MRS-307">
          <mxGeometry x="-3" y="22" width="70" height="40" as="geometry" />
        </mxCell>
        <mxCell id="HW1hoY80eRV9O5wP7MRS-313" value="" style="group" vertex="1" connectable="0" parent="HW1hoY80eRV9O5wP7MRS-345">
          <mxGeometry x="215" y="89.25" width="60" height="49" as="geometry" />
        </mxCell>
        <mxCell id="HW1hoY80eRV9O5wP7MRS-311" value="" style="shape=image;verticalLabelPosition=bottom;labelBackgroundColor=default;verticalAlign=top;aspect=fixed;imageAspect=0;image=data:image/png,iVBORw0KGgoAAAANSUhEUgAAAFAAAABQCAYAAACOEfKtAAAJqElEQVR4Xu2ca6gVVRiGP6kMEioDBStByTIyEAyMQkEjUMgoFLQLBlaWkBXljwqqHxVUkEXlD8tCyK6CkmRgEBkYSkKGoJCRJHQRDOwCBpVyWo/jy1lOM3tmvjV7GzULhrPP7Fm3d73fda3ZIzY/NzR05GfrigOBhU+ZjVizdGjo10OO2l0VW/F+B2ASDToAk+CzjoGJ+HUAdgCmIpBYv9OBHYCJCCRW7xjYAZiIQGL1joH/FQDHTjQbN9lszASz8y7MZnX6Gdm930KYqVCTzz99a3YoXN/tSZx9C9VPKQMvnWk2eYbZpCv9Mzmwy+ybneH63OxUJEQGDuDZY82mzjGbco3ZqNEnA3f0T7PdH5kd+NLsWPh89C+zg/vMYOeZo8xOG2l2/iVZnYsC6NyPCyDu3JjVGVQZGIAAMH2+2bTrg2gGICiHvzfbtdls9AUZqNyHRVteDiAGZlUVFgD2TppuNmHa8NOI9rZ1gwFyIABOnWt21aJhxu3eYrZ368kThJkzF5sh1pQvPjD79PUqCM2od3EA8bLA6Dwjd24w2/FeYHJgc79KXwGEdXPvG9ZxMANQMABlBUZRZ9PTmZGAZbNuz8DBuHAPEQccyvQFGfAqiC/ts2hi+Ycre/eZAm7fAGSyNzycTfqPI2ZbA3B7P6k3VEQZ1oy/PLTxSKb/8gWg1j9mdta5GYD7TxgSsQ2Rnrciq8s9QERHtl36AmA8eNgAm3A/mhRAXLIqE1H0ITrt8A8Zm2EkzISF3C8r1GUBJNqwH9XQZmkdQAZ787OZQYBxH6/26SB04XWBQSzAOw+d3Ib6AIgXF/aGg3EAuES6bRBbBRBxvSWAh9gA3paX/Gs96w6zK4LFhmHSd3Fri1/ImLXugXr6DQCvXZa1gDh/tc0/trhmawAiUoCH2KBrENuUgl7DQOx412x7uPJFAK5dnrlDdcrVNwVvIFzoxI1PtBPJtAYg4obYYSUZXKrrgK5Df6E7ASluD+PCdiLGadWtdaAbfoZ61MffpF3aSCmtACh9xWDeCCLV1GBoArB3weOZ3jz4daZLEVMs7vbgzxGd8D8sQk2UiXcvQKh3WxB/+kpVM/STDCCiu/j5zCoitl5XgQktCuzgLyxe/2jmAskVyoOSMnkSFAufzAxdyphbAVDKnugC5nhKDB5WF/AkWkySMI/Yl4LoEcXg2sAmLg/jMVCMnf4wRN6SxEBYd+crWdev3e3LhgAQbIAVefB6TQpRnh/EndTWhqBzPUWGKIWFSQCKfXXj1qJJqg1YhP6sq9QBnsVLUR0yVCksdAOI6Cxbm8Y+IhaMBhaWsKxpGkq+XZGlrstIoh10LWrDk6B1A0g+j6AfXeQRIRaAwcOgMl+vDggSQ2+EoWSEV4e7AZTfR7RRN0mQB4TBj5/iWwC1JTHEuKCHm/qfLCCShOpYvaR5fReA6J973symQKd19BZKf0y4GDCiip/XdLJljBQLvSGanGuPGLsAlO6Sv9ZL1BDV2cFdQOTjQvhF5rmp3ivqSy5JnfEU1ZcYexxzF4DqsI71xUgAOCwlgP/9l2wjCcUNAwmnPH5cDIQkgr9NYmO1IUJ4YngXgGQ1sIBV+i/WT2+HlFQMlHSoZ9BFLNKYqnKERXWlB9GjqKQmxQWgdAaRB6IIm0aFzDDZYT6zM4Z17pWSipV304RA0QSVYPD6dBgSxrTyxibwOWPhpa9mMWtZETMlvmWe/vK3slCMVU/d043FmAWpY9ji8WtOa+5qplJcDKQSBfaRZiec+jFYVbIlx++HewAiBhaJFUzFD5TYaFdOcW4zHmRPSzI8oZnqNtWhSQBW0Z34liRrPtJAVMiy8L0cWCU7tTDsF/NdkyJr7MnUeF0ZF4D3r89SQexHVPlyUu4AoVBJJw3ipCag4upMmze8fwzDcS3qpshoF5/QowdZaBZ0IAxsqi9we9hY14kEwMTI4AcW6T4StDyvQ0YAj16tcnfQp+hVT6Zac2qqP10MlOffROEC3rgT51o4aVUFBiDDSPZGYGfdvWVZUw8QHuBdAFZZ1yZ6q+pZgEcNKJLBGcd9KrOyEsW6u3X0jwGDgagMRLhJcQFYteWYHwCDozTJ9+Xb0JEPxLTXZr0c9CaWWMbOk1lyAagIo04UkaKX8iAiymShMRboTnb/ep2zqcskpeY81tsFoChfJwWkONOzukUAINKwjEVE5NY9+M8tT0Bt4khLJVWFpkXjcQFIQ7JaVSkkJR5SkqZFA8e47PssYyDMBFTCOZW62Z44s143NRePxw2gHN8qZklfela3jggiDezzAgSsA9Bzwj2FmlW6UOKLcYIMTYsbQIVidNgrliXtzyCrJtJ04HpeEUT+IJMWGF2JmJfF2hJftiXqnIrNj9MNIA3JZeglngLQk+2tAlUGqiydXxUba1sW5nq2AxhfEoC9zq9o8nVzh1VgFX2vFFaZN1B1QEkuT53EcNn4kgCkUUUlZSyUKLVtROhbaqQs9hX7cbzziQl5B7AP59mbTksGUCws29vV3q1327CKmQrd8t5AfP4lnyDAFeI8DwtQBG5Vn61Y4bgRiUKRX6aTW3Wc7iYD17Nqn/9ZJPZcRgaLrNcmihZOUsGGFlsNKSWZgXQen9DKD1hhUhuDLZsoecAZwS+Msz08W3TEGNElF0nh6HBqJNMKgAxGOoXPsUugVPux8NaRZ+O6Ljvw+yYGcNib4Q0nXJI8OPH5bc/mU9FYWgOQxuMjtPFrBd5sb13wip7DxYGZFI4IAx7j4D7gbnqmOhlcp/9WAaTDOAOt8yoCtl+GhH5RFWSzeV+EqELxOsYNUSUJgappEzz6bR1AGpX7wGd8rP3h0DmrTxKVJGw/ihYudpc4Y42XAIipr12UjbkvANKZnFg+Y4H1SmuTRGcToOXOxFlyxeG040lV1em/bwDSOS7GnHtPto79cKhlwGTp+X92eLlGeyopkUYViH0FkM6ZxNwAIjqKghiTmfEcZiybjEQVy0p/YjuA4iinuiq9QOw7gOqcjAyntPTiIEAiVnvCVWeDqWwS2sqMvycsYzvUe26xinXx9wMDkE4Bj9Au3vvlPkzhTXWAPBIiiao3j7CwJBJ0KfeHsdgVjBZnc5pkpJsAln92oADGncPI42+bl/xeAiziiEhc9CMU+UkAPAsA47xJAS+IpwxADRhWAiJ7xvrljqrJABg6VFeKCqjqq+r7Uw5g0QB19CP+Tj9AUTWhQX//rwRw0CCk9NcBmIJeqNsB2AGYiEBi9Y6BHYCJCCRW7xjYAZiIQGL1joEdgIkIJFbvGNgGgEOhJLbzv67+N8RGE2vKN1f+AAAAAElFTkSuQmCC;" vertex="1" parent="HW1hoY80eRV9O5wP7MRS-313">
          <mxGeometry x="16" width="29" height="29" as="geometry" />
        </mxCell>
        <mxCell id="HW1hoY80eRV9O5wP7MRS-312" value="&lt;font style=&quot;font-size: 8px;&quot;&gt;CloudFront&lt;/font&gt;" style="text;html=1;align=center;verticalAlign=middle;resizable=0;points=[];autosize=1;strokeColor=none;fillColor=none;" vertex="1" parent="HW1hoY80eRV9O5wP7MRS-313">
          <mxGeometry y="19" width="60" height="30" as="geometry" />
        </mxCell>
        <mxCell id="HW1hoY80eRV9O5wP7MRS-310" value="" style="group" vertex="1" connectable="0" parent="HW1hoY80eRV9O5wP7MRS-345">
          <mxGeometry x="120" y="157.51" width="60" height="65" as="geometry" />
        </mxCell>
        <mxCell id="HW1hoY80eRV9O5wP7MRS-308" value="" style="shape=image;verticalLabelPosition=bottom;labelBackgroundColor=default;verticalAlign=top;aspect=fixed;imageAspect=0;image=data:image/png,iVBORw0KGgoAAAANSUhEUgAAAFAAAABQCAYAAACOEfKtAAAFgklEQVR4Xu2cT0hUQRzHf5rmlvbHyq0OBkEejDr0hw5FQR4CO5R1KehgFNQhskMJHQyCPATWoaJDhyKDoDqkdNDosIFQh8KCCgsMgjwUa+qWlrulbvOdnG187p/3dvbtrr7fwLLu2zdv3vvs9zfz+/1mxoLQsfvR8eAwcXFOYEnbUSoIbrwUHe8bcl6ba9CKYDMDNNEBAzShJ+oyQAZoSMCwOiuQARoSMKzOCmSAhgQMq7MCGaAhAcPqWVXgvIMbad6BDTR6/zWN3ntleOvTqxevW0kLLuymP+++0M9rXTQRHMl4G9YLZgUgwJU17qQ5leWy/d/PPtHgvpsZf7iyxhrRTo28bjQyRr9uv3AdpGsAC0qKCOBKG7bHwCFhAYhuAxzr7aeiqoqsgMw4QICbf3gLlZ7cQYX+spjiRi4F5N9I/7gN8HvDQ9kGVI8f0U1FZgxgMnB4GJS521ZnDaDqY6F4N0EaA7QDTnV2uQCo2raCxHFAHml5Sia50LQBOgGXDwDdApkWQF9tNS1s2Tutj1Ommmh4zaUCrfcUT5G/Wl/Qj8ZHjryDtAAu7ztPUCCAYXBIBS6fFJgK5EDtDfrT3WcbYloAUQnlq7/JdkO5GkTs3iC8A1gI/FO7gsC1GeAkYQYoQKhIBH6g01CRAXoJ4MT3MI2JgB8Fgf/wuQ5SiQAcizztpZ9Xu6ikpkpGNImOqaSESlLMWbVYhoqzXoF6x67COuXiKAcXEABm0dX98nSYpPXYSEtAOMKBmOmq6856gEp1eOCoUCM+Fy7yUZFIR6EgDYWEAGJplRSId2z8c0hGEVAd1IdUGaDPeoDZSCbwIGLXgdPO41E4DWh6FQbIAJMTyKdkgvVOZ7UjjYki+IQYXZMF+p42YTXhZE1uIutT0X1GujTftl2R7g2OweWxwvQsQMBb0n5EWtVg3a0pGWLkHhe3HpKwkGoCPHxGdxCqv0uRQG/MGj0JUMHDO2AACqYkVQEsQESiEwlPFEQncJhxng7RcwBTwYPZwnxR+tddJMTQqsSD6CmAQwdbadnzUzIMi6c8gCpt2EELmnbF4mDryKlDHBTmXSKUCoieCOVCh++Sv/dfRls3Tx3SsmenZCycKEuMDM7SwAlZBaaMgcUzAAFFz7ZYVVO8qZKWdh6XA0r/psvTHEzAKxdpeCQhVKbGUyas1sYkgriwZQ/Nr98i01V46SUePHzvSYB4cB0i1DYhdk35PzZJlwWfrb5hRfdp2Xcq5Sm4ngWoIOIdUBTQRGkvKNAncn/IZOvF0wB1ECoudTqaMkBBEb6f/91Z6SQH1zRPcaqnjSSWAwxwEgggwkz1MC0VPE8PInbg2DmHFWiHUpJzGCADTE6AM9KTfHh11n+h8OqsSRYzak5EN3SnSzv0vSCeXdrBAHmFakwD3AfOxD6QFxexCbMJW13+nLgxAzXX5eJIuyVfIxFkf8rv1csMUFa2OajZMoBDuj3c8Z7CYhN1Kpj5BBDQfLVryVe3Xq5yQEEO8tvWK472zqU1CqNxLP727a6O7QXWYY7eeSnXsFhLrgHGg4Z7xIR9pLNH7qR3sskGddMCqINR8xNWmAAYbn8rXwpmLgAmgga1RTp6KPz4g3zXl5PY7ZIyAlBvDIBgEjANtdka3yuYWCiO6Uq33Zjh5idy8bpunuo+w21vjKHpz2yswES/FmBi1XwJYIrJ73jhm5Nf2s65epysnx/ufC9MFK+eKetr7Fwz1TmuAdQbxuoqrFtRMKGC0PEHqe7N8feYiIfCUaBy9GluQMuKApMpEybtxr8kwUR88eZK2WW4cf14z5QVBTqW0gyqwAANfywGyAANCRhWZwUyQEMChtVZgQzQkIBhdVYgAzQkYFidFZgJgFFRDK/j6ep/AZEoUImMwjqiAAAAAElFTkSuQmCC;" vertex="1" parent="HW1hoY80eRV9O5wP7MRS-310">
          <mxGeometry x="15.2" width="32" height="32" as="geometry" />
        </mxCell>
        <mxCell id="HW1hoY80eRV9O5wP7MRS-309" value="&lt;div&gt;&lt;font style=&quot;font-size: 8px;&quot;&gt;Amazon API &lt;br&gt;&lt;/font&gt;&lt;/div&gt;&lt;div&gt;&lt;font style=&quot;font-size: 8px;&quot;&gt;Gateway&lt;/font&gt;&lt;/div&gt;" style="text;html=1;align=center;verticalAlign=middle;resizable=0;points=[];autosize=1;strokeColor=none;fillColor=none;" vertex="1" parent="HW1hoY80eRV9O5wP7MRS-310">
          <mxGeometry y="25" width="60" height="40" as="geometry" />
        </mxCell>
        <mxCell id="HW1hoY80eRV9O5wP7MRS-337" value="" style="group" vertex="1" connectable="0" parent="HW1hoY80eRV9O5wP7MRS-345">
          <mxGeometry x="23" y="170" width="70" height="62" as="geometry" />
        </mxCell>
        <mxCell id="HW1hoY80eRV9O5wP7MRS-303" value="&lt;font style=&quot;font-size: 8px;&quot;&gt;AWS Firewall&lt;br&gt;Manager&lt;/font&gt;" style="text;html=1;align=center;verticalAlign=middle;resizable=0;points=[];autosize=1;strokeColor=none;fillColor=none;" vertex="1" parent="HW1hoY80eRV9O5wP7MRS-337">
          <mxGeometry y="22" width="70" height="40" as="geometry" />
        </mxCell>
        <mxCell id="HW1hoY80eRV9O5wP7MRS-302" value="" style="shape=image;verticalLabelPosition=bottom;labelBackgroundColor=default;verticalAlign=top;aspect=fixed;imageAspect=0;image=data:image/png,iVBORw0KGgoAAAANSUhEUgAAAFAAAABQCAYAAACOEfKtAAAJrElEQVR4Xu2ba4gWVRzGj5Vraesl0800b1B9yS9FVER3iILcIA3chOxmF4MK0Uj9UH4wIiVKutG9oAy6gJdILCsLygj9Yl8qSM3rWmm6XnK1tvmdeJaz48y8Z+bM+7rRHBDc950zc85znv/z/5/nzNunfe6TXX/9vsdULT8CI1583PTZ3Hpn19Ht7fl7Vz3M+O+WVwCG8KACMAS9qG8FYAVgIAKB3SsGVgAGIhDYvWJgBWAgAoHdKwZWAAYiENi9YmAFYCACgd0bzsD+l1xgBrZNNP3OGW+Obt9lDv/4s9nz8hLzX3WDGgrgsEcfMs03XHPMmv/dccC0z15gDq3bEMiHxndvGIADJ11vTn9khmXa70+9Yg58sdb0HTvKDGprtaAe3bHLbJl8n/1swJUXm6azx5kTmgd0I8L3/KM/QB/ZtLXxaCU8sWEAjln5ljlx6BCz4965xzDtjMWPGUL7tyeetyE98rVFNcEByIPfrDeHon/7V31Z8/p6XdAQAAEOAAnVTVdPOWYup157uRm+YLbZ98HHZvdzbxrYenjDDz2ua4o0E0b2HTPSnHLBBLsYajBz75JlpmPFp/YZXHfa/dPMyRPONfSDsX+u/9788cb7pquzs1QsewWAhDD6uHfJUhvePo1QB8hBU1pt2NPov+/DlebMyGZ3Adb9CPvtUQSUmbAaAiATUAjvfOCxKPTW9cCIcwXA+HX+0xGLVvvg1+Mawr/5puusBJyxcJ7pFzGPZ7AYgMbfwyL9hY2E+655C3M/I61D3QEknLoOHzGnXnuZZRkhRpge/Hqd6Xtmixk0bZLVPya6deqDQSEGUOhn0r1g5Ohlr5g+TU1m83W3lsbCugIIeITT4R83WnaRhdG3eCOkdkTM7IwSSEgb1HajGTrzLqt1LFK8KVlRMlEFlNHqBqDAI2wAZtvtsy27YNuAiI0njRhux39o7XqbPGBmaFOplKalkoqkSqDos+sCYBw8hLsMgGpNksUa9fYzNjy33Hxfj2fy3cjXF9oQphIoazylA8gAGaiY1yjwBC7lEGUROkgYAxRZmrKGhU0L71qL07AkggahRYRto8FjkiQLZeL4pMnM7bMeD0pU8XuWykCFCQ9B80KTQlFW0A897H/FRTZk7a5lzbfdOxY+K6ugLhVAiXTZYRICpNuXBaYe3P/JV7boLqOVBqC2YzIFfFcYXWqJit+TotAjxGBKvVwZN8n80npXKSwsBUBKkpGvL7L6k7fGAsCz3nuhx9aL0GcXUQ8gWSzcHu5fBguDABx822Qz+NbJ3bYTrGOblLdIdUsM7oFG0bgPZmuZWuqykCQXaosVBlAryUQRaSYt/67I6rIYlBqA1bHiM7ujUAPEPS+9U4Zk2QJ+1NuLeyx6x/LV3SVP3ocUAlDuCTUWjJM5wOenz5lhwcwbygx89LJX7QTpe/L559lySK2MEgT2sbVkoRm7jAaegXZvu31W7j1yIQCz3JMhd99ihkxvK+R6wECYiCOz+9k37a7CtaVCQHTNBJfRfE7xjRtUxKkpBODYz961q5i0JZLGEIq4K3ma3BT1lTmARHR1HrHsRBdhaN4miWARsNTcJnD5bNNVbbmycyEA5e0BUFzgyXDoY9JAGSDhTZHLAnBN3HnW4vx84UR7LRaUsvvQmdMtiEXqTDlBafqMDcYCJs0pa7EKAagEEmcDE0ZjGEia8AMAWudq26/z/zUAXB0EQJqYo4xMWNPyTlT3SXNqpL+YEHkycyEA2ZzLNodBHR+t/pdZkSvMd0luiLuKGqxKFgR8+z1zrJDrOwHoaheSgb4S2tSI2FK+DRsNP5DksXXqA/ZZakqKjBuzNU8rBCAPgEkjFs/vPo/QQ1m99igzZ9VuCidYSrZFwOm37Y5ZZvTSV214C0Duq/NkTNkDa9Z2F95JxwNZk1fkACIeZOdPG+3zZfJyJMDneVphAHmIRJ8BcSLWGTnP+1d9VVOEteIMFk1qWTTXGq2ALhvMTUC6XllSyYVsDai+jYVh8dh2xhvWF9qatwUBqONK2IN2+DZlaoUh4Y+26XQtDgyfs90j7H5pvdOyn1BHAvJmTcbI83WgjwTtjLJ60ZO6IAAZDDdIO+9NA1QAuMALVPrET+d0vQDkGmklYdx07ji7i4HRhKFPc8+iffsk3TcYQE1k46WTaoauBpAECN/Jw2N341rucQa6uogENN9wtWUVzRdEZeXQbWIwgKqfCC03s2WxIImBWdeLLW7ZpAMkAGueeI2tApTVfQ6N5JwXPYvWeIMB1BlEnoyo5JNWbMfBdLO2TAWBinahxcgBRilljk+JU9YJXTCALhN8tUTh47OjcLdZmKASe0ofQFAjFLnf2M+XWDZmRQTZmB0PMkHd52v+1kUDlYl9i1B3e+ZT9SvU4tqmLaMmpXup1suq6dS36L7aBTKYgdwsTziohqN8oHDOau4uJL51U21I/yRtzHpRSbJTxLeMj7cUAPOEsVt+xF8yig9O7EtiimQA5gOuQlvamKavaZLgU/rUJYS5qcIYLXF1Kv5A6ZZvuGe5PjyT5BK3/PWMtEQivzLvLiYN4FIYyM2VKbMGpsH71GoCwifU3cllAegeYOV1c+oOIIxgu8Ug0ba4z+cWvz61V1Lp4hNmWX6kTIkykkdpdaA7KSWINDdalr0PgFnhmwVkmu8nZtaSGZ9FKj0L64bui0VJWySFcC3nI22r5zM5Zdj4IrHVa4nOPva+uyy3ZZX13NI0UA9hpTEuATMOothRSwNrJYKsCeHqAFaSxuk0zmchfK8pHUAeLPeX/7tMkClAFs56tUI1Xt5M6VYDRWwuX9DqFsLujd1C190na6eQpYNial4Ayy5RfACtCwP1YJIKr5gBoPabypKy8JPeFC1iNcE+nSOXVaIcdwAZQNK7eHrZO+0lzLy/G3FPA32cGB9gfK+pKwPTBsGE3XMQDqHco8T4GUjWZMjYLQsetucz+JGcuJX1/rMPiMcFQDFTIBLesqP4Tn5hLTax76XgVnblbasy3+Tq1QAyOCbO2wb6CazeC+QHh/h17hmIOxkA5ideOl2DvRwM5TkQ9wHH55rjxkB3cJQ9vNWl346w1aIWBGAZo/oZ7MCbru++DuZSU8LeRoZtQ8oYn9Vzr9E7M4Ojn365b2TBSv52PwMsDtix933PYfKOx/f6XsFAHyDd3wfD0BAb3hccn+t6HYAaNIzk9760zkjjih58+4AQck2vBTBkUo3sWwEYiHYFYAVgIAKB3SsGVgAGIhDYvWJgBWAgAoHdKwZWAAYiENi9YmAFYCACgd0tA7uiFnif/3X3fwCxBG6JyxMr1wAAAABJRU5ErkJggg==;" vertex="1" parent="HW1hoY80eRV9O5wP7MRS-337">
          <mxGeometry x="21" width="30" height="30" as="geometry" />
        </mxCell>
        <mxCell id="HW1hoY80eRV9O5wP7MRS-336" style="edgeStyle=none;rounded=0;orthogonalLoop=1;jettySize=auto;html=1;exitX=0.25;exitY=0;exitDx=0;exitDy=0;entryX=0;entryY=0.25;entryDx=0;entryDy=0;" edge="1" parent="HW1hoY80eRV9O5wP7MRS-337" source="HW1hoY80eRV9O5wP7MRS-302" target="HW1hoY80eRV9O5wP7MRS-302">
          <mxGeometry relative="1" as="geometry" />
        </mxCell>
        <mxCell id="HW1hoY80eRV9O5wP7MRS-318" value="" style="group" vertex="1" connectable="0" parent="HW1hoY80eRV9O5wP7MRS-345">
          <mxGeometry x="14" y="248" width="90" height="50" as="geometry" />
        </mxCell>
        <mxCell id="HW1hoY80eRV9O5wP7MRS-314" value="" style="shape=image;verticalLabelPosition=bottom;labelBackgroundColor=default;verticalAlign=top;aspect=fixed;imageAspect=0;image=data:image/png,iVBORw0KGgoAAAANSUhEUgAAAFAAAABQCAYAAACOEfKtAAAJNUlEQVR4Xu2cW2wWRRSAByjlDuVOuYk8qA/woMQoD6CCEkigJoIJaCIieMMEjCmJwAPwABppiBgVFbyURDGxJREwIIoKRMEY4gO+iAkCAqUg1xawBaz7DZ5mut39Z/ffWfijOwmBdmdmZ745Z85lZmlTu+i1pmunz6qsxCdQ+s4K1eZw2eymq8dr47fOWqjhP23OACaRgwxgEnpe2wxgBjAhgYTNMwnMACYkkLB5JoEZwIQEEjbPJDADmJBAwuYFI4FdJ4xVfZfMV22KiyNN6UL1VvXnq29HqptmpYIB2HfJi6rb5PGR53q15qQ6UjY7cv20KhYMwF4vzFQlT05Tp5a9ruq27Aidb1FpPzV00/sqA+hD1POZx1TPp2eoM29VqnMfVYUC7DDydjXogwp1ed9+VfPcorQEK3K/qUtgp1EjVYkH5nxltbq0Z1/owPq8PFd1nzpJnV27QZ1975PQevRHDq7xwEF1bNYC1dTYGFgXSe2zcK66vOdndX7D55GBxK2YKsDOo0ep/hWLtGFgoifmLdWSI6Vtty4aWvdHJikmTIkqgdSlz4vf7VWXdv6o6rfvau63Xe+eatCHFc192hYlLjSzfmoATXhIS/Ftw9XfdRfVcU/t2nRor6F1nTCm2eqyp9V/uUudW1+l6+Uq16FP1H1KoT2Se3HnXjXQk1CeXTl0VBUN7KffkRbEVACa8GTg/ZYv8ICNbcEFULgjdV/s0JONW5C0Lvffq0pmTmuWNumD/o49Va46jrijWQvSgOgcYBA8JoUUoM48B9z5TzfpvckmbVGh4gJhiNgKkMbjzy7Uf1PCxhS171z1nAK0DRSIHT0r2uCptCtw/slhZBo96fMfktnGli9MZwBdDxD1ZK/reNcILUnnKqvyUnMTjOsx0rcTgC4Hhp+HgQmKSrDgdRu3tbC4cSXH5VidASQyYO9J4twCDHAAlIJrUr/lG9Vp9J0e0AcVbg8Fibywcas2QPlsBT1mPKx6vzRH93V44hOt1D3OojiRQCZPLEshisCXi1JQ0x7Ty1S3KeMV/6awd9Vt3qGNjLmPsX9Sj/rthw3WdfED67fv9ozRJu1YRymmBBIyEjomKU4AMgAzm2IbGFIGCNOtadj/q5YqgEh0ASjq8MyMYoDQdfK4Vu2BbjrUfjDmQuMBnF61Lgk73dYZQDpjYgPeWKo7xgdj4v5CGIallAJswJl1gQZgU52D1JZtA7XH2Ih6I7VHH58fqJa3fl+t3ak4WmIj7BSgxKlM4kjZnFZxqjwXP5A9TNRUrC4Rhqhz0OBFbU3oQCGqET8wLKPTf+Vi7Xi7dKidApQBohpBAbwANI0NIVfJzKmB6gxA9laktN77082DG6T2kv6SjE4YQN41+OPVetGCFtgmbUHPnQFEaoZuWqetYtjg/ACljSQb/AZB9ixzTw0yPLULluukgg0gAGSRpU0+0Mw2zgBGyef5AZqpqRovU+OPHoIAmoOXLLaoZBSArvOJTgAiQUgf0kGaXWJQ/+qGAQzzH20ABVgcgIxJ/FaMTVT3J0xS8wLIRmymktr1KtGWkMEwqLBSKAAleYtr1PDLgebhauMWM/maF0BxB/ygbNatUADKOIIWOsz9ciqBUKcAzCy29FShAGTMaIzpLrFd4FdyzmJmzW1GJi8JFIAH755i67/F80IC6B+4OPgZQO8Ay3Y0GrTqGUDvPCSKGxOmMhnADGDrQ/K0/MBMhf8lkK8jnQH8LwEktmzrhXLXPC/eFhbJxSCJWPDDbtm2PvSikE2F5ULSycUrdSI16gUl+DOW9gP766X4y8tbksfEzbqhboxfFWwZDmJmohhCpkPjpuvm/NzUcEWfTfjvudgASmZFogf5mSskue7hmFkg/xxuCEBWi+wzE2b1ijxJIv1OSgmIuQr5OOLoPx59Xh9Tys9BA88FkMUY9u0GnWFmMVgUpBk48nPYOIhCiIfJ/nCGXOyNnXYkQY7NKo91yJRXJOIfmKwovz/0wIzQG1M8l0BenF1OxzglCzqjyAVQjg9kO4hzb1AEwKYxUcIsJwB5kdx9kf0o7OUycUlhmfDJ5Jh3ZMIAInVILlLvT6baDotEcpFYto2kxRlAiXNtahyUOxQpBB4QZS8MAyiJVDN9Jjk+WzZFzoRtmaOoYJ0B5IWyn9kmIcAENidqciUNyeTyODD9AKmHpWUPQ4KQPuoLFFs+UhaPfjh2cPGRuVOAcSeC+orKMzm2AZK1FI45r9XXa2MFmKveho+UU4/N/kT5cv179r4hVWv0720WVBxvm5ZElT7qOQUofh0d26SQ0zWAoa615Sua3Q6k07zG4Z8M7smpZddP1oA38N1X9N+2w3xxmQBt26dvCkDUonT1Mn0YHtUdkL0MiEwKyaAwSaTNPFhH2nCZRO1whQZULNbweMbNV9s9GbG+9MEhls3xjwLSiQSaksDeVTNvSejBkn9Q5vch7GfnvCx3roww4LjNL6oeFZ4sDB/zIP1+yY8CK6iOE4B8doC0xJmMORj2Tg7XzRQ7EJGoxt9+11LGnw4ePLnCAQBuNmBNbZLnn7gYMfrAlYnb3uzPCUCJQeUSeT6qgdpiXf0g/ZPnHXVbvvYuXFbnZUVNi2+z2lGk0glAXiSqmASiOWAkmhARleW/ZGFfZQ8M+y4kymT98KLsm7Z+nQFMA6Jt8HGepwHPuRtjg4hjzNdD3IE582ZlXioYBk22gB4zytSlH/a1+JIzLXipAAyDaN4dpE4SI+CHaH7iIM/kDmCa8FID6Id4etVaLXlICcF+UWn/ZjeEuljci1/t1n5glPCKfnBjOt93j45UxDJjFC54l9CxstThqnHXh8bofTRfD8G2TTjdA3P5eDwzMyVyLxAQ5kfWtiiBDAxuk0CTBbjgXe8VR9wv7WnBS1UCBaZY57BQS6RJrvTasiTmLVjqhkmtJCLShHdDAPISUaFc6uA/YQurG3TLNawu0prPN3g2tTWfp6rCcQYiAEllEWHkgjLkszXWq3Rx3p2kbsEAFFVHYkhdhRVOACVhkf2fCQYlCQejSgP5QlJmN7sUjATKl5xRgQR9kRm1rct6BQPQ5aRuZF8ZwIS0M4AZwIQEEjbPJDADmJBAwuaZBGYAExJI2DyTwAxgQgIJm2cS6AJgk1cS9vO/bv4Pw4OCmCg0ZlgAAAAASUVORK5CYII=;" vertex="1" parent="HW1hoY80eRV9O5wP7MRS-318">
          <mxGeometry x="30.800000000000182" width="30" height="30" as="geometry" />
        </mxCell>
        <mxCell id="HW1hoY80eRV9O5wP7MRS-317" value="&lt;font style=&quot;font-size: 8px;&quot;&gt;Amazon GaurdDuty&lt;/font&gt;" style="text;html=1;align=center;verticalAlign=middle;resizable=0;points=[];autosize=1;strokeColor=none;fillColor=none;" vertex="1" parent="HW1hoY80eRV9O5wP7MRS-318">
          <mxGeometry y="20" width="90" height="30" as="geometry" />
        </mxCell>
        <mxCell id="HW1hoY80eRV9O5wP7MRS-360" value="" style="group" vertex="1" connectable="0" parent="HW1hoY80eRV9O5wP7MRS-345">
          <mxGeometry x="103" y="230" width="100" height="50" as="geometry" />
        </mxCell>
        <mxCell id="HW1hoY80eRV9O5wP7MRS-358" value="" style="shape=image;verticalLabelPosition=bottom;labelBackgroundColor=default;verticalAlign=top;aspect=fixed;imageAspect=0;image=data:image/png,iVBORw0KGgoAAAANSUhEUgAAAFAAAABQCAYAAACOEfKtAAAFPklEQVR4Xu2bT0jVWRTHz0vNZ1pqpdXCoIWLoIKc2YxBoIuBWmUbpRYtAl1EtiihRUGQu5nFTDILg2AMBjJoihYTzMLA0EVhQQQtjIpcVFb6zPybz9f9XrjN643v9+7vd+7P34t3LjxE3z33d+/nfu895577M5Zo708lx6dJin8CG28ep9h4w6+p5Nikf2uxoK3j3QKQowMByKGnbAWgAGQSYJqLAgUgkwDTXBQoAJkEmOaiQAHIJMA0FwUKQCYBprkoUAAyCTDN806BxfU1VNpcTyWNO2it+tDCEi2NvtPD/PzkNc1dffD1d+bYnZjnDcCSH+poQ/dBws9cBUBneu7R3LWHuaqG/n1eACzvaKT1Fw/qwSKxuzAwSovDL2lx6Dktj3/SUGPxYiptqqd4y24qqqvWdQHwY9dtSimVRlUiBwhwAAgIn34ZoNne4ZxAytoaNPA1lXG9nCfbrmrwUZRIAa7dt4Nwp7A8NU9THf1aebYFe2XVn0cIPwHxQ/MfOcHbtu2nXmQAY6XFtHn4lF6OWIazfff99FvXhQKr1QSU7Nqml/NU59++2+AaRAZw/bmfqbxzP30eGaMPB3oDj2NNbQVtutOhJwIA0d669p8ofmgPJZ+9o9T8ktpPX9Ds5WGtdNclEoBQX+XlVh2uTCh4CE84JX5gJ1X1HfVsAvAmW66wn5X5kEgAmk5APfCyLsqmgRN6KRvvPNf/6Guz69obCZAB8f2+35w9Ew8IBBAKKvkxd7zGAYOlh+VoWwCvvKuZ5tReupIzqr52TCt+/uZjSnRct202Z71AADcPndLeL+yCsAYfFwVqrxk5Q5j8t3UXnHnsQABhhLI49MLF2P7XBgaLCXLtWc0yh9Pyo26vQbIAvqk9FwpABMqVlw47B4g20Tb2XUzObN8DdgBeUABxJATE9O1nuvtfmrk0GFgIBQXQUELMWNHVpNWIAqeTOPZXoH3RGUAbz5xSYYRNzBfWEs6UGTw3TjI40cyoM/j0+X98K9EZQMxqzchpzw7A6UyoYDZXWS2A6AeW9cZb6h0/5Z1xnraZ4PT+OwMIz1nV2+rJBp2zmeXVBIgOm3RakBjRGcBcqvLz/WoDxBKueXKWkq8m1Unldz9dDXYSMXFgWGEMTgzlJ/fTwt1Rlof0Q8IcDvwG2XmpQD8Dd1UXeUnkJ/0G2c4A2nhhV4PN1k7yVUIHxojzsCenFyRdvRIX5pSCJWwusWz66wygjRe26RCnjjk7mxNHelvIFXpdQm0ZuxDonOwMoI0X5sCxsUUKC5CQqMUFVHqZ6RnMemVg8olBkrvOANoMMB/rYOvB8sWyD3K1UNAAAQ+ZbE6eMC8B4ohVqjLISyrwnr/zNBThxlv2UMWZJq08LN2JQ1eiPQsjGEXq3LYkxxJZN/VsgbQBa/uMlerFNsSpTMEzXhoT9LHzRuALJ2cK9OuFvc7F2QCav3MAGls8H6ksbmLVGcDvRYHYFhbVknV1meUMoAtVmDZW+yzM6bsA5NBTtgIwXwB67YHpHhfOpqxt7zfdzvTIBbmEvbxwusc1b2SlE8z0yAUJUBTo4wXFsBOqBalA5l78jbkAZNIUgALQm4Dsgf/xkUCauVoEoABkEmCaiwKjBOjq9dvMMRSrlD5uyly/ocpktaJ5IAXWqvdIMi+uw+hc0FfOwuhLtjYDAUTioGh7Vej9RPY4jH+OcdnxQABdduB7b0sAMmdQAApAJgGmuShQADIJMM1FgQKQSYBpLgoUgEwCTHNRoABkEmCaiwIFIJMA01wU6AJgShVmOwVt/gUkcv5NSYev9gAAAABJRU5ErkJggg==;" vertex="1" parent="HW1hoY80eRV9O5wP7MRS-360">
          <mxGeometry x="34" width="30" height="30" as="geometry" />
        </mxCell>
        <mxCell id="HW1hoY80eRV9O5wP7MRS-359" value="&lt;font style=&quot;font-size: 8px;&quot;&gt;AWS CloudFormation&lt;/font&gt;" style="text;html=1;align=center;verticalAlign=middle;resizable=0;points=[];autosize=1;strokeColor=none;fillColor=none;" vertex="1" parent="HW1hoY80eRV9O5wP7MRS-360">
          <mxGeometry y="20" width="100" height="30" as="geometry" />
        </mxCell>
        <mxCell id="HW1hoY80eRV9O5wP7MRS-365" value="" style="group" vertex="1" connectable="0" parent="HW1hoY80eRV9O5wP7MRS-345">
          <mxGeometry x="29" y="315" width="60" height="50" as="geometry" />
        </mxCell>
        <mxCell id="HW1hoY80eRV9O5wP7MRS-363" value="" style="shape=image;verticalLabelPosition=bottom;labelBackgroundColor=default;verticalAlign=top;aspect=fixed;imageAspect=0;image=data:image/png,iVBORw0KGgoAAAANSUhEUgAAAFAAAABQCAYAAACOEfKtAAAGyklEQVR4Xu2cW2wVRRjHpyAFbUstSEulYuVBX+RFYoIxoFIvEKEmoAnVBC+o8RYlxiamTZSaYIxtCCXxEsFrgiVRTCw1ELR4IQqJoS/4oiZQFMRWa4WeVi0tdX+Tzsme0z07c5g97elhJmloujuzM7/9z/d9M98seV11r44M9/QKV9InUP7myyLvePX6kaHfutKv7WqIBd/vdgBtdOAA2tDz6jqADqAlAcvqToEOoCUBy+pOgQ6gJQHL6k6BDqAlAcvqToG5BHBaZYUoXlstCm9fKv45fET0f35AxPZ9YznEzFafcAXm5ed7wJaImatXiOkLrxkzWnaJ+na3izOf7BFDp7ozS+M8Wp8wgH61TSkqkF0/19cvFYfygAnUi8pL48MaOHhYxNr2Z5UqxxVgKrX9d+RHqbDYvgNiZHAwQQeX3LBIFK5cJqe1KtmkynEBGKa20ztbxdnOE9rJM3V2iShaVZV1qswYwPNRm5bi6A3ZpMrIAUahNlOQ2aDKSABGpbaCmxeLgtuWSHvHtGZ69391SJjkayZKlZEAnPdOUzwEUZ7U1LbhZfG22DcUFVTwzHhfvLCuBKkSx3TivmeMbK2u/eTr1gABML/1bRmC9GzeFuhJkx+aSrGobtD7QYmDPx2Vv9t4X1Q566l1Iv/qBeKPhi2ir609XT7a+yMDSJD7S/X60Aeq2K7gpsXCH/v1f31IhjGEM0Urq8ScFzfIwTLoVHaOlUrMuyco9PF3grZoc9ICBAAqmrl6ucDBqJIq9ksG6IehXgArF1TsD777PmuXLyC5TGqADLJiR3McnEkAHAZQwUG9vJSiO6sSln+nHquTa+icUaCyj0xv7CMeVVdMAPrbQNWXPf+EuHjRQtG7rUX0vvVh7gFEFajDpKQLkDZLHr1XlDxS4wACwwH0yUxNYafAkLnnt3PJYYwDaGC0HEDL01kOoANoMM9S35LRpZyzgQbvxk1hN4UNZOKm8OTcjXE20EDczgY6G2ggE2cDnQ0Mk4nazurZvF2cbvnU7Qf6cyIm8ws7PDJ4NjD9SUqBJBUJq+TdapO2dfdYr0TYtr/q213yTMuxG9ckPG+8vLB6KNm3qaMHlfjbsJcpJLuXyWINkM7RCOXo9avGHSAvkN3owjuWJpzkUh0hnUDG7+/3Ps4Ix0gAVu7fKdOUx5evS5hGSoFky04+9JzRANLZkSZLV/rChoRsH4pDeSgRRapCH7pf2hJ5cj0SgFd89IYcBNl//5RR05uke+eytZECLK65S8x+9mHZJvbtr9feD0xaYf9mPXm/7B9mBkdzZtceo76Y3BQJwLLGemmou+sbxxx+vHLvBzI5nqzOVJ0zUSDKmvduo8wNMzXJxiWfK/S3r6b5pQ/cLe87+WBtZLYxEoAqjCCE4A37S7qJbR1AYAAPiEFpTNKbM7wfUqjJDgQlApG/AzEMuon6lP23/uCaTvPldlDyiAR46aZaOaCu2k3afukAAgAQqSColxl0lMOf6GfKR+FYIlEgHav8skXC6bylJuHNcm1+63Y5jZNtZBBNHUAOMuGccEpBRznCAPI8DhzN3bpRHljXneXRvu3RCMRagTwIBaLEIDuoBmWS3gwDyLTlqEhQzKkGqwOoHBv3m7xQHcRIFMhD1MA5w/f70xsTnkuIU7Fjq1TOn6+8HuoFwwAq9fjDImXz1ANnXHetfJHSBv58LN4Pv03kJfAy6KfJmcMwiJEB5M3icYH16z2Pj4m3lJ2kM2EQwwAGXVOK0ynFbxNV1BDFkbfIADIA4jLis1QOwx+74bHxosSI/nLBKhAIOAocBmpMZV+IF+d4qweUCry+ti+8pdbeuGKDANIuR+Ny2gYqFakwg9UBEINiLUCwfgWmv+BkpnjwWaKpJdl0715gs5IBeM56YQXCH+jqYj+cSnFNteeAbo0f+Q2yZagP7w7gnIwDkwcNGLwuyiFYJWg1KWo7in9R8HAsNibWy8mVSBAcQo6ypjppD1EiCopi6cSzcm4tnEpd2LLy5gapRGxad0NzZIv4nNqNCZueTOe5TfXxvTnUSPgSxU5xzuwH6uwbCkQxfI2uvg/BIfzb8YNcCQStaZPbZD8Ps8BKgzYwCTiXnNiR1gFU1xk44cvMNSvi33moaziNoYD/w1CFNf5nYEv5ip0Vjb9M2pyIKUD/fWoNq9auujZQ28DBDjHgfdU08F1HZA5J91zd9UiXcrqH6a5jL6ddXha/7ZynNJPprWs3k9ezCmAmB5qpth1AS7IOoANoScCyulOgA2hJwLK6U6ADaEnAsrpToANoScCyulOgA2hJwLK6VOCIVyzbuaCr/w8h4YyJZ5ESmAAAAABJRU5ErkJggg==;" vertex="1" parent="HW1hoY80eRV9O5wP7MRS-365">
          <mxGeometry x="16" width="30" height="30" as="geometry" />
        </mxCell>
        <mxCell id="HW1hoY80eRV9O5wP7MRS-364" value="&lt;font style=&quot;font-size: 8px;&quot;&gt;AWS shield&lt;/font&gt;" style="text;html=1;align=center;verticalAlign=middle;resizable=0;points=[];autosize=1;strokeColor=none;fillColor=none;" vertex="1" parent="HW1hoY80eRV9O5wP7MRS-365">
          <mxGeometry y="20" width="60" height="30" as="geometry" />
        </mxCell>
        <mxCell id="HW1hoY80eRV9O5wP7MRS-351" value="." style="text;html=1;align=center;verticalAlign=middle;resizable=0;points=[];autosize=1;strokeColor=none;fillColor=none;" vertex="1" parent="1">
          <mxGeometry x="1795" y="-120" width="30" height="30" as="geometry" />
        </mxCell>
        <mxCell id="HW1hoY80eRV9O5wP7MRS-352" value="." style="text;html=1;align=center;verticalAlign=middle;resizable=0;points=[];autosize=1;strokeColor=none;fillColor=none;" vertex="1" parent="1">
          <mxGeometry x="1820.5" y="813.08" width="30" height="30" as="geometry" />
        </mxCell>
        <mxCell id="HW1hoY80eRV9O5wP7MRS-356" value="" style="group" vertex="1" connectable="0" parent="1">
          <mxGeometry x="2024" y="82" width="70" height="49" as="geometry" />
        </mxCell>
        <mxCell id="HW1hoY80eRV9O5wP7MRS-354" value="" style="shape=image;verticalLabelPosition=bottom;labelBackgroundColor=default;verticalAlign=top;aspect=fixed;imageAspect=0;image=data:image/png,iVBORw0KGgoAAAANSUhEUgAAAFAAAABQCAYAAACOEfKtAAAFOElEQVR4Xu2cO0wVQRSGz+UhIE8tfMRCTCywMJGCRC2MxgITG0wsoDBKY9RGjRZoNEIopPDZqB1GCyxMxMIYCiOxUBMLTCy00KiFESx88FbgXvfcODd7ce/uzDk7M3t1poQ9y+y3/5wz888sqclb7Zn0xCi4pk6g9shjSH3rbcykv35Qj3YRsPxSxgHk6MAB5NDzYh1AB5BJgBnuFOgAMgkww50CHUAmAWa4U6ADyCTADNemwFRZJdSdHIHSFU3MLgL8fHETpgY62ffRcQNtAMvXbwdcaMfVJvv3wK9Xg3HdLrb7aAc493YYJq7tIHe4ctsxWNp2GRY+vYQfF5vJ99EVmHiAmArqz76HktpVMH51C8x/fK6LBem+iQeITyVUiEMYh3KSWlEA9KsQhzEO56S0ogCIsDAPohKTpsKiAYg5EHMhqjFJKiwagH4V/nx6A6buHk7EKC4qgEKFSO5H7zpIwkZYUQH0q3D2yRWYHjxuXYXaAWLFnL5f+EHT46Ow8OWNNIjSNZug/sQIZOZnE6FC7QBlyMwM9cDMULfMpdlrajrvwZKNbZAEFWoDiNWyet8ApKoaQsHgmllVTX4Vfj+9LBtvq2kDKPtAVDWJOMyDqERbzTpAak4TcViJsSLbUqF1gHk57VEfTD84JS0mLCYI0qYKEwGQqiYsJDiUbaowEQD9KlRVk1AhOtboXJtuiQFYtnYz1B19pqwmoUJbhmtiAKJyqDlNxNmw/a0AxDkilFdCZuZ73oij5rSKrYegeu91K7a/cYBitw4n2OMXmv8yBHJqut0Bv0buSKU0v+FqWoXGAQq1IJmgpRg1pwnbn7uJJfXGfBcZBygUhn0otISj5DRbtr9RgP4ch1WzvGlXoAorWg5AdUe/ck6zsflkFKC/ys69Gy5oS1FzGubVhp7PRm1/YwCDKmyYkUDdUDe9+WQMYNAcL8+WOrc6b1pDzWl5m099G5TMWtUCgtcbASjOyQStWcNsKWpOEyo0YbgaAZiD5Dkts57j4m9hRgJXhfh3dG8+aQco4/eFqbCqtRuqWs8pb6hjFcdqrluF2gHKOM44nak9+DDQSKBuqMu8OErOWxyjFaDKQ4QZCSKnqR60zL08RaNWBaxWgDLqE50NMxKoG+pUozYRAPGhcVKrsuMmo0LVnKZ780mbAnMTWs9RmfScFZmmQ4VhUyiZPkVdowUgNfFjZxvOeKdRlzdmjwWjs+JvNd4+85LmduXKSjVqo+Bpm0hTl1NRRSfq94UemGrUWgHIUZ/MCiJsUh72wBSLzApAqvpkKy21slKN2iiIseZA6tILOymjPvEw1Mpa3/U6++EPHtBMT4zlscF1Ov5ctcUKkGpBqQ57qgpF/wpBonxGERtAqgmaVd/u81C5s0tpvUutrFjFF39+VtGyv2Dlj1JkbACp6qMO+zgrK36ShvPFoKmTEYAc9VE9P3ywuCqrdYDUjW2q+havn7nHOqwDpGyGIwTqsPcPqzhUaBUgJxeJZRvnNEEc8zurAMnV8M/ZPu7w4+RfoWRrADnqi2PoCQDcYx3WANpWnwDILUZWAHJ8ttypUu97N8ryKWhuxpkOWQEo1qO4hlwYk//SKOWdC8TTqHGfa/arcLGPGDUZLvMOquOxEKMTaVFBozpX6Pf4tWVc6hN/w390jtIvo2thNABKV9L+pUnaO5mq66tzNBpKIr6OCoKbmZsl/T+G2NbClDf+L8Q4gMy36AA6gEwCzHCnQAeQSYAZ7hToADIJMMOdAh1AJgFmuFNgHAAzXmPe578O/w1F7qBriG6FKAAAAABJRU5ErkJggg==;" vertex="1" parent="HW1hoY80eRV9O5wP7MRS-356">
          <mxGeometry x="22.40000000000009" width="30" height="30" as="geometry" />
        </mxCell>
        <mxCell id="HW1hoY80eRV9O5wP7MRS-355" value="&lt;font style=&quot;font-size: 8px;&quot;&gt;AWS Lambda&lt;/font&gt;" style="text;html=1;align=center;verticalAlign=middle;resizable=0;points=[];autosize=1;strokeColor=none;fillColor=none;" vertex="1" parent="HW1hoY80eRV9O5wP7MRS-356">
          <mxGeometry y="19" width="70" height="30" as="geometry" />
        </mxCell>
        <mxCell id="HW1hoY80eRV9O5wP7MRS-373" value="" style="shape=image;verticalLabelPosition=bottom;labelBackgroundColor=default;verticalAlign=top;aspect=fixed;imageAspect=0;image=data:image/png,iVBORw0KGgoAAAANSUhEUgAAAiUAAABvCAYAAAAzMbDIAAAgAElEQVR4Xu2dB3hU1fb2X68YMEDAiCGgxNCL0jtEBAyhQ+gl9BJApDchICAQSugBIZRQIxBaQidEkF6lS28GJYD8R4SATES/b50558ycaZkZHKaxzn3u81wy++zy7rX3/p211973rf9HD/hhBeyswL///ou33npL819+WAFWwDEKCONOeP73v/85pkAuhRWwswJvMZTYWVHODi/Uaty6exc5fXyQ18+PFWEFWAEHKCB8X16+eVNTUolChRxQIhfBCthfAYYS+2v6xufIUPLGmwAL4AQFGEqcIDoXaXcFGErsLilnyFDCNsAKOF4BhhLHa84l2l8BhhL7a/rG58hQ8sabAAvgBAUYSpwgOhdpdwUYSuwuKWfIUMI2wAo4XgGGEsdrziXaXwGGEvtr+sbnyFDyxpsAC+AEBRhKnCA6F2l3BRwEJWrcPb4WK9acw8NcFdDty/Yo42v3tnCGLqKA50OJCmd37cONtKwoVLueCVu+icMbziIVfijb8jMUdJF+4Wp4tgKeBiWqM7uw9+YzZCtYC/XKeu6C8aa009rRZwFKdmNkhXHYjdqYfGoS6kq5Xl4UhrBFt1AoPBbx4cUtlqVO/hplOq2FCt7wzV0cfVZuRP+SFl+zMYEaqrv38MTLD4G5s9r47iskV6vwa+qf8MqVH37ZXuF9D37FIVByeTFad4zFDQSg57J16KOwJ/WRKDTpvwm/G9jtK0ue9gB3HqXDJ08++GYWcjmPmbWbYOqVIhixOwmDjWw5Eb3yDkACGiHm3jyEvnLB//VFB4+J/1pdfv8/KfD6oeQyFrXphoXiqWPjJ2QcTkfKq4SpBLbZ44WZIQiefg3Fh27Bj4NLmSwy7dYerJoWjcWnfgeU5auvYOO33yBy3Qn8+hzwyl4cLSNnYUqLYtAMYac9xhpY005HVzftwW08Ss+BPPl8Ha6XBSgxPbnaKuKR8VXQLOY+GkZfRWyL12US29EvsC/i683Bg4VNX38fbh+IfD0T0GDBHcQ4oLjX3yD7leAQKLkwGzXrzsZlqnaOtosg2KRoWSqs7VwFA/ak0/+2DxRcjm6AmpNfKgDEXaDEwWPCfibEOb2CAg6Fkn+e4vcHaUj3ygb/XNnxtlBfi1Bimz1aWmd+HFsJHRc/hDDSNU8Txdyf+BVyD/gRnwaF4JN3b2P/njO4n14a4w4koo9Tr3Ax1sBSO1/BFP7jK5cxN6Q+Jr0ciOS9A2F3/4GF2tkBSj4SXdnkpK4c8CvWr96LO89zISh8AFqXyIq0W4cwt38HzDkNlO8xA91KCS7vwni2l9zb/mXQOOAR9uw4i5d1eiG0oGKbhyruV6YNOrerjHzCanPzIDaceYg8Zeshz/0N+H49bQV5F0Gz3l1RK/cznN8yFt0HbEVKuS6Y36WkGZefkP9WrE88gjv0hf1Z0+ZoUjkAmdUpOL5mNeLOPqKCcqFcuw5oJ/xdEM/wtw5d0a7AQ2wZ3RdfJfyqaJMpN/5/tA03fd3RUAIoJpuTk1GxaQxSNNopoCTtZ2xd9D32pPwFeAegToeeaEz2KUCMbL/VK72FU8vjNWn8qnXHwNafAGS/C4Z0w/Tjvmg8ehjq0WVwZVvmQKLkKRmyMQrFj+q/kw36MF/+aAKO//aPwibl7Z+38WGlUFQN0O9odcpxbNmwBQepEYHVm6BVE3EMpF3ahkWa8QVkDaiNjuGNUELjpTMcN+3QvV1B/G7VmHBTI+NqGynw+qFEUaT8UVDMYOEyN5eSZ9nkHF34MY7s3IKth1PwjLJX2rWlxXr3jM44mbUj6r+7Fg1GJutByeMLJ3Evf0Xt+NjYoyi+3AGEmviIvHloI87cp3FdzxeXpDlCM/4bAPukf2ctGor+fWogj0aCZ7i0dTFW/SDU+V0EftEe4Y0/gWYovsI69eG+tqJHaNAazC12HGuEfHNVRe+BrcT6G8xd9Tv3Qf2iJj7uKV3y6kRsufIIfsUaoHmHYM375ucNw9/qoEvfGnjn1EIMDovGUd96GDuqDvxonW4Z5LhNaDtACSRXNonn7YsPcwJ/3FPhuVcJRGzdgYD5gei1RTl+BJd3X1ytS+5tn0AUyHQHt1SisYzDV6jdZxtUQj5ZXuA31XN4fToEO5L6oaRAvvSbl5cXkDknfPEY958SI1cejRPfpqGz9NUsl2Ts8lPj7MxmaDz9EpG1sI30P6S91wM79rbBzd4NqY60ueSbB1lepEL13AslR25Acr+PsL1/MLpteAHfvDnI/P7B02oR2BQ4X2NEusecG//NnDkdCiXFiqD4lWt40GEJzk4rh529a6LXrgoICdqLpL0SlKjPYGbjNph6EfDJLRjoQzxJ90XrxcmIbvirZL9eZFuZkC1XFrwQ7Bc+6LTyPKpvMLRfIc9w3NJAidC/ZEt59d+JCjbwMNL2ZRHavvyLvuRukBcvs5p+L0r279sdm0+PQTWFmajPzEbDZrNxgUzb29cPmdJyos/WJPR9Kf2dpj7/9wilhK9U31DEHpiNqkcHojp57V6Q/b6XBfjnaWWMp3rPtjgm3kz79NRWOx9KUpFgbi6tuVfr2dSbowsuQu4hR2jdoEVW8r6gzlScW9EGv1mxfaPJS1ob9Dwlyk5WH8a4z8OwIKUiJh5dj54f61tAQm9hjMvjPxtePhLmB+HfQJb35PnCCyGzjmFVm6zadQTZ/bTrkG/L+Tg8tyF8X2GdisZQ7XqiW4PIA0xz2rVpfuS1aIlJ17wkj5Qaudsvx07D7az7NKcE05xCa6kX1SvbPw9RY8YdzA0wP280/C0awY1n4GpmP3yQnXxdL/zQYU03cW1WSqT0QDlg8NgRSnQLc+rydigz6qgkajAZqjix6yhVnrRLI3zlGHQv9D68c93DdzXIcO5XxdTTa9DFPxVxHT7H4L1ZNItD1DMRSlA3CjeXtUI29UZ0yz8E22VSl8ndnICqdehYbgSSsoTgux8XoYW/pO6RCfTluxT3gsbjbHxn8sJ8j7Aqo5CcpS3irrTHeWHxedwcSxImk1dHR6cyxZsibwf0m0sX4VAoaRKJGEwhECmLmRuqIq7JFPzeNx4Rd1uTzYlQUiOuM4oP24+83Vfi2IQaAPV5EPV5igC0mythowYwCmLAlh0YVSEzzkZ9gbqzbmrtVbRfJXjK2zfm3jHc9jyBSVVaY+7jVlh1LgohB0VIyUH1PBlRSdGX8tZTFtrq3E1bneJ3meDNietQjsaCP3qu3Y+JQhPGf0Fbor+i6vgfMeFpOE1qT9AmJh5RjSUPn/CapTHh0lbElbNVAadDSYZz6RQEm7JH+r+kUGfOLG29EjyUozUgp+h9gV2ghD5GoxrTeBY8EZuxe1hZoxgJeX2Swwvk8S9/2Ko3hiOgX5IY29LlIsI+pfXBvzPWHx2PGjAAnrO2r1PyWlL4q/X4YVRFZD4zHUEN5+G6Zi2DGJ9WbhD2rR0geX6MLePkpCA0mv+rQRsznjcS/KZr1tTyw7cjfqDk6REpTyzT0Atmq0G+YvrXAiXaybB2JC6vbo8DZqFE4V5XEQwIna0QQs99JxC1ACVa6DAQztIELA8YA2hRSQuWzrOiHy9Q52BTNJl4jr6cvfFRcEdMjBiscZ0xlJi3OMdCCQ3cvrc1X2E36dMmHVUx89gKZB0ngIRoX35STJMxFCu9HjroMOxb81Bi7h3jWKwbC5qi+oTbGsBudliIscptYn9bmpTvG8bCmPi78uuw7z3UbzYVp2lbx/ujWugxfgSG1qeAPktj4hUnDX7NNRVwNpRYmksHQ4oDU87BtN2zLzYGcXuu468AH9zflYyLee0FJQQkizuj3dhjQNBorFnVA2VM7HoYfjQbbRtJY02zRlRJFD9iFW3Qe5+8/bauU0bl6Y3bz7B9cD30XkuxMxS/82nzYZg6vDMqyB/Veh8thh57C/NGZCYM+mIQvn+QLgYCj/wWw7tUpC0ql4YSKSgnnbwLt8m7IHWofuDqVeOTCHqk1zQDT4li8pU9H4W+wu4DQ1FG+NCTSLnkyJ1IDphvc2frTR1ynRrMQMqSFlpalim4MFH0IaJo3ckK2n76YQf60+EiIS5mw9IZmBVHwVJZxK/dPPPFyHD2lBhP0A6HkoWfkY3Rts2WJwjoFYdDY6vTNo4OSgIlz4cu0FoadF60/XGH3JUGJ2leB5TglyUIrToRv/SKRMf9ozDV+2sc3tYb+jF3ZzCtRjPMuKE/3gATf5fdxOQ2vktuYzJSHNkQi8g55H15kAXtl5/ErDwLRJe5g92vrrlke36tnA0lFudS2oLUt0c1kodXRdhqipEdFoGm+R5iV+RUbLWTpySVxogQDvCi7BBs3tTPJJAIVmETlNRKEr0YinVE3v5pvfgaol/aG0qEUxR0Yuf8Hiz/bg6it1zH83KGc4caYsxMQQzZ/gOGC8uY5rFi3hBifZJWYt6MRUi89hzlx+zBjj6XXNlTIruTgZK95mNuZ5pCr69G/55Lac9bDi6UPQv+6Ba7HsMq/Y3DkzqhxxoKAtU0sLB1UILrWNCoDsad/ghhS7/Ht5V/w9yW7TDnykfon3gIEfes7OxivbEptg0+9smLj8Tzm+Ij7+OjBPosjkKXwt7A32/D560d6FBjCn4KaI3l8WNRmfbZmrdYiMsBvbDtWC/4nE/FewU+oWO/cseLsFJrp3Rc7atVWN4+UHFc1PMnP0stdDyUGB9/EicKEXrrJw1DyS7r8Vfl4di9qjOybBmEekOT8Jdm77o4llsFJT5oOH0NvqmWC7kCH2BRhu8kY1ixHlj5pCrGJ89GhxK5KRJEGkvHsyDHkyeoGHUacWGGdy+oaayU1Gx1yuPNG3/jbZ+PcXliRXRc+wJVR2/G6k7vYsvAUAza8UKzzz2nzF3cz1kIJegovLwwaEC+5m5xETA3Jix1JP/uVgo4G0ooYAoNzM6lI1FRGxwrz9EqxLdsQVunEoT/vQ8ja3RFrAQlPotbodLYk8jbZSG2Dq2lP58re8ZETIkMJKrctTFiREMEZJJeMBG0aROU9L2PQaXD8f2Livhmx3J0zpKI/g1GYfuL2nSYIxZtD9q+Tv2xvLH+0Wc9T8mnuPQTxZN8KlxHIEFGivAxRbEiCg3kDynfOuOxenwNvE++/X+zFMKNaebnjVUVUvGTVx58Khz7lT7af9F85LwUocQnBLM2jUS19x10zYbUHsuXp1EATb/6wxBPLh7tQ3eB1IqIwYqewv6cDCVCYFA60qVk3go6NR9Tou+mVp+JRmirGRo3tPhQwGnfZYiPqK4NIDK7fYMTmPpZB8y8KVbA1Nn21MSBqDcggY6GSdlrtor64J/o1mg2WdiikYstgf7fr0ZENTkIUtd0X/rq3EvBinlORqF6q/m4ocmLA12Vc4SrQUkoXWOW0L8p+m1QHB/0pUkkkSaRgsbHew09JSraUy5Pe8qifViz5aOSAqQp6kxxAkgtwdGfXtIEZuo+KKPxJtnWB8bj0JegahsFBD6XPIraPvClOibT/Sj+lseEW626XNkMFXA6lNAX/Vmzc6lg7Mb2GP3O12gw+RKQ3RdZ/skE7ywPcd9POtFzQQzEFIK+M7qrxFSgq7zmGAlmwmtoE5RQgKnROkLhriGz1lMQLJ1QMQIkw60QExpIga7aNupBiRRTolt8UXLoOtrSMYiNoWD+uc3DMOmMdhUTvfiVzc8bBeW6Kta9EZs3Y3DZZ+R5CSLPi5SXgz2tlqFEqDC5eK6fOoJzqWoKR86N0tUqorDWC6GY1LevRePnR3CVvBE1qxcQj0jRo7mIRTiJqb1o7Bke3nmoidPIFSh8RSoeuqjqp2OHcPtxDuT/rCrKyxehaS6wIpHelalNyuNtxQUvwoVmF0/jCh1PLlXU9KVmatVdXDx9ArfxMaqUK6ml77QHp3Ds4C94nPNj1KhSQXchmrY+QM78QahSXldfMa+rQKGSKGrYjjd4AnUIlEiX173U2oO+4KLNKe2LXKDXT+LIuQdAnpKoVqGIdBGadJkRTYjy5WhCv6Y+eamwV8GGf8b5C38gZ9ESKJgvK54JF/Vl9I5cP6WNS3FTB+RTOOZsRLLjY7eB/JXLiV8yeuMQyFu6GsoXli82orHw01EcuP0nGamB/VoxJt5gU/WopjsUSmT7Vs6/2vnezFwq2bD+HP0Mtw7vw+nULChS+zMU+Pue3qVd8tqRydDzbbBm6K8NujXHqINNzBeG65M8/rVlSmuPsg5q1TX8dOQC7sFgPXyFdSpHujjfaPM3mNu0Zb3IbDDuDVtH88ClMzhx6TF8S1REKY2HVrl+G84bujnxhdG6LuZ1/o/3UKx4IfNeqtcwgqyDkgwLtnSR1GuoNWfp0go4BEpcWgGDyqnOYtfe8/gpfjbmHgIFux5FVPDrukTQnYThutpTAYdCiT0rznmxAgoF7AAl8tXDBdB7VRysuHWeO8DDFWAoMejgywtQvz6djkn3RtGus7FuUoh0CZOHGwI3z6EKMJQ4VG4u7DUpYAcoeU0142zdVgGGErftOq64GyvAUOLGncdV1yrAUMLGYHcFGErsLilnyApYVIChxKJEnMANFGAocYNOcrcqMpS4W49xfT1BAYYST+hFbgNDCduA3RVgKLG7pJwhK2BRAYYSixJxAjdQgKHEDTrJ3arIUOJuPcb19QQFGEo8oRe5DQwlbAN2V4ChxO6ScoasgEUFGEosSsQJ3EABhhI36CR3qyJDibv1GNfXExRgKPGEXuQ2MJSwDdhdAYYSu0vKGbICFhVgKLEoESdwAwUYStygk9ytigwl7tZjXF9PUIChxBN6kdvAUMI2YHcFGErsLilnyApYVIChxKJEnMANFGAocYNOcrcqMpS4W49xfT1BAYYST+hFbgNDCduA3RVgKLG7pJwhK2BRAYYSixJxAjdQgKHEDTrJ3arIUOJuPcb19QQFGEo8oRe5DQwlbAN2V4ChxO6ScoasgEUFGEosSsQJ3EABhhI36CR3qyJDibv1GNfXExRgKPGEXuQ2MJSwDdhdAYYSu0vKGbICFhVgKLEoESdwAwUYStygk9ytigwl7tZjXF9PUIChxBN6kdvAUMI2YHcFGErsLilnyApYVIChxKJEnMANFGAocYNOcrcqMpS4W49xfT1BAYYST+hFbgNDCduA3RVgKLG7pJwhK2BRAYYSixJxAjdQgKHEDTrJ3arIUOJuPcb19QQFGEo8oRe5DQwlbAN2V4ChxO6ScoasgEUFGEosSsQJ3EABhhI36CR3qyJDibv1GNfXExRgKPGEXuQ2MJSwDdhdAYYSu0vKGbICFhVgKLEoESdwAwUYStygk9ytigwl7tZjXF9PUIChxBN6kdvAUMI2YHcFGErsLilnyApYVIChxKJEnMANFGAocYNOcrcqMpS4W49xfT1BAYYST+hFbgNDCduA3RVgKLG7pJwhK2BRAYYSixJxAjdQgKHEDTrJ3arIUOJuPcb19QQFGEo8oRe5DQwlbAN2V4ChxO6ScoasgEUFGEosSsQJ3EABhhI36CR3qyJDibv1GNfXExRgKPGEXuQ2MJSwDdhdAYYSu0vKGbICFhVgKLEoESdwAwUYStygk9ytigwl7tZjXF9PUIChxBN6kdtgGUrUKdjxbS8MiLuMJ+mAV/biqD/yW8zsUhHZMtAv7dRC9P5yLvb8+pxSeeOjKh0wYfYQNAjIrH3LmjR6ReyOQLmIvUDBbohb1xPFtT/uxsgK47AbBdB7VRzCpR9SDyzE2AnzsPPnNFDVqfLZEFiuJcbMGodGH9O/Ly9G646xuKEsxDsfPgvthF7hjVAioway7ZhVwFFQknpqBaZ9MwcJZ1UQrEywzZaRszClRTHorExXzdTEoWg14TCeG9mPYVNSkTRxAEYuPwGN+ZLdfNp8LKK/baWwiWc4teAr9JqxT0zj/SGqdolA9LAGyKdXuBp3j6/FgqkrsSuFEoaMw+nIuhlaTxq1a/DIKMluveDzSRNMmTcJLYpKGcvjwCiX2ph8ahJM5256jAhZ7B5VFSOTgELhsYiXBo/66kaMHzkTa479ptFWGMO+ZSpi6LgV6F5J+PdlLGrTDQtv6g0eBHzWGN179kTjEll5hDhYAUdBifrqTkyfNBnLD6Ro1gTB9ut8ORlRg2sgj9xmYd2IGoox8hgyTGPWhoUM9OdxIxkN86bx6V+iGxbvGAyNaSIVp5bPQMT0HTir0gxgO40hqSZU/vE1izA59gcIQ7rupKOYrBx0r7BmmhqDmtJMrXnqK9j47TeIXCfNT0IX+JZCtcGjEddNVODyojCELbqlJ513QDU079oN4Y0/yXDtdrDZGhVnAUrUSB5eFWGrVUKr8WFO4I97wgLgheCo/YgL05qgfsY3liA0eCKOppMx5H4f3s//D/efkvUGdMfm/WNQTZhbrUljWN3Er5C7zzag2EAk7x2IktrfE9Er7wAkoAhG7E7CYOGHC9EIbjwDF6hYb988eC8L/e2fp/j9QV4M0qaZjZp1Z9P0auLxLo2I9fHoX9bU8ubsbnPt8h0DJXKfG9gYPkL/xEOIqGig0X1KH0w2QqZsbD/6aS/MDEHw9Gvwyl8dzSrmxv+d3YXka2T1dabi3Io28BXMd3Er1Bp7EunChJjLG88fPdRM0AG94nBobHURii4sR4fu0yQwl8poMgcPFjY134FauxVAvgaKPT2EAwJU+4Yi9sBsNBQKl8eBUS6NEHNvHkJN5m5ijEjpEnoHotcWoPjQLfhxcClAtR39avRFPGnlld0PH2R/m1KqNWM/ZMEdxGiqfx4zazfB1CsmBw/KjYxDQr+yJuHQta3XfWvnGCjR9btmXsWf+E1a+ENmHcOqNoKBqrC9fzC6bVBpPhRq1MiOK/uEBdQLJUduQHI/sjGzNizor5jHjbojFQm9G5K9imtSmSo1ke/5OZz8uSTGX50t2r6ct8HYpMGJbcdGQjM1vNIYoiG9rCu6TJI+RKS6hWrHhPCHV1szjcag3G6jNU+nrfCx5J8rO4TR+dfjVKiCdXOLPIeZHJ1lh2Dzpn4o46JLW8ZQ8gvBRVWCCzKSIdu3Yjgt0Kkbw/F5vyT8qexgg5YnDy9FIPMEORrMwP4lLZBHfQbT6jfDjCtekA3XmjRGgtoAJUfGV0GzmPtA0Hicje+sIPhnSENWZBM65IIMJbpBoE7Zh8k9emHBRVphjODHfScsR9bcIVCi3o7Ikc/RaHQTlPKlzlQfwOiqnbCYuly7uGobnYq4Dp9j8F6Nv8xCv8qTbkGy+R/I5oU59nuEfToKyZAX/WQMK9YDK5/4oGH0bsS2yAP1memo23AeLnvVxpzTsWgrw8OAH8k7F4oy6auRcJrysgAl2nHRdhGEiSUzrmNBozoYR+9WHf8jEnoG6nclja2Zjdtg6sVsCIn6HkvCTHuJaBY2BncpJ8MJURXXGcWH7Qf8O2P90fGooZ28aOyk0djReBB1i5NWb/pC3DelNzrFXCLPZEYLiyOt8c0py1FQsoy81R9174k6BQRvWCqWt66KEYcUtq1dN0pj3IFE9ClEwzNpGEp2WY8/fdoi7soUBJvoFm2aDNYWbRpfGovJBOD+xhmpt0/F18/qYUzT0hCnhrGo0nYF7pmzSavHEAiIAtFvXwDKtyyF9GXb8BMVrwclr7hmWg0l2rnIHz3X7sdE3eCksfmMxqboodRCiXYNI4/tvmno2nWp5kPdeI50nXGSIZRoJ6dCX2H3gaEoI9RbvRHd8g/BdrOTzmGMKxeGBbQ4NIy+ShO2OKOdjfoCdWeRr1czKeeyIo2Jr0kboESe3FGsM9YuH4Vaim0jrfwmoETz242FaFBjChmcP/psOIZx1Vynw9yhJg6BEiMhCHxrEPjSXpzh4i17Nfx7dUfJmKXYniFsXsbckPqYdFHhDZQnAnmyPDIBZVsupUkuBN/dXgTRxHXlayepNBVU7/hqJkZ50skYSn7DstbV8TVN8MpJQzvBGAINTaZzm4dh0pksxN5L8X3PjDwT1kPJL+QFqkReIPh8jkmbvkMPk1sxJqBE0yc6iMpLXqMz5DXixzEKOAZKDNuixsYeRfHlDiBHhyW4No1w48fRKN5+NflLlJ478/Yn5qj7cCg/Zg929ClsUjR5XrdpUaUPhiD6YLhOPpKJR9ejp7B1Lz82jSEgTaXCO76+9LEgt0cfSl5tzdTND0btMlzztNDjg+AJaxDT3fRWjDGUiA2+saApqk84Rx8ctGtxmnYtHGOaNpWSIZRoG0YejxTyeIh4Qa7dQHLtEm3pu63kcuXOUnxp0k+Xoxug5uRL0ldqfszTbLdklEa5PSPlbQOUqJO/RplOa2lgCI/gCm+OfkO6oWX1Arr9NHNQAtNgZZOyb3BiZ0CJ1oOn9FQIfSBvhxQgsN5ZGAvyk91Z8IClJg5EvQEJuJ/ujaJNwlH3r5WYu98HnRatQVQIbVnKdqiEddoEFGHG9FeIdVBCo6t/EXJ7p8Or9ngcWdqZ4lPU5KjpS5CSbODh0bmxs1ULx4xBbRGstG0j+7MeSnRbq0Imwn58HfTpH44uIeKXp/iYgxJA66XUmzfe4AHhoKY7A0q0HkLltull2jr/grbO6W891+6mr3n6ek87ivEN2uE7+mgwuW6cnIyKTWOQYjh+9bTT2Vy94fNQ+uF67E66RuOiMdoNpG2VCqbCCVIJmuoSND3R234Vs7V1DCkrYxpKXm3NtAFKCK0WN2uI0cdFr68mxrNXX3zVpY7oMZYec1ACkx9UDjJQK4uxDkr0vtB0hpExlBi4b/WAQoaSjNL8NygR9vbu7piBPhHLcfKB5LYX8KRIB8SsnYgQwe1nFkrMT7hW6vpGJ3M0lKhT1qNPyDBsf+JLE952inmQJifZLXutEEZs3ozBZXeJWxiWtuXuH0Bkjz6Yc+X/UTzUczGINn8oZsdOFYNNzcCxWRcsvW8tlKiPTEbt9jG4oQkgJC8LYbVmy1549OqtmxRlY/MNGo01q3qY2akhI1YAABhXSURBVCu2AUooQ02w7dCpSKRYGvnxyv0Zvoldgp6aOCvzY8TshPhGj4rX33iHQ0naSUQ2aUXjhGJFhq7D9sGypy4Vazt/gQF7pCBTXy+8UEmHDUgG43VDjaTBFdFxLW35a7ctTellEMfk5QWv9HTxEAONlE4rjyIqWBkoQWtAfD98MZDCDUxu99g6hpR1sgAlNq2ZtkCJMDhPYvnQURi/5boUhC5MUH6oFRGDFZK31OwYNLvmvX77tLYE66CkdiQur26vCfDT7U17ofXia4huaFiU3Fn6Wx9akT4dgh+TAjBb4ynJKE0/xekaqQwbPCW6Wj3DrcM7sSZmFpYkiycJtG5Gsx1kyRtkrbxvZjqHQok2gNVwYlTj7MxmaDz9EvJ2iUFceBFkwkGMrfYNdhXqgXUrO6NUnnyKL3+5r86Tx6MleTwCNXFUAz6+gsSJQzFiLU0AXp9j5rEVCDsuBVzruUB1E2bJkTspmE93NkzI2VooEdKmXVqP2ZGrsImCSIuH1Ea151vxbby89Slvaz7Dwztp8M7zDh5fTMCIsG+R/MSLJvwLBGWmIthsgxJRDfLSnD+IeDrJMGOTePoOlUfjxOYe+DgDKJG9PZbiZ97M0fH6Wu1QKNHGYaTDlxbgvRS8reenEOKLYudgzpojeJSrNOo1yY+zoxbQCDQRa6Q99GAmSF0rmcJTMv00FrWnbRQqJ75vI/QTPCEt5+PuXN2ClErrRW06GKHyKiF9lBiOC1vHkA1QYtOaaSOUSNVQq87hYPwqTJ61BReFgySK7SmzULJ9IPL1TCCQyygo/vXZqDU5ZwglaurUQtSp6crJVxtoUwIRP+xAf/25l8rUGU5w1Gk6oSOijOzSFQ0nnzZy33waI9rRfaEaBkspgou0p2+MWq/GgTGfo9VSCnaRvzjNQInFwChrlH2D0zgMSsijMa5TDwpKpkOEHeZh07QQxcSY0ekQoXPMBGLK7k09r4SKAmXLUaCs9JVXQA6QJki5SJCiMXF5y880rNsCJfqmo/uKzGgfPSMvjZifDCW0DbXyPH1RyqXcIXdwTXIHZxz8lrq8HcqMOkovyZOZGU9JhgHHb/CgcEDTHQYldCQ1Lrw9Bu9RIWPvnKLRcpyeF9nPVQpQVfDByUlBaDT/V6Dc1zi8rTcoLtbMo7NV5bqhXYDpdNx1Oh3nQ2+nHpiAjp0oqBOBum1XC31geQxZhpJXWzN1UKL9YJaK0sZ3ZeTdvb8CLcuNJeDTeaFMQ4mJNdABdmlrERmfvlGtQ8dyI5CUTm7x6ATMbfE+LkQ2Q8N5tI8nG5AQKBTWC0vvfYKBMcvQlY7jykbm9elXdPRoKEqqZPe6D9ovP4lZIZmtSmPUGG196Kt40ArE969K3hsi8ok90HYp1UkBK6ozx3H7vUAUDcwtxpCk/Yz5HZvhW9qLM/aUFMSX3y9B50Dg+fVEjBk0G4eE45BEuyfIQ2Tm4LOtWr8x6R0CJeTCnEZBnjPolFRgixlYOKQcHU+UnrdzIE++J9gzeS6SHihl/w1H448jxac46tWriVaDRtB9NcL9HfOREtIeX0e2RUkZSsgrMvXAInQRAqTT6GRPMJ3sSZGB4wQmVWmNufTvkoPo6OuwUvhDdhP7tMKqc1EgE9d7TEMJeXOiO6FzbCpK9p+H1V3pqOTNn/FTtkCUzy1G0aedmo7QlvMoYl53kgE3T+LIvwVRvrAQcEf+DO32VUaeEhW51KuQS53iVWhcxq/th6oEU3f3RaJj2AqKiFHAipC/2h/FCkqeJPoa3TmqPbqsoYXDhKekcO/lWN2Jogef38CmcSMwVTN4JK+SidMRb8xAcHBDHQIlZAsbB4TiSzqSm638ACybFYqATHJDvZFLM9+qcPX8I3xQtIjoiVS8Y7Q9oyJYrkZec/Ly6Y4U64QT7u+YmVIbXUZMQjtaW+RATa9PB2Lr1oG0VamLGQnoG4+TEZUUYyYAraJnY2h57cyATD558ZFQKSvGkPpMNNp2W4V7Jb/EkpVdFFdQCPUzvX0Da9ZME3ahWtcNpQftpSsGSmDImtUYIAxOOgk6oUtXLCaPqQ5WbuLU4RfwL15IbIcQprBzDJp3j6eVUBfIq4USjVc4jNDsOa5vmoD+049R71i40sPBdmtYnMXL0y5QgGoDClDVRWVQFrR/1X3JQUQK+3dab4Ppew6UBXoHjcOe+C4iCSvuQjCbxkgcnUterz6adPrxBGbPadP9I+M20zE1zV0m5u8p0Ys9cXInuVvxDoGSjO45MPtVIU0kyt/loDwvugfkDt0DQp4+cftGuClQ/w4S3UQomO9AVCc3qBhIrZuUgyYlYmNX45MDpqFE4c2R66S4Y8E3czpUGreswdaUmbZ7lx2BLdv7GEyeutqpz1D7ms3WHAk0fPRc8Oa0pXHffv4uzNJclpKBJ8q7MLp/txKRQlAwPw5TwCFQksGcacqL5k0nVUAnVjSRSSbiOrSnQZR3WGkV052E04YKKNcNGp8+mdLwRMhckbd2rJlQXutttGIM6dYQU15VM1AiLCuW1kxTFqHYDjMenMrjz8ZxMGJ6L/i3nYV9MxtqwizM31NCwftdZ2PdJKVX2WEmalVBFqFEILGrOxdgRvQ6nHpIsXcBX6D/xJForT0meBMJgwfh2yulMCVWCiAVir5PwTjRUViy+y4Z5Aeo0H0QxnSrpX/bpTVpjJohnLdehunR63FQuE6Png8o+rr7qAGKOtE4OLMJy9cnaqKzfxdToXhoC/Tv1BaV5ePBv2xD5Ky9oA0d3eMdgM8aNkH9DE8yWKXtG5vIIVByIhb9v6d9G1NP7toYMrIRxT0YPiewdOBanFP+Lk1Oel9wmv3wGCzZuheXyeZh5pZf4UbZ6Ejppla/cug5bAS61QoweWHYidjBWH2e8irVFnOlWxeF2t2kW2a/nHAN5SNjxEWcPHpbF8ViacIRzW2Rwi2MYf0G6OcrjJslS5GQdE6TBn5F0Lz1l+jcrrLBbbLG4gj38MTOWoC4g8K4lN7tMhwDWyuOFt48iIVr4rBLzp9Orxnf1HoH24w8Ue8isHp9hNYPQgG+Ddnh498hUGJqztS29FN0mN2NblUVbzFeEb2R4qKE2VeYezsiYqDyRmThpWvYNH4hfvwDyFWrD75pagjz0gJs6H00WDcM89aONRM94B/cH6MaBYrrk6UxdDMRg/pNwaWy47HcaBGX5hIqo3T7mdItx3KBltZMM6ahiMMRlzZTut3E4YXrsCzpB5yW1j9TN7X+sm0qZiTruYmRleaSxqH1UU1zv4zrPlZAietWnmvmmgo4BErs1HTx/hy16Vtg7VQGZ8MKOEIBh0CJIxoilyHdL6KWtmUcWTSX5TwFGEqcp73Hluw+UCIFsD62FGDnsV3FDfMgBTwNSsSLyB5rb4X1oK7ipmSgAEMJm4fdFXAfKLF70zlDVsBpCngalDhNSC7YqQowlDhVfs8snKHEM/uVW+XaCjCUuHb/cO2sU4ChxDqdOJUNCjCU2CAWJ2UF7KQAQ4mdhORsnKoAQ4lT5ffMwhlKPLNfuVWurQBDiWv3D9fOOgUYSqzTiVPZoABDiQ1icVJWwE4KMJTYSUjOxqkKMJQ4VX7PLJyhxDP7lVvl2gowlLh2/3DtrFOAocQ6nTiVDQowlNggFidlBeykAEOJnYTkbJyqAEOJU+X3zMIZSjyzX7lVrq0AQ4lr9w/XzjoFGEqs04lT2aAAQ4kNYnFSVsBOCjCU2ElIzsapCjCUOFV+zyycocQz+5Vb5doKMJS4dv9w7axTgKHEOp04lQ0KMJTYIBYnZQXspABDiZ2E5GycqgBDiVPl98zCGUo8s1+5Va6tAEOJa/cP1846BRhKrNOJU9mgAEOJDWJxUlbATgowlNhJSM7GqQowlDhVfs8snKHEM/uVW+XaCjCUuHb/cO2sU4ChxDqdOJUNCjCU2CAWJ2UF7KQAQ4mdhORsnKoAQ4lT5ffMwhlKPLNfuVWurQBDiWv3D9fOOgUYSqzTiVPZoABDiQ1icVJWwE4KMJTYSUjOxqkKMJQ4VX7PLJyhxDP7lVvl2gowlLh2/3DtrFOAocQ6nTiVDQowlNggFidlBeykAEOJnYTkbJyqAEOJU+X3zMIZSjyzX7lVrq0AQ4lr9w/XzjoFGEqs04lT2aAAQ4kNYnFSVsBOCjCU2ElIzsapCjCUOFV+zyycocQz+5Vb5doKMJS4dv9w7axTgKHEOp04lQ0KMJTYIBYnZQXspABDiZ2E5GycqgBDiVPl98zCGUo8s1+5Va6tAEOJa/cP1846BRhKrNOJU9mgAEOJDWJxUlbATgowlNhJSM7GqQowlDhVfs8snKHEM/uVW+XaCjCUuHb/cO2sU4ChxDqdOJUNCjCU2CAWJ2UF7KQAQ4mdhORsnKoAQ4lT5ffMwhlKPLNfuVWurQBDiWv3D9fOOgUYSqzTiVPZoABDiQ1icVJWwE4KMJTYSUjOxqkKMJQ4VX7PLJyhxDP7lVvl2gowlLh2/3DtrFOAocQ6nTiVDQowlNggFidlBeykAEOJnYR0UDZq1QM8y5obvpkdVKCbFMNQ4iYd5U7VZChxp97iunqKAo6CkrQHt/EoPQfy5POFXdbT3REoF3EHvVfFIbz4f+mN3RhZYRxuhsci/r9l9F8qYfnd+4noV38Y4h+kU9oiGLE7CYNLWn7tTUnBUPKm9LQD28lQ4kCxuShWQFLAUVCS0DsQva4NRPLegbDLWpr4FXL3uWaHxTkRvfIOwNWhW/Dj4FIuaxdHxldBszWlMGvrFNTzeQbkzPf6vSW/bEPkrIcInt0NlZyizB1smzwXD76Yie4WKsBQ4pQO8uxCGUo8u3+5da6pAEOJe0CJ3aHOGnM8MgFlWz7A2HvzEGpNerunOYxx5cKQOvYOYppmnDlDid3F5wwZStgGWAHHK+AsKFGd2YW9zwqjZZm3cGTnFmw9nIJnuUojrFNbVA5QbPCoU3B8z07sSb6KZwFl8EW9FggukRUw9JSozmLX3pvIXrYFqheUdDT1NzzDpa2LseoHobyiaNLcF+uDhxl4StS4e3wtVqw5h4d4F4FftEd440+QTcpWnXIca1auw+lH9AdNHh3EOhk+Nw9iw5lnKFS7Hsr4Sj8a/k349/XsqB30Dg4v+h57Uv5C1oDa6BjeCCU0BT7Dw0tnsGR4B8y5Vw9jR9WBH7KKef4hvVuvMO4n78Klx34EEZ9BaH7apWSs3rQDl6iO+vkJeapwdtc+PCvcAqXfOoSdCTtxkMr1K9MGndtVRr7MaqjuXsDpxRMQtgQIn9sJpemtPEptDdoqaLJnxw9IuvIMgWVroV6LYKn+gpZbsT7xCO48h6IMXQZpl7Zh0eq9mt+zBlRDaMvGKJPtIS6eXooxnZYDPWagm+DE8i+DlkFy5+pXgKHE8XOHx5fIUOLxXcwNdEEFnAUlF2aGIHjRY/hneklrTU0UzfUAJxMO45Z/L2w7NhIVBa3kOIqn2VCmCqV591ccz9kZx6MaGkPJhdmoWXc2ii5QfFUb/U2N5IjP0HVZGvILi3qu/8PPO4/i4tN0FNdu36hxdmYzNJ77HFVDq6Og9684HL8fvzdfgrPTgpFZtRHdKg3B0SL1UKeINzGDok6G/Wtqi8nwb5p/74W373soXbUyAkDl7TuBhwUGYuvWgSiTWYx5SXicCtXLbPDPlR1vo4AYS3NN3MIKCnqEQ6eBD7PUxjcXp6My5Vm7TxK8ytfG57SG39q/Fyf/DkFMMnk8/IVKnsfM2k2w8A8/vP23P8oFF8L7qaex+eAd+PeNx8mI7FjUphsW/vwnflMBvnlzEJoBdScdxeS6xkacmjgQ9QYk4Em2UqhGeb2bcgo5ux/A9IaSltPvaPU+u20/bmvbRnmdjEL1Vovxb+VGqJiH/v3oBu5Wm4jITFMRtugy/rgnVCAP3stCv4WMw+lIExWgnxhKXHBycfcqMZS4ew9y/d1RAadCyfQARF9bgtaSC+Js1BeoO6s4YjTbBWokDa6Ijjuq4LsfF6GFZjFVPIaLuzVQcmMhGtSYAozZgx19CouZqQky8g/BLRlKNGm+Q9HlJzErRPTYqOI6o3jEe4i9MxsNNeW+0Ku32X63GkouY8j2HzC8rFQl2jYJarkKxWYdw6o2oovF5PaNJv9TaBMTj6jGAWIAsToJg0qHY3uDRRDAT/xbMoaV74G1QXNwY2FT+psIJVM/jsLNZa0kD9AZTKvRDDNKzMEDSqN5NPlD6g8zrZTLC5qB/UtaQOAK7WNK7xtLEBo8EY/7izE8GjjdUBvbj3yNCkZFiFtrUIKmmWowlJi1Qv7hVRVgKHlV5fg9VuDVFXAulBTRW/A0C9R0+W8mFkllM18BStQbwxHQ745BcKx+TImY5l9MOxKBz+Xy9k9C5ZEp4nvviovq1RIdMCKiG1pWL6Dd1jFeU00E45r0lBgG7IqxFEuD5uPuXPIKZQglBu+emY6ghvPwicFCnjy8FMK2NEDclSkIlqGkiAJATP3NGigxU56GhUzqfQeLm9XEaPrPic094J/8Ncp02oSc9b/EqAGdEFJKeTqLoeTVRza/+Z8VYCj5zxJyBqyAzQq4LpSIC1JCE+XCqWjeK0CJCD2B+O42eV60YSv6UCKm+VW7ZaErsTYmn5oEYfMg7dJ6RI6ejTXHfsPL7MXRMToWkSF6PgLxNas9JYZQInkyFNBg3lNi8K6mTH3Pi1AVfeAzzl/e0pmqBBVroESTZhtCTXgzTOtt6PWhmJN9yzAhch52/pyGTB/VwqiYhehZVugghhKbBzS/YD8FGErspyXnxApYq4DrQom0cBaYgRTaFjC62+QVoESEBMMF2+D0jSbNU8y8uAJhcnCqGTHVqnNYM6grRuyvIW7tGKZ7ZSjZjn6BfXGm72YcGibu6VgNJdI2VoHoq4jVkRe29y+Cboc6YvPpMahmT0+JmfJ0UGao92XMDamPSX6RuLy6PZQSp93ag+m9+2IB+uHHpH4ozlBi7TDmdK9DAYaS16Eq58kKZKyA60IJxUBOCkKjxT4YsmE9hlcQT7eo1WpkzkyIYrjg/0LbKlUpVkERsHp360g06bUJleSveNU6dCw3AqfqzcFeipsQfBtpt2LQJWgyHsnvSWnuhq/HtlEVdSduVCr87euLd9LojpBsWbWQlLq8HcqMet903AVtTRShrYlaCy7QkVYBq+jkz+z2qDXtL90WklFcCHkOloej2qib6J14CBGaiF8boAQnMKlKaywsNB5HlnamkzSkWcoKdKsxFtd6CkGswoUftnhKLN0FI5Xn8xU2bxqKCpr4IDX1U2ZkfibqfaXjSuybUEOjZdqBsajVdo02XiaN9MxGeoqPGgfGfI5Wh9tK99lYf1ybY0p4prO7AgwldpeUM2QFLCrgylAC9RnMbR6GSWee0+kUOoEBOg1CAKEJxLwQjeDGM3CBLjgVtw6uU6xCQ4w+nkncennxFP+U/BTv7T+mdyInVXMyZRvSsvvhA+/n+ANFUSzzT/irte7ytJvrwtF8RBJUmSlN9reBf57i9z+CsZC8IQWiG6DmnPv4MKcAGf/g6aPH+Lj/OmwfXNbYmyMFmK5ME0/N4OlT5ChXHE/3/4mO8o2sGig5AP/cL6F6ng0fvJOmOfFSbmQcEvrp8rTaUyIs7WeiEdpqBi6+LdSfin30EC8/GULQ0I9O8wgmYSWU3FiOFvXG4dBzb3iTViEzTN8XIpd3mtIJ2oNOCtWQ0upO5ggnaNR0miYNPi2jsGuuCIWCB6f37pyizgQlf9yjQzYLtlN/Cr9ex7LWTfH1Iep/b288D5b63oRVM5RYHOqcwFYFGEpsVYzTswL/XQFHQYnhNfNq1V2kPvFCrsDcCm+E8d/kezpOXHpAF2UUQ6XSn8BPOq2jyfMvwDtXfvFvmjtNTuLuixzI/1lVlM+die7buIeX70m/y9/jtO1ycO8NvMhTFjUpUBWUz+N38uIjxf+hjFp1DT8duYB7L+ilnB+jRpUKUrl0h8f1kzhy7gFeEIbkLV0N5QtncHV+2s9I3nUFj7PkRulqFVHY9yUe3lEhUx7pRlatx2czOqQfxYHbL5C3XC1UK6B/74nJa/rTHuDOo3T4yHkpzYF+++nYIdx+TNXPH4Qq5XU6C4u/oMsTLz8E5tZ5KYz/Jrg2hHwuAIWKIr+pcuQyKd2lcydxKRXIW6IiSpVQ9quspSm96B6Wn4R2/0k5yf2mbLv4+3m6faVYfv0+UjaXoeS/zwWcg4ECDCVsEqyA4xVwFJQ4vmVuUqLdrst3k/a+pmoylLwmYd/kbBlK3uTe57Y7SwGGEmcpL5XLUGKXDvj/zdZGwTfkkP0AAAAASUVORK5CYII=;" vertex="1" parent="1">
          <mxGeometry x="1477.5" y="-70" width="685" height="138.5" as="geometry" />
        </mxCell>
        <mxCell id="HW1hoY80eRV9O5wP7MRS-375" value="" style="shape=image;verticalLabelPosition=bottom;labelBackgroundColor=default;verticalAlign=top;aspect=fixed;imageAspect=0;image=data:image/png,iVBORw0KGgoAAAANSUhEUgAAAnIAAACECAYAAAAUesa4AAAgAElEQVR4Xu19CXxMV/v/9/erjjY0bdPWVhS170IQ+5KE2tW+K4IgsdOItSSxRgiC2LeqnTZFpChaSu1qp0oreNu01dCOn/7f/3Pv3DtzZzIzmRuZyZ3Jc9/P+/no5N5znvN9nnPO9zznec75n//SA34YAUaAEWAEGAFGgBFgBNwOgf9hIud2OmOBGQFGgBFgBBgBRoAREBFgIseGwAgwAowAI8AIMAKMgJsiwETOTRXHYjMCjAAjwAgwAowAI8BEjm2AEWAEGAFGgBFgBBgBN0WAiZybKi4niC1k4fzy4IHY1ILvvIOXXnopJzSb28gI5FgE/nr6FH8+fozcOh3e8fHJsThwwxkBNQgwkVODFr/rUgQEInfl5k2xzpLvvQfdyy+7tH6ujBFgBFyLwB9E4u4/egSvV15BscKFXVs518YIuCkCTOTcVHE5QWwmcjlBy9xGRsCEABM5tgZGQD0CTOTUY8ZfuAgBJnIuApqrYQQ0ggATOY0ogsVwKwSYyLmVunKWsEzkcpa+ubWMABM5tgFGQD0CTOTUY8ZfuAgBJnIuApqrYQQ0ggATOY0ogsVwKwSYyLmVunKWsEzkcpa+ubWMABM5tgFGQD0CLidy+tR7uHTmGqUhlkHxgkXgk1u90PxFzkCAiVzO0DO3khGQEWAix7bACKhHwA6RS8W5fYdwM43O8KrWAXXfNxWeenYfDt56AhSoio71FH/IoP6LS9qizYzzeCq91y7+Dpa1VS80f5EzEMgOIme0bbyFSq0boYzFQkN/7TA+v/gbKSAPSjZpjqpOPerqAmKatMGsq4DtvrIbgwoNxy6Uxvj9SRhVKWfYBrfSMxFwLZG7hW+2nUOKPShVznGOa8WRvm0qLe32MRw+8xD/IB+qdawP5aybdjkZG3Z8icu/0vteRRHYMxity+dxXJRsfZPHr6yA3w6Rs21oF2OCEDD3OtBmAR4udZSJJWNs2QFY91iHSn0mYnD1POkIYlY0yLyMK1jepR+W3mqC6O8j0SzrK7Bb4pXlPdBj+W00izyOaFdX7uK2OqO67CByRtuGDv7TErEruJSiaTeQ0L4lJn73jH7LauJkzVYdGew1PBBeSUDnXqtwM2gqzkRxB3BGH/G0Ml1L5OS+YwdFh+a4zMwzjvRtPe59txnxMxZj/elHEEYdoBWW3V+EdpLIJ6MboUPcHelvcjt80DkhGXEtnbrKzITp7Ud4janY/34/bPwsGOXEEjQ8filbuD8CvhEHUXLgKmwZaJBcS48LiVx2KEyu09z4XaWAXYOLYdAee94UV0ninvVkL5EjzIr2x86vJ6GO5JXTfzsd9TquxF0RzqwmctZs1ZHBPjv6lYP2tHsY8od8oXLB52DZ/JpHIuBaIqf0yD3CvqhZ+JwukinUcjwimuUz4OuQRy4z84yavk2ONi8vPKVbLyyJ3K7B5RGDgQjtFQi/N+9jzYihiL9ElK/WRJzcOQDvaclKLsaiUbNYXCk7AskHR8CweaDh8UuBnbzALzdmDw6PqqwlVEVZsoTI/fTFLMxLfoj3g7qg4DfzsHD/Pdo+fQc1hk1CTF8/5L11FEs/XYSVS76jSdAbFZsFoMLrQJXuXYFNm3HeqyaCJ1TCldjZWJlUCuFHJqIROby/X7MYM1Z9hbuC/XoVQfNhUzChcwXkFSQ/uQphmy4hT+1u6JXnG8TGf4bvH9Hv+eoiYn4kOuQ6gpjYGCzdfgV/ojDqdK6JIqiInrH9UDOdGp7g8ucJijJ8ETJxOoLr0IrmwSmsiZuDFWKbBM91U4TNCEdnyXWtv7Yd08KXYJ8oJPBO2a4Yu7AV/rtmIWYu341Lj4kP1PkQ/nRIeZXuMeifvnLNGYVWBMp2IkdeuaD5J7C+i7CyTcXmPrUx/ACg0z3Ds2dKImffVo39o0V/1L7/KaIlm/Yq3wVRs0egwZMDNmy1Bo7JW6uxiWh6fprUt7xQvvsUzBnVAAUtB8Ii1Nem78Tlf83t7ebuGVh4KJX4Zxt8MqQR3rBQctrlL7B84XJs+P4/ghWjxqDxmBlcFz7Q49reeMyLk/qX8Lf+IzGpX2MUEQluCo7Ez0DkyjMQvhT6af0hExH21kHMn70KW38QOkAtdKn9LlC5Kxb24w6glf6lRTlcS+SUCJiIVbrJWn8VexfHIXaTZOP5fBE8djz6NS6K3Lds9d1+eOtALBbGf46j0twgzmHDP8GUDmWRG44QuZP4NOYu3mvdBNUvT0ZRYVFk5pF7jJQHL6FgAdM2qnFHwYwsmdqpHIsq31qCmVK/fafBGMwf5oOvZ89HgjwGDJ+GuF7VSFZ67GEgTsejsOHCq/Dv2R15jyzBIgkrodyF0R3wzuVNWBK5BHHf/gx4l0Pz5uXwev4mGB3+L6Kk0JDRG8Px2mem+huGz8ZMESsag7ZPx/gFEhegMahcrzDEDQ+g8cnykbyYs9YZ5mQB89HRiGorbEZnwCkeHEH81LlS+4W5vg6GTotAuQtLMS1uOb6lFfzrFQLQvII3CgSEYUKrYprpQllC5EzbUdR4n4J48xU9fr+fSsRH2p7Kt8CwMrd42sUvAEKE+B4fFMifhgcPBeex4D2bh7zj/NFjA008urwo8LYOj6XyKo35DImjyLjk1T7dySf8z+dtWrH8+giPqQhd4Cyc//AoyqWr05pnTo9zMe3Reu5l0T0tyk/Uz7vfZhwe+ghjq9N2sCDGa/nwzstp+CWVjENXHuN37sSoascxoWJfrEzVwTv/W3iNrgL996830WfbIFxrJrTL/OGYQHV2n51ErlzXTvDavBWniw7CFyfC4XcqGn5tl+FBra7o+OdmbLoqEzk9kjOw1etSKIKObPVZrrx4l1iUoX8Qxxm6BacqrrPSPwRbHYjbEpETOZJkm6IN0uIkbPcxRPhZrmj1SBrlh16bH6PQoI04O6UuvXuHtoQb0ZawkpiadKE/G4uW7WNx0dABDPJ598YeWjW/mtAJjaecor7hBZ9CefFc6mM+tOV0kMIqnq3uinoRJ/BM/E4Y8qnv15iC+RgueqPNHoe2qdTZCL/tWQhoj8gpwikEG3/tGf7zMI36gw/FrSZiGSJt9N1FAO3IjDwmzIeko3//kr6rgqlHdiOkpCNETqFbeb6z2Fo1175JVnFciUi/aFLO1eKc5vVUkstQkvkY44cZx7ci+L0MMGhbEPLukzDGIfcbinINY864X7oawrGUj0g2i2ORSOSExzCPej39DQ/+EibyJlhwZhW6XpiIct03IFXkAq/hJfyLv3y6Y0eS7NUzFZpCODWheZ+mbMOcLbSvViTuLW2ewTj9JjZ1DsLHx2ikEzkMFfDPn/CL3IwyCwxxyspHa565rCVyLebh7ooOIoO+uqgzGkadp5lKmgitulDlScgb/oMmY1yn6iiE/yJ3noMI8Z+B4zRZhWz7ClNpbytl+0A0DE3Cnzqa4K5RjMA+adum5ADs+nIi/MlNl7KmG6pOOA7IqxHZlWvP+H9agXZiXVLHJKMUHr1ejwfreqImTWKmLbYUbB/QDEO+fAwdTUo3h99Fy6bzcPHtrtjw7UwEiq5C+VHZUT1rPM6S1mQrkRuzExN+7kOESNga34kP9rYnYpILvdetRMGo9tSxJSLnLduPbVt9f7EUU9osCleWdqdMbT2OTGqITitpH0cmN1Zt1WRDzeeewfLuPsitP4KJ/r2RQJ8aFgZWtiaSP0bp3pvxZwHaGj5DW8Opm9Cj4gQky33HLIFDJnmATM7EHkD2r899FBOluNaAOV9jY4+C0J+di2YtF+GKtLVcJqE0+m17Bv/JB/HZ4BKG1bv0ZC6WNktMhwtxUwQ0R+TkvqRriJgTa9GjAC3857RGs/lESjKYZ4Q5JHduuUekYmNPX4w6KPdblfODA0Tuprzo8qE5MpnmyALpjcDYJ5vNwa3VnWh3yyRXqZE7cWxsNer729Gv+GgkyuEjD6XxxA4Gt6QwolKDP8W+yf5UbgrWdPbH+GOAkfTIbbC6tfo+hmzfgyn+5F18sBYdfafgqFT/B4dboFH0ZbzdIwHfzQk07MhZfRRx+LLDR5rLcz9YL83ztsbpD/BVmaHY8qwmph1bj8ElzLPcZKKqNQInw5C1RE654k43MVnbC7exPy4rXJ6IRGkt3r0tETmlUVgaiiNELnEEigTvwjOzugzwyMozeTYEMZT1NsGhoI6IFGISvN6Ff5eBCB/UFbWKCkagsqO66cDrTLGzl8hRLETgQUNMR9HCKHr3Z9z1/RjffFEHe0QvmUTkZDu0Y6uBB9InB6UjORkQOZM319KurPWhk4is3RkL7xpkHEoylqRV6qtdl0Oo13yISkRoMWEAK0CLphO0aFIyMSmmBTSJXaJJTNzHMK8/OtcI1KX+kyqspisEIiRsCAa2NoQ/MJFzZu/wzLK1RuSMNtyEFmEbaBEmwG7ZV23OMxSyk7wPR06cwdMivvh962gsP+McIpeyewRt2+7CA8i7RdbP9bLWJ9OTFPMxxTh+2cFA8D4KHngl0UlXrl0ipwxVsRjTEIeA1uQwEabZwjXRbchohHSrJYV2KPrBFXpPcKyYjVfS3zPkFOR5SwigRalhF7Bi8wEYEWbK/vUIItcy7hpWdTAZxrk5TWlFcsvoTbA6YGcFkSs5DPuPjEFVMyInbSndzyIiJyvYrC5zImdcqYh8UqpX9jSm/YAt0dMw67OT+FnY8dLlQ/8VRxEVcM2BoyM8czDOqlZlO5EbVZjIfCMaoCjOi2I7u685hflBsl4tiJwdW21z1NVEDrgZ3xZ1p5+nzNvDGHajDYUpgLyJFzAnwFI78qD5PkYnfoVxtCA3PsY+HIQlPy6HYQgwEbmg+RcofjA37h1ajelRi7D3B2HLiQbbelNxYEtf/J2p7Passh4uxx0R0CyRM+42KYkcbf1dpa2/n+QFjzJ05wLiW3bF1LNPjVt1f/+RAiEqwrAoU7nQt+ORM4VGmO8qWdP/CxE5Oxi8Ms6JRI6yItIub0XUxFh8euIXMSRFl78nVp+YgQCzLQBZD8rxyoLI2eMUle/i0KpZmBF7AJeErV0KJ6kXuRvbPypldOq4oUdODu5+htdJgV/Tlqlh0/EG4lsFYiqtLGRPlTXj0JPhCV4Ak6dLhUfOOIEoPAHG36R9+3NZROQoE7EaZSLehz9mnfkUfRXuaGurMeNvlllB+lQcn9cV7RZdh67jYtxbWISJ3AvOJNlP5Cg7iRJ1tp2lLJpXiqJuKz/qA/IALBE5WPFaWdhq7e2uJ3KQQwZqtUK7n77ALp0c4mCplG8w1bcH4mmrtn7UcWzra+jl4qOnPluG4leU3jrjb97piGHa7U0IazEBiY/LI+KrL9F4b2aOKXpBo+HP3RoBrRG59POY0C2kuc27KzZenYkAax45eV5ReOrNTzHIGiJnJHF0vlznBbsRJ4UG2TKCzBA52aOv3LWyxCDNmR45xdmY+tTjmNexGxFoHR2xcp2OWFG0VA4hQQEEb/4aMxooWJ4jnMKY4vsEtzeNRPMxFMpVcTQOJ4XimpX2aamj2b3ZQU/xAVUp1sawbeKPDyq8hd/O7UPydUPAf8TnXyKMQDYah7C92LoTmhe5gU1LEnGNXjMxWBVEjsiifF6XV+mOGP9RYXy3fAm+/PGZIZFhbRf4WHPTWv5mjH/ToUT9VvArmB9BI8ejlVlOtqlD6fJXQ7OGxYmHU3ZKvWBMr/oN2gVQ/NwzL5TpOhz9C3+PpQsP4PYzKWi88naERN5BqUBfFKWt/XufR2LmgVRDAHtEPinAnKAqXhft/fJrLtNFS4ZoTRZNELl0glkQuUoZ2+ovVjxT6QZUq7b6Aa5/ZHkgsOUEYCJiPlWbo9eQj6VsKtNCTGiCreBn4W9GWcib7BdYDyWEJDjvugj5pBV+kRI5dPnrY/CIenjy2TKsPEfbD5JHOnV6Z2z9n6ZoXvZt4MlpLJ2yibY2DEHK/ts7GWJMdcXQsJ0vJTQJWWqttHUkgtY7QQ6TT2tEDnqKuxIT3nQo0PAjjGr4BJsWbYDYBeSEAmt9t9lLmNl/EW7o/DB5+2zKVt+MqPBlOEbfGTxyptg0cX7oP9x+RrdVj9x+jCw5CJvE4xTkZCPZYEpg8PqNsDzyLDNEblTpjDGwtvWY7jc53pA2qKu2pMPW8winSLyFlekONDfnCh8cD8WMO+8jyLcIHcN+D7unxiIpVU72UnaQVNMOilcpBLSqRMe6A08pU3/FkHcz4BRvYNGHO/G/QYEwDGUrMXHtZUDiG2fGVaZdDdqZ8amM1gEl4aWxDPwMrugS0n4jEDx+m0jK5EcY1EcumI1RDQyrd1PKc200/v0MDonZp2T4LaZiy+Lu0un4aogcff4gCRO6jsBKgTSKj9CRhiBuPh3XIHjNHCFyREGTp3RBcMINw20SOsoY2ksZQxbn+envfolp/cdhvbQ1JNTlO3E39g4ph5SkiegyZIOp/TTZNQ6bi/nC0Q8/rUfPoOk4ILphDTJ6+4Vi65ZQVKXFQGryNLQbvFr61lRmDhubM91c9yByGduqtcEz/W/WbHU6/h6aEZGj/qe4MaVS+F4khxoMXJ80FpX6bqUcbDlTzoYq9Hfx5SeDMHzjFTHrW7TkauORlBiCcvqzSOg7CJ98LR9ISnMGLa7mLqMjfujai8PT6+KjeMN2h/jQYq77vG2YL3gGUpMx+cMwLJP6sLHMTFsEf+jpCGiOyAn96OwK9Ok3W5rXRCOnhf10JNCxGoabX6z13aUoSOENodsM/Ub3WnUE+v2CxIMPjLe0pCaOQeOh2/BASNAUd3GU7iULTVslcvYONLZ+zmWmiBw5azLCwCEiR7sZq7sNwGR5LPHqiHU362NHBkSuw9mPEDD5kHFsEmLYao1ej62h0tEoSqjSTiF+yAjMTjaNSV5dl+HHGDqQ3C6nOIxPag7BYjE+ShrKCnfE/D1zDUkjF9ega+8oow0Yy9RIh3TwrtUneHTnkWGwful1FCxC2XOKBpgbR3Ok3ruPp3kKoXAWXKSa9vBH/Po3kMv7Bcqjbc+faXfsHQu5LXUg3AOb8vg5vN4ujnxmqTFy+3PBO939sHqxvY/p3C68mg/F8ltejSL8nSrPx/fKqrX57CByamU0G0NcaKvp5CQbT/0/H/go7VY6MuWuo4eDCv0k5U88t2LHct+wauNpD3HnV2F0sNY/aBKgfvUf2vrJivHgRfTD32ofgewjchlhYxrn088P0rfp5hn5Gy+8XSy/jWzLJ0hNzQWfLJgrM2rBi//dAQwcqUQYL57ktTJX2vlYHpsEGp1ufrbynTQmWeMN9jiF/DdrPEeoRfj70zyW/MCRRjv3HQeJnH0hODvNuUrKqaW7G5HTip4M98X+hK/nz8OWH6E41FgrErIcjIB1BLRL5FhjjIB2EWAip13d5HjJmMhlzgSUh376UAbpFsogVcQLZ65Q/ooRcAECTORcADJX4XEIZAmR8zhUuEGaQICJXCbVIG91WgmDyGSJ/Bkj4BIEmMi5BGauxMMQYCLnYQr1pOYwkfMkbXJbGIGMEWAilzFG/AYjYIkAEzm2Cc0iwEROs6phwRgBpyDARM4psHKhHo4AEzkPV7A7N4+JnDtrj2VnBNQjwEROPWb8BSPARI5tQLMIMJHTrGpYMEbAKQgwkXMKrFyohyPARM7DFezOzWMi587aY9kZAfUIMJFTjxl/wQgwkWMb0CwCTOQ0qxoWjBFwCgJM5JwCKxfq4QgwkfNwBbtz85jIubP2WHZGQD0CTOTUY8ZfMAJM5NgGNIsAEznNqoYFYwScggATOafAyoV6OAJM5Dxcwe7cPCZy7qw9lp0RUI8AEzn1mPEXjAATObYBzSLARE6zqmHBGAGnIMBEzimwcqEejgATOQ9XsDs3j4mcO2uPZWcE1CPARE49ZvwFI8BEjm1AswgwkdOsalgwRsApCDCRcwqsXKiHI8BEzsMV7M7NYyLnztpj2RkB9QgwkVOPGX/BCDCRYxvQLAJM5DSrGhaMEXAKAkzknAIrF+rhCDCR83AFu3PzmMi5s/ZYdkZAPQJM5NRjxl8wAkzk2AY0iwATOc2qhgVjBJyCABM5p8DKhXo4AkzkPFzB7tw8JnLurD2WnRFQjwATOfWY8ReMABM5tgHNIsBETrOqYcEYAacgwETOKbByoR6OABM5D1ewOzePiZw7a49lZwTUI8BETj1m/AUjwESObUCzCDCR06xqWDBGwCkIMJFzCqxcqIcjwETOwxXszs1jIufO2mPZGQH1CDCRU48Zf8EIMJFjG9AsAkzkNKsaFowRcAoCTOScAisX6uEIMJHzcAW7c/OYyLmz9lh2RkA9Akzk1GPGXzACTOTYBjSLABM5zaqGBWMEnIIAEzmnwMqFejgCTOQ8XMHu3Dwmcu6sPZadEVCPABM59ZjxF4wAEzm2Ac0iwEROs6phwRgBpyDARM4psHKhHo4AEzkPV7A7N4+JnDtrj2VnBNQjwEROPWb8BSPARI5tQLMIMJHTrGpYMEbAKQgwkXMKrFyohyPARM7DFezOzWMi587aY9kZAfUIMJFTjxl/wQgwkWMb0CwCTOQ0qxoWjBFwCgJM5JwCKxfq4QgwkfNwBbtz85jIubP2WHZGQD0CTOTUY8ZfMAJM5NgGNIsAEznNqoYFYwScggATOafAyoV6OAJM5Dxcwe7cPCZy7qw9lp0RUI8AEzn1mPEXjAATObYBzSLARE6zqmHBGAGnIMBEzimwcqEejgATOQ9XsDs3j4mcO2uPZWcE1CPARE49ZvwFI+AwkUt7+CN+/TsXvAsWgU9udcDpU+8h5fFzeL1dHPny2vlWn4qfU/7E81fzoVj+POoqycTbhjbRhy6qLxMi5uhPcgyRk+0eXni7WH7Y6yIvYhCyvefyLoTCajvxi1Rst8sbxga89DoKFvGByqHFSVJxsdmFQPYSOT1S793H438zN885ipk8HzrUD9Me4s6vT53aP1TJ42gjX/g9WReAQzi9cH3uXUCGRC7lSCzGjlmOAz+TMYmPF8p0nY6E6A4ok8Goq7+2HR8Pm4JtP6ThmfitDgUaDkHc/BFoUEABnP4qtoePxMc7ruCx4UXo8tfHyAWzMapBQdsI74+Ab8RB8e/NIo8jupn5q/sn+CM8SfitCaK/j4Thz0/w/ZpxGB99AJf+kioTm+WDUpWDEbMjBDWF/1aUbVaqVxHUb9cbgwa2QnlnzbjubVNZJr3ridx+hNeYiv12W6C0JVsv0iB0YQ/mTl2KfXeFflMCg9dvxMByFu+n/YAtk8cgQmH3Qv8qXDsU8ZIdXlneAz2W37ZRkWOy3DsUj/Dxyj5M/eu1cugyLx5zWxUTy7ZbT9BUnImy6FyyRFcS0LnXKtyk/y45cBW2WDTSVK4SAz3ufTkPoVM34LhxXBE6fV4UKN8KkfEz0eo9QShT2eYAvINy7TogrHdX1CrK1C/LOpwGCsoeIpeCIzETMHLJIZjMUZjnpmHpJ50U47y98cFGH1dgam0+9K7QBjMXRaKDxWSqv3sIiydORFzyL5BnXqF/VOw0E6vmtMJ7uILlXfph6S0bSrPXZ6VP0s/tNPqU7ohZS6ahc3kLRwotNi/sjsHkRV9BHNLe74eNnwXDckhTSmO97xsHDpP8yrL0d/HlnDGYtOakQhfCeJUP5dtMxnKx7Tw/W2rdLpHTn41Fy/axuKjgO3IBuloTcWjnAJS01fkf7MaggOHYlWrlBZ+u2Hh6JgLEMTgFuwa3xKA9Vl9E73XHMcfwYvpn9zDkD/lC/L1d/B0sa2v+yq7Bxahc4bdWWHZ/EdpBj3Mx7dF67mWJWFoWKb9HvyvKtlq3T23MWL8WwdV4InHW+O96Ikc2W4hs1m6DFDZi5b1bB2IxK3I5dl83Dr/0VmmM35+EUZWUo/pZxLTuglmXpM5FC4l3X3uG/zwUFj2mOi7GBCFg7nUbEtmXRexdZMdNqI8YepcO3vnfQq6/UpBK4pUbsweHR1UW/2K3njYL8HCpReeSJboYi0bNYmlaMS/P+Gej/CYMzGWybJoCK0XZVgHQFUPv5Z9iTpCdxZ6zjJPLdQoC2UHkLsa1QItoYU6g/lGsKiq8cRPnz6WKBMp8nrM3Pljp40qELsYhoPU8aS71gk/+/0Wa2Nfp8aF+nEzzk+zcsJg7BRLzzstp+EXotGVHIPngCFTCBcQ0aYNZV22owV6fFTu8SR7da0VRvcIbuHbhgjguQOeHGclbESxO7rdwICYG05ck4ppySDPKYdsMTGOKNWwU8hvLsscFqB5lnTw/mwFvh8jdQHyrQEw9YzC0JbSC7lD0Ob6f0wnt5xuMPmj+Cazv4mNFk3okjfJDr82PySjKY/S2rRhXIxfubR+NoFDDpFJ06BaciqgJfdJYVOq7FX9SeZVGbsSusX54+e52hLUYbSCBRQfhixPh8LNmL2qJnJ46YhmaqIXeU7YPNqwYh8ASwspDcOPexNUT9/Fap0DqJPQoym4efQjTGtJvT3/B4Y2zMWs1GbzYAZWE1CnjWo4u1PVE7gke3XlkWgEb0f8Bi9oMw/pf6Qffj/HNF4NtLmBMiwcveL/2HI9Fr2/6gexUZD20WvyzYERoF7sN8zqXkLZUSYbLD/Fv+RIQ6Im87SGL8vzaRgSHrsDlNPJud5yDfQvbiu9ZfVI/Qy/f8UgiEXQVh2HL5lD4S1uqQrl30/KgVFFD/00MK41+2+jFeuE4NDuI/IKKx17ogWoipxjAvRsicst89Kps2FIVtn6vXTwLfakPUUdYdivKLjV4DTb0Fn78DRd3LEPUwgO4LUBrNunk6O7iEY13PZH7BlN9eyD+AfB61+XigkawxZQ13VB1wnH6V3lEfPUlwgTX0xUiP02JjKEA+q36FIPKKiG3tx2rJ2dFJXIqCB2xIWYdWY6+5ElO+548z22WiosgeT4EzSyb+9TG8APCuzR3froBw/2lkAMhBONuGrxKFaVRw7T1aELtBzMAACAASURBVJDiOa6tD8WQ+KtI0+VD5wW7EdfW9gLn22m10X4ZNdq7E9afn4MgodEP1qKj7xQcpX9WCt+L5FCh0Qry6pUX3s/TDLtmziByiv7+epPJ2LawByqL45UwLl/BhTN6lPqwrsEjx/OzWX+3TeR+WoF2/jMgmHKpkTtxbGw1w4cKMqQj1n+TVurpfVLJGFt2ANYRj0OLebi7ooP0TnoW/nBcZfTYILwYhCU/LkcHqTD7bF5qg1oipzCUQoM24uyUurYHP5tlk1dvTms0m2/wkvhPO4xdwcU8YhDVWiNcT+SsI6BcbNhevBi+PbxkNM68Q17fpn74Z01ryZtmSeRM/UM5eWSIv2Kl7kN97yD1PXu+qJ8SOqHmlFNUbBVMPbIbITbd56CJRvJeZ7SStxRSNZFTTAxNonBlQ3ealGw8dspO2T4QDUOTaAFIE3DPFbg+OyBD+PgF7SPgeiJnskezec5oe9Y8xBl439LBbGs+TMXGnr4YJUQHlRyG/UfGoKpi3q0+6QC+DCnlkNJMXm5aGMYn0u6UfS+1sb/L9Yq1mOZnk7f+MJaMPId3OrZA0xr/YM0HkhfQGUROMecGzDmDjT1sjgxmRM58Ny5nzs+2iZxNInMFC4M+QOQl0nuB/th5ZhLqqBjcjSt/NETMpdF42NGGYSSOQJHgXaLr2aZS1RI5pUeOVi2NwyIRNTAQJazFutkrO3UTelScgGSh3RlNRg51Q37JGgLaIHIpNNg2pMGWLNGed9hKA2wuRr6djmodV+I+fWMtJMCqNagkccLK3jhJZDjo6rF9QBkM+ZKcAB0X497Clo4bpGoip9wSMsQhLZrYRlp5W1Rrt2yTJ8XmOOR4K/hNjSDgeiKn3Hlqgllb4tCX4sOMHjnlrsvZuajXchFuKL10DuGWiNBiQ7FFmMzMHBtAstGRYQiTaLCxD8qN/ZpedJwsqiVxgsg349ui7vTz9C8fBEWtR3zfCshr9Mj52AhpsrYdahsA1VurylAKr1LoHjUXk9pWsZ5cyfOzGfA2iZxpNe9NSr1AcWqm79LHnlkoM/ljlO69WVwtW3qszJU7DimdJM8dxdydpJg70W0qPBlMEOI7aokcuaO/ndaUXMrClpb8CMHlHyJ0/EB0q1XU5F20W7ZiEslwknSop/NLVhDQBJE7FQ2/tstwl+RTs0IWTdhKfJi53RZA60EB+HX/Lpy+I8TLUIxOhUBERM9G3xrKYOMLtHjqSIsnmgnyFkfjgEA079EVHevK27HWzEcx6Pp2xvjCV5GQLMXAeL0L/74RiBvbAkVED7jpXZ1Oh2fPpNQkSoj4IPwTxPT1s51Jq5rI0bYVTVY1abIyhd4a2h0SNgQDW9OE4tAYoCCqiphC7kjujYDriRxtMp1dge69ZuCYGC8jzAdloDtzFrdzVUHE1i0Ik+OgjXOCDjrdM+on8vs9MT12NFrYTLy5g4T2jTDxO3pfsV2K1OvY+wklzm2hLU5pR6r0Yjkmtgp6jCmMH1YdwjkxcE2Qy0o9ili3vO/XR1CzAPTq3hF1xJAhO4/+LBJ69cdEQ6PhVbgmKrx8Dqd+zAXfcApxCq1mZafNyUSO4uWNi2ZZdCHBo/kAjAgLRmtlAgbPz2bKtUnk7LHpDImcHZDNyx2Ka82k4HLLLR2nEDmh7dYylITfKeaoxVRsWdzdkI1r11DUGbR7D63ZJ332EzllrGcTLDizCl3tePstkbLVh65QcHUjCq62+dBgH/E5xeUYkyOsB1nb315VeAFsVORD3rdvyPvmYzdwmmJXx3yGxFHWBnYqOBNETohJvbY9AkMm7DHPHBcmlGqDsHZluCGrPYOyMxyHss90ueZMIpAdRA5ppxDfbxCmHktTEDQrGZz2AuwtExYs2p9KO0x1aYfJWkqf4VWDR+5lOVbVFn4+7bCKTpJoKY9DVmVyZHuVTm+I749e009QTJ1p8UYBeOQJi8X0zooFlVEWdfOeao+cUI+VEywM1XvBd+hSrIpoYAgn4fnZzEJsErlUo4tXh84J1xFn3G0xbcOYskEtrE6xdWQKmjS8c25OU4ovE3KmBdfxFDzuYwg0RcXROJwUakpnNrqxrWfDiYWp9sgp5BTSqZPWYdHCFdhrPB5F4XWxW7Yi5oE9cpkcsjP+LNuJ3M2laNFgJk6TqKpi2aSm2RrITH2rALos2YSodoJn7QlubxqJ5mOsxH09TsHt1H/wv0K5v/2AjbMmY6G4ktbR1uxFioexljmt8Br7jsSBdYPF7Ut96nHM69gNC8RsN8pOO07ZaUY3uEkn+rt7Ed45BBsFV6SOJplrlFVnrZpMETm5HmrzN9uwYt5yfHrCdMyCEWu7ZSu8HOyRy7gzuckbLidy5JmSs8fLUSz4/rD3cI2O2ZgQTcl4Dw0JB+N37sQoq6cTPMHlJX3RbMYp0buszAJPD7d05M6MTQbvu3jcVQv45dqJTcee0OsGIpdPTkKguNbwfasRIiQC0Vx1fF5XtFuUPi778YPbSP3nf8Tqfru4GVHhywyeRXt9Vnl6Q1mKzdsbiqLX6LikiDlYf/qRuDNgffHmAiInA5d2G99uW4XZS3YojijyRvc1pzBfyMzg+dnMxGzHyCm2R1vGXcMqOQtBuXq3RWJsJUpQ1ear6DH4j+xyNgu6zJikia2wG0fnAOEUC6EOtncSPuy/Rdw+g+wZtGcoiglGdUyRmwyoWhAzu4mcKbO0MMJ2H0OE1dRp20hlvLVquUhSLBDsJR0o+pftyUMx6FoskkxhE/bjcBxKODJm8gHWEojMF24WR7AooEu7vAQ9W8zGcWVGnD0ip4x3tVwEasF4WYZMIeBqIqencb4kHc/zzHJR82A7+jUajUTKw7OfTKPwlqtNFFLGsUo2/NwYjqHIlhWQdKjP02vGBCc7fVvRd8xDn1IoVrYZxcpSo73pRIardESYmRbVETnTzkMBhGw7galmwfRnMbtBe8wTDqC06wyxQZZ5fnaQyCmOLjDzRihSlI0GLni3jh7C3df8ECjGmZ1EZO3OWCgwI+VxDfojmOjfGwmCB06KiXtkPIZBmVmnx5FJDdFppfCiba+B0rhfp050grL4jDtf+iSMrDIQm4SE2IwGej112uLUaR0icsqzbhQrhEwNW/yRPQSylcil0gBdh7b9BfuxeuSIlP5PSTO2biGxSYRsDcrKjHB7SQfWCE66PqgIpLZYnZvkspgsLJRhPKLAXh+klB9jhnq6AVkRSK6jLaE7tCVkU+FWBnabRM78PEi1sYvc67SLgKuJnKkvCMl3a2FKlFTYoz2Cpkh8U86Hwg1FuoxuMnpASXO1KWlOyKOSjuOC0YFi4W1X9AXLXS6lNq2OOYJ36/BZPC3RHAFCnJmiLMtEQtPCy9oZleqInKktVryVit2ODJ0h1nbnbBK5nDk/2zlHThEfJGS2jJ2NkJp/4NCCKGlbx+SlOBzhiy6rDVs98vEMpqwYctP2icInrd7Ahc9mIHLbHfMz6JQKrdgdMVNa4M2L2zBp5i7xnChd4CycX9vFxhEFNyiItCUFkQrLeCEDbjjGdagOn99PY+vcBdgkHcpqGuj345MPd+LvenVQvXQJlK/4LvDLaew0tkmHepFJ2P5RMTPXbfUB89Cv8hPcPfMtjiQfMbp6MzwUWbvjpVtIlp1ETmm/1o8ckWPQdPCduBt7h6Q/49y2R0tht7R1E5IwB31L/Y2LyyZjyFrhjEZv2jI9TFumPkic0h47X26Odo3roeK7XnSU4RHEj4vElh8Fm7ffB/U0KVSlpCOhZ/oETsOGaQ3w6i9JiB4UjSThR5l4JX6Mpp++hJaB/qjtVwGFvJ7i/uEEjJ5q6IP2z87TU+adPx0hZOj/BRp+hFH9A1ERl7Fv5SIs/VrYqlFuTdOJ9ENm4lKhOmhQ9n0Ur/E+3vrtFvatlccGkvWjNbgS2chswinUcjwimuXDr1e/wdGvk3BEDofgsxzdoi87KqSriZzJI2fqI2/RSZI3dkxH2NwTYt8xzB9/I773DJwu3RTNa1dHjZJvWYQ5KBb18k6RjpwTe+nYHxoarqz7GEt/LY/WDetD+NSsHyvPQtTTwqg6JQCKnZayaNdOQqNXf8G+WWGYckD4Ufa0JWJy68+ha9kKTRpY6bPGDPs7WN05CB8fU4wXlRXnqcp1CDLd2I1JI2MNW7NWF68qiZyyLcIpEcHDMKB5eeDSAayIXY1DwtY1jXXG7VK6ySUk8grerVcXZUu+J2L8280krJkyTxrvfNB/0xlE0dCg3Frl+Rmwf0UXHXkQ+sFYbBEBVz7me+im7VLFQYIUe7Dwwx6IPKs8DtpQhnmQNq2u4zqjffT59AexZhBAKpRlnnGUfrjwqTcRn64fgKpifI/9k/vN3rV7crQwYY3CyoTBqMHXdDk6Rqt+L9uInJ7iyxpS7KbgUVYemKlsgWJL0dbxOPa2Jm3fmmJ+0K+yb5kDSMG/iuwyq33Q3q0pXoqMPLtB3A7cYPIgCWM7DMM6kVymf3TFu2Ll9pkIEk+ut38ivdm7Gdzs4FW6Jxavm2QnW1C1yfEH2YyAq4mcYI+rO/clomM9DUFXcQQ+/3wEzR/27FaHEj0XYQcdpC0E4pu2FE1ePts3p6RPTLB984myz9uZy5R926y/mUI5Lq7uis4RBqKa7rEZF6iSyFHBKUkf48OBmw0LwvQVmeGm9BRm+C7Pz2YQZXjXKoT7IGNnY+Wu6/iP8Gk+XwSPHY9+jU1HdQhkqv/wlbictylmrpohDdgCy7qLQ6sWYMGn3xruZ6N7SpvT3asT0mXEUJzaodWYG7cVRw0vomizwRS4qbznzs4Io5Dx7h8p+OeVgnizaGl82HccRpjVlYLvt36G7bsPYv/VB/jr1z+AN9/CawV90TPE4uiDk6sQtkk4LM/8yVO0KpoGtEJ96TT6bB73PLr6bCNyp9dh1PpzdFY6kKd2X0R3NVxjZfbIA4nOdjbrT1/Mwrzkh/RZfgSNHG+4P1TxCPcprpofj41H74mLGK+idfDhR/3MjuBIu5yMDTvWY6fc/+i9d8q2Rv9xg9FWYYM2+yAlUVzesgCRaz7HlUdC5VbuKRUDizdj1Z6vcEbsf4a+qupOYUVf//HhbzRBvIF38hdD/W4hGNOvsXTMiVAwZaweXoOtG7/CvrP38JvcX31obOg3GiHdapne/ekLRM0/CCHAwux5uwyCGgeikd3jVzy6a3hs41xP5AQoLfsI/ZSP5o/OQ9DHaI/C/ckHsGbzVuxPkuZCqS92C+1pdnSVvKgy202iOerz5ZuwOfmg1A+pJ9bogmGWx2pImk27vBWxdL7bjqvirCv2efN6SObkDdixJtH4jqFv98L4IebnMqYkTUTfCV/hSfn+WJQgOzXoJhWLOqyODWaWdgdfRC9EkjikNcHocOne0wys0TTO3cFDac7NX7wOeoQON+MRQsbq4dU7sCFJGId+x+/3/8ErhV7HW0WbYoDl8WA8P5uhnjGR89ghgxumdQSyjcg5AIwcS5KZbFYHiudXGIEciUD2ELmshFqOreP46axElcuyjwATObYQzSKgXSInH0abuWxWzQLOgjEC2YyA2xM5OflB5S0w2Qw7V+/mCDCRc3MFerL4WiZy5/Ydws3nRVG3lZ/d+049WT/cNkYgqxFwfyJ3DvsO3sLzYnXQqob9+06zGjsuL+ciwEQu5+pe8y3XLpHTPHQsICPglgi4PZFzS9RZaHdHgImcu2vQg+VnIufByuWmMQJWEGAix2bBCKhHgImcesz4CxchwETORUBzNYyARhBgIqcRRbAYboUAEzm3UlfOEpaJXM7SN7eWEWAixzbACKhHgImcesz4CxchwETORUBzNYyARhBgIqcRRbAYboUAEzm3UlfOEpaJXM7SN7eWEWAixzbACKhHgImcesz4CxchwETORUBzNYyARhBgIqcRRbAYboUAEzm3UlfOEpaJXM7SN7eWEWAixzbACKhHgImcesz4CxchwETORUBzNYyARhBgIqcRRbAYboUAEzm3UlfOEpaJXM7SN7eWEWAixzbACKhHgImcesz4CxchwETORUBzNYyARhBgIqcRRbAYboUAEzm3UlfOEpaJXM7SN7eWEWAixzbACKhHgImcesz4CxchwETORUBzNYyARhBgIqcRRbAYboUAEzm3UlfOEpaJXM7SN7eWEWAixzbACKhHgImcesz4CxchwETORUBzNYyARhBgIqcRRbAYboUAEzm3UlfOEpaJXM7SN7eWEWAixzbACKhHgImcesz4CxchwETORUBzNYyARhBgIqcRRbAYboUAEzm3UlfOEpaJXM7SN7eWEWAixzbACKhHgImcesz4CxchwETORUBzNYyARhBgIqcRRbAYboUAEzm3UlfOEpaJXM7SN7eWEWAixzbACKhHgImcesz4CxchwETORUBzNYyARhBgIqcRRbAYboUAEzm3UlfOEpaJXM7SN7eWEWAixzbACKhHgImcesz4CxchwETORUBzNYyARhBgIqcRRbAYboUAEzm3UlfOEpaJXM7SN7eWEWAixzbACKhHgImcesz4CxchwETORUBzNYyARhBgIqcRRbAYboUAEzm3UlfOEpaJXM7SN7eWEWAixzbACKhHgImcesz4CxchwETORUBzNYyARhBgIqcRRbAYboUAEzm3UlfOEpaJXM7SN7eWEWAixzbACKhHgImcesz4CxchwETORUBzNYyARhBgIqcRRbAYboUAEzm3UlfOEpaJXM7SN7eWEWAixzbACKhHgImcesz4CxchwETORUBzNYyARhBgIqcRRbAYboUAEzm3UlfOEpaJXM7SN7eWEWAixzbACKhHgImcesz4CxchwETORUBzNYyARhBgIqcRRbAYboUAEzm3UlfOEpaJXM7SN7eWEfA0IqdPvYeUx8/h9XZx5MubRfpNe4g7vz5FLu9CKOyTO4sKdWExJP/pE8fw4x+5UahKHVQv5QM3bIULAcu4KiZyGWPEb2QTAkzksgl4rpYRyCYEsoPIpT38Eb/+jawlWxJ+F2OCEDD3OtrF38GytlkE6u5hyB/yBcqN2YPDoypnUaEuKubBbgwKGI5dqXJ9rbDs/iK0c1H1nloNEzlP1awHtIuJnAcokZvACKhAIDuI3K7BxTBoD7KWbDGRs6p1A7G9g4DpXyCu53vAoz+gK5IfWeWsdMjUUs9h38FbeK1aB9R936EvnP/SraPYdvYJSjZpjqo+6qtjIqceM/7CRQgwkXMR0FwNI6ARBJjIOaAIN/bIGUhzaYzfn4RRlRxoqzNeuRiLRs1iUSYrvaQvKqeo0+uZxoWJ3IsqgL93GgJM5JwGLRfMCGgSAa0SOcP2ay54FywCm2FpQuza7y+jYBFTzFfWbK0+waM7j/D0pdcNZdsjclL8HF7Nh2L586TXsT4VP6f8iedyWVluBXqk3ruPx/964e1i6T1tL0Lk5C1wx2IDLTBTtlPCT+12txjv+H8+9nGF9XYbqpdksvKOwU7ARC7L7ZELzHYEmMhluwpYAEbApQhog8hRHFeh4TjZfxFiCu3FjNgDuPTXMwMOXqUwaOln+CRA3v/S496heISPX44DPz81vKPLi8BPvsCG3sVgjcjZmrStkZyUpInoMmQDrslF56+GQY1fQdzm4+Yxcg+OIGbkGMz/+hEkSeFVuieWbZ6BoAKCUClIiuiHoRuv4LHxhXfx4cyNiO9YzIqOLyCmSRvMwggkHxwBk/PMgM2usqbfRblP9sGiiCdYOmGPESvda9UxOGERIhoUBA7PQL0xifjtjxSkSm0xVCrEyA3EbaGuQlH4fsLLiBk+Ddt+SEMLyWOWciQWY8co8IUO3hU6Y/F6uW1UjEjOvkfwsmi8mzgbMftM7fQq/RESdkxBwF/bEdJrLr5L/RO/mAlhL07vCS5vmYLQSaZ2wetdDF3xDSY3onr1V7E9fCQ+3mGOa+D4RVgZXE1K4tDjXMJg9J91CLKJCDZSMXQVvqp/DM2GbMWDv36j/8uKoXIV+DrSAdkj5whK/E62IMBELltg50oZgWxDQEtEbpdIGAIRMrAbmvu9iV92TEfY3BNIrTgah5NCUY5QSk0cgbrBu5DqUxn9h/WB79sCdL/i91eaIbjVCxK5i3EIaD0PF/PWRlj0GPQgNnVz3y7ELtuCUw+fKYjcBSwM6ojI2+UQPH8SBlR6C09vbEBY8EpcqzYRh3YOgM9n/VBl5DGU6RODWYMqgN7A/UvH8AMMcqZ/VBI5ijH0Kt0SoUMNWP1xOAGjp+7CbTREzIm16PFEiAF7hPNrRmP5mQJoPXEsmucTas2Hah1fx26ByN33gc/zZ/CuXA+1inqhSvcY9H9VgcGUYWjv9wru71yO0QuS8CBvV2w8PRMBQsqr5GUTCVLzARjcKxB+b97HjqnjMetYKiqF70VyD70YG3d7/xxMS3yA6gPmoZ+YKyLIUB/WwuUuxrVAi+jLQPFAjBzYHEUFJ+eTe/i/ciPQrWYqEsMC0G9bGkp0HI3pfYJQ6J/T2BQ1GQlnn8N/WiJ2BZcCTkXDr+0ypAWGY+V4escL+O3mUXz9a1mM8tNbxyXv+2jSvCocDZdjIpdtQxZXnBECTOQyQoj/zgh4FgKaInLpvCLfYKpvD8Q/kD04NxDfKhBTz1TB1CO7EVIyvS4y75HTI2mUH3pt9kbItq8wtY7igA6LrVU9/XfJkCQ0mPM1NvYg75f0nJvTFM3m50bEV1+i8V5h6+5fjE78CuOqOWIzaolc+ri3lI19UHPs13hfkV1rfWtVquuqPyJPrMGAonJbbWNwM74t6k4/T2TpMJElIqK2tpu/nU4kbSXut1mAh0sNacMOb3frkzCyykBsQiesPz8HQZZnpNxcihYNZuJikyic3NAdRuSN3xHRvEpEU5KtZdw1rOpg/aCVF9lyFtrERM4Rm+Z3sgUBJnLZAjtXyghkGwLaJnIy4ZCInH47+hUfjUSFh84SuMwTubOY3aA95j2SyICyYAvS8u202mi/LA+GbFqBPsRpjM/XkagVfleMuxr68GNU7b0Z/5DXbFzEcHRpUNp2rJ9YwIsTOfy0Au38Z+A4EZ0rRHQE75J9Ime5xSkR56dWMJASFq7IBM0WkbN8Tw2ROzsX9Vouwk8dF+Pewpbp+kQqEdVyRFSNZFLxhlk7XyUcAmbg9JvV0Cs8AiNa1Eh3piATuWwbcrhiZyPARM7ZCHP5jIC2EHArImeFJGQdkUsfi2Ys24K0yMenWNek7CmjOK31oxBG231ivB3FeQUOmYHooY1RxKqTKAuIHGzE06XLWrUgyKaGpovHM7VRKtuZRC6D7GB7nj3LOMiUpCgEj18jbomL278fTkHcJ51QXjp3hYmctsYhliYLEWAil4VgclGMgBsg4FZETvY41ZqIkxSHRqeipXsy75FLxtiyA7DOqz92npmEOsqSLQhG8rjK6LGhgGMZj5S1euP7z7F65mKsP/0Iecnb9A15m9LHYmUBkUvdhB4VJyA50x45Oxhcodi5phQ/6Ewil/wxSpMXEz1X4PrsgHS6/SmhE2pOOYWAOWdoS9scwcSw0hQ7V8xCJ5S1evoQNiQsQNyeG3hOntwvKdZSSCRhIucGgxOLmDkEmMhlDjf+ihFwVwTcishBIhr/0JbgNbqdwIpnyzaRe0yxbyco9s2kKfPJPBUbe/pi1EEr8XcWRM5AKM4jaP4JrO/iaHi8FN9308q2pSiSROT+sCSSjnrZKKEzaSwq9d2K14dSckZETbFUdVurtjFIFZM3Dpri75yxtSoTdVsZpFL83ZOuy8W4O5P6TyKydmcsFGIprdqFHPtXBjOOb0UwrQCYyLnriMVyZ4gAE7kMIeIXGAGPQsC9iJwpcN6n3ggsnNoN/uXfwLN7N3H14SuoU+N9Y2B9/cmJmNuyoHgO3G3KhGxEmZBF+6/DoekNkJe8ZBeSlmFa+DIcSzUlDaQSOalNV3H9XbE/Vi0eigalcuNP8ugkzJqMhZSJabyiK/Uz9PIdj6S8TTBrbTQ6VpfObxPuND10AbrWgfD6/hj0RaqhvHS2nP7uVoQEjUViUVMGrrkhXaFM2A8Qeakwgjfvx4wGeaBPPY+k+GiMW0yZu5bHj+zRUeZmBOaFtqa7U/PgyYXNGN59CpLS/DAjmciKlAiijsiZsoL/rTUGa1cGw58O8Uu7vBYhnS3KVkHk5MSIot0WYW1oBTrV7f/wkndpkGosnlQiWI3oAON/qG2RWDS2KSrSPvSfd67gx99LoFa1nw3ZwpfyofvSdZjepgTp8i4OzRyM3ssuIy958s6RJ+/J2e/w49ul6FvpfMG0U4hq0wkLbrfDqjuxEKLv5Bsv/CduQmyLt4Cn/0Xu8iVMCRQZ9HJOdvCoYdCzGsNEzrP0ya1hBDJCwN2IHGji3j62I0ZsM53fJrRRJwfIy0eICEeEyeTn5hp0aD4VxxTnqeny16fz4R7T+XB/K7bjUnAkcjD6LD5Ph4VIjy4fGneuip83JCGXIhvU8rw5I85eHbHu5lw8F7f6FOeUCS94VUHE1i0Iq2Y9k/Lm6q4IjDhhqpuOYynQsC+a/LUcm55anCO3pwAqVft/uEZHjBhrIVk7L9iNuLamTFq1RI78ejgX1xntoxUYiLKXQv8l6xAVJJWthsjpkzGh9hCsFOLVxMfOTRNEumK69MGss2aH3xmOMwmlA2jo7tjQD8Zii7EsUfuE0zisXTMAVQnaKxJxN7N9S2zS2YS6O2iZyGU0svDfsw0BJnLZBj1XzAhkCwLZQeTkGwO83i4uZRPauhXA9q0FaQ+/x4mjP+EPQu2N4jXhW9F0A4R4I8Dj51DetiB4t44evCm9Xw+1BS+aeCsDnaNmcXuEsexX8sO3UT2UyGuQ75l3IRRWXjMheOBOHMOPghD0vFKwLGpWqWBq0+WzOHn5If4R/yiXZU/N1N4LR3Hw+p/00usoXt8f1cmjJ+L1KaN4LQAAARdJREFUTLplgv6iJGcD80k4UPlV6vihlMU1GNZvyLB/G4QgoRIvvPEeGtS2yPyUbrRId+uDfJOF5U0Xwu+XzuDE72+gRhnyfClu40iPCMl34xS+PS9glxuFyvuhcnnlrRVPcPubQziToqdP6e9V6pBX0nS7h0BGU+9dxJnvDPYhYFm6SX1UtrwihNpw+fwpOnuvOCqWLGb9Bgkb6mIily3DFVfqCAJM5BxBid9hBDwHgewgcp6DXva05EXju7JHas+qlYmcZ+nTo1rDRM6j1MmNYQQyRICJXIYQae4FJnLZrxImctmvA5bABgJM5Ng0GIGchQATOffTNxO57NcZE7ns1wFLwESObYARYAQIASZybAaMgHoE/j/JAxHNj3oGfgAAAABJRU5ErkJggg==;clipPath=inset(0% 0.33% 0% 0%);" vertex="1" parent="1">
          <mxGeometry x="2170" y="-70" width="657.33" height="138.5" as="geometry" />
        </mxCell>
      </root>
    </mxGraphModel>
  </diagram>
</mxfile>
